{
classes = (
{
automatic = 1;

glyphs = (
{
color = 4;
glyphname = A;
lastChange = "2014-04-26 15:52:18 +0100";
layers = (
{
anchors = (
{
name = ogonek;
position = "{495, 0}";
},
{
name = top;
position = "{337, 680}";
},
{
name = topleft;
position = "{198, 517}";
}
);
layerId = "F257A41E-77B2-4FB8-8247-C188CBBE1401";
name = "Light Italic";
paths = (
{
closed = 1;
nodes = (
"336 680 LINE",
"-1 0 LINE",
"1 0 LINE",
"336 676 LINE",
"483 0 LINE",
"485 0 LINE",
"337 680 LINE"
);
},
{
closed = 1;
nodes = (
"107 215 LINE",
"105 213 LINE",
"438 213 LINE",
"437 215 LINE"
);
}
);
width = 556;
},
{
anchors = (
{
name = ogonek;
position = "{489, 0}";
},
{
name = top;
position = "{355, 696}";
},
{
name = topleft;
position = "{66, 534}";
}
);
background = {
paths = (
{
closed = 1;
nodes = (
"371 0 LINE",
"589 0 LINE",
"468 696 LINE",
"222 696 LINE",
"-70 0 LINE",
"153 0 LINE",
"196 135 LINE",
"361 135 LINE"
);
},
{
closed = 1;
nodes = (
"325 539 LINE",
"330 539 LINE",
"350 279 LINE",
"242 279 LINE"
);
}
);
};
layerId = UUID0;
name = "Bold Italic";
paths = (
{
closed = 1;
nodes = (
"234 696 LINE",
"-62 0 LINE",
"149 0 LINE",
"332 567 LINE",
"363 0 LINE",
"577 0 LINE",
"476 696 LINE"
);
},
{
closed = 1;
nodes = (
"225 279 LINE",
"177 135 LINE",
"370 135 LINE",
"362 279 LINE"
);
}
);
width = 589;
},
{
anchors = (
{
name = ogonek;
position = "{506, 0}";
},
{
name = top;
position = "{338, 682}";
},
{
name = topleft;
position = "{198, 520}";
}
);
background = {
paths = (
{
closed = 1;
nodes = (
"439 0 LINE",
"498 0 LINE",
"357 685 LINE",
"282 685 LINE",
"-27 0 LINE",
"36 0 LINE",
"117 185 LINE",
"403 185 LINE"
);
},
{
closed = 1;
nodes = (
"314 632 LINE",
"316 632 LINE",
"393 235 LINE",
"139 235 LINE"
);
}
);
};
layerId = "BCC09A48-EAE1-493E-95CB-92D2C26BC05D";
name = "Regular Italic";
paths = (
{
closed = 1;
nodes = (
"319 682 LINE",
"-12 0 LINE",
"20 0 LINE",
"335 657 LINE",
"464 0 LINE",
"496 0 LINE",
"357 682 LINE"
);
},
{
closed = 1;
nodes = (
"119 228 LINE",
"103 199 LINE",
"435 199 LINE",
"430 228 LINE"
);
}
);
width = 558;
},
{
anchors = (
{
name = ogonek;
position = "{495, 0}";
},
{
name = top;
position = "{344, 689}";
},
{
name = topleft;
position = "{144, 527}";
}
);
background = {
paths = (
{
closed = 1;
nodes = (
"436 0 LINE",
"533 0 LINE",
"394 689 LINE",
"274 689 LINE",
"-34 0 LINE",
"65 0 LINE",
"139 173 LINE",
"405 173 LINE"
);
},
{
closed = 1;
nodes = (
"323 603 LINE",
"327 603 LINE",
"391 250 LINE",
"172 250 LINE"
);
}
);
};
layerId = "A11F629A-ECF3-413E-B2EC-6C6F8C33A243";
name = "Regular Italic";
paths = (
{
closed = 1;
nodes = (
"284 689 LINE",
"-32 0 LINE",
"65 0 LINE",
"332 610 LINE",
"427 0 LINE",
"524 0 LINE",
"403 689 LINE"
);
},
{
closed = 1;
nodes = (
"158 250 LINE",
"124 173 LINE",
"412 173 LINE",
"400 250 LINE"
);
}
);
width = 567;
}
);
leftKerningGroup = A;
rightKerningGroup = A;
unicode = 0041;
},
{
color = 7;
glyphname = Aogonek;
lastChange = "2014-04-26 15:52:18 +0100";
layers = (
{
background = {
paths = (
{
closed = 1;
nodes = (
"381 0 LINE",
"490 0 LINE",
"400 -41 OFFCURVE",
"360 -99 OFFCURVE",
"360 -158 CURVE SMOOTH",
"360 -225 OFFCURVE",
"414 -267 OFFCURVE",
"498 -267 CURVE SMOOTH",
"536 -267 OFFCURVE",
"591 -256 OFFCURVE",
"630 -239 CURVE",
"600 -147 LINE",
"584 -155 OFFCURVE",
"558 -162 OFFCURVE",
"531 -162 CURVE SMOOTH",
"507 -162 OFFCURVE",
"491 -148 OFFCURVE",
"491 -123 CURVE SMOOTH",
"491 -82 OFFCURVE",
"520 -40 OFFCURVE",
"599 0 CURVE",
"478 696 LINE",
"232 696 LINE",
"-60 0 LINE",
"163 0 LINE",
"206 135 LINE",
"371 135 LINE"
);
},
{
closed = 1;
nodes = (
"335 539 LINE",
"340 539 LINE",
"360 279 LINE",
"252 279 LINE"
);
}
);
};
components = (
{
name = A;
transform = "{1, 0, 0, 1, 0, 0}";
},
{
name = ogonek;
transform = "{1, 0, 0, 1, 274, 0}";
}
);
layerId = UUID0;
name = "Bold Italic";
width = 589;
},
{
components = (
{
name = A;
transform = "{1, 0, 0, 1, 0, 0}";
},
{
name = ogonek;
transform = "{1, 0, 0, 1, 398, 0}";
}
);
layerId = "F257A41E-77B2-4FB8-8247-C188CBBE1401";
name = "Light Italic";
width = 556;
},
{
background = {
paths = (
{
closed = 1;
nodes = (
"357 685 LINE",
"282 685 LINE",
"-27 0 LINE",
"36 0 LINE",
"117 185 LINE",
"403 185 LINE",
"439 1 LINE",
"380 -33 OFFCURVE",
"339 -89 OFFCURVE",
"339 -145 CURVE SMOOTH",
"339 -192 OFFCURVE",
"371 -226 OFFCURVE",
"439 -226 CURVE SMOOTH",
"470 -226 OFFCURVE",
"489 -221 OFFCURVE",
"519 -210 CURVE",
"507 -172 LINE",
"492 -178 OFFCURVE",
"474 -182 OFFCURVE",
"451 -182 CURVE SMOOTH",
"414 -182 OFFCURVE",
"396 -161 OFFCURVE",
"396 -132 CURVE SMOOTH",
"396 -69 OFFCURVE",
"446 -32 OFFCURVE",
"498 0 CURVE"
);
},
{
closed = 1;
nodes = (
"314 632 LINE",
"316 632 LINE",
"393 235 LINE",
"139 235 LINE"
);
}
);
};
components = (
{
name = A;
transform = "{1, 0, 0, 1, 0, 0}";
},
{
name = ogonek;
transform = "{1, 0, 0, 1, 381, 0}";
}
);
layerId = "BCC09A48-EAE1-493E-95CB-92D2C26BC05D";
name = "Regular Italic";
width = 558;
},
{
background = {
paths = (
{
closed = 1;
nodes = (
"436 0 LINE",
"459 0 LINE",
"390 -37 OFFCURVE",
"350 -92 OFFCURVE",
"350 -146 CURVE SMOOTH",
"350 -204 OFFCURVE",
"391 -241 OFFCURVE",
"468 -241 CURVE SMOOTH",
"502 -241 OFFCURVE",
"534 -235 OFFCURVE",
"568 -219 CURVE",
"549 -165 LINE",
"537 -172 OFFCURVE",
"513 -180 OFFCURVE",
"486 -180 CURVE SMOOTH",
"445 -180 OFFCURVE",
"427 -162 OFFCURVE",
"427 -136 CURVE SMOOTH",
"427 -102 OFFCURVE",
"448 -48 OFFCURVE",
"533 0 CURVE",
"394 689 LINE",
"274 689 LINE",
"-34 0 LINE",
"65 0 LINE",
"139 173 LINE",
"405 173 LINE"
);
},
{
closed = 1;
nodes = (
"323 603 LINE",
"327 603 LINE",
"391 250 LINE",
"172 250 LINE"
);
}
);
};
components = (
{
name = A;
transform = "{1, 0, 0, 1, 0, 0}";
},
{
name = ogonek;
transform = "{1, 0, 0, 1, 328, 0}";
}
);
layerId = "A11F629A-ECF3-413E-B2EC-6C6F8C33A243";
name = "Regular Italic";
width = 567;
}
);
leftKerningGroup = A;
rightKerningGroup = A;
unicode = 0104;
},
{
color = 4;
glyphname = AE;
lastChange = "2014-04-26 15:52:18 +0100";
layers = (
{
anchors = (
{
name = top;
position = "{541, 696}";
}
);
background = {
paths = (
{
closed = 1;
nodes = (
"410 0 LINE",
"808 0 LINE",
"825 143 LINE",
"593 143 LINE",
"586 280 LINE",
"798 280 LINE",
"815 423 LINE",
"579 423 LINE",
"573 553 LINE",
"819 553 LINE",
"858 696 LINE",
"291 696 LINE",
"-65 0 LINE",
"162 0 LINE",
"220 135 LINE",
"406 135 LINE"
);
},
{
closed = 1;
nodes = (
"392 537 LINE",
"397 537 LINE",
"403 279 LINE",
"281 279 LINE"
);
}
);
};
layerId = UUID0;
rightMetricsKey = E;
name = "Bold Italic";
paths = (
{
closed = 1;
nodes = (
"288 696 LINE",
"-64 0 LINE",
"155 0 LINE",
"397 549 LINE",
"401 0 LINE",
"791 0 LINE",
"811 144 LINE",
"583 144 LINE",
"571 553 LINE",
"814 553 LINE",
"854 696 LINE"
);
},
{
closed = 1;
nodes = (
"261 279 LINE",
"198 135 LINE",
"408 135 LINE",
"409 279 LINE"
);
},
{
closed = 1;
nodes = (
"558 421 LINE",
"565 282 LINE",
"788 282 LINE",
"806 421 LINE"
);
}
);
width = 846.816;
},
{
anchors = (
{
name = top;
position = "{516, 680}";
}
);
layerId = "F257A41E-77B2-4FB8-8247-C188CBBE1401";
rightMetricsKey = E;
name = "Light Italic";
paths = (
{
closed = 1;
nodes = (
"343 680 LINE",
"-15 0 LINE",
"-13 0 LINE",
"344 678 LINE",
"427 0 LINE",
"664 0 LINE",
"664 2 LINE",
"429 2 LINE",
"346 678 LINE",
"704 678 LINE",
"704 680 LINE"
);
},
{
closed = 1;
nodes = (
"95 207 LINE",
"94 205 LINE",
"402 205 LINE",
"403 207 LINE"
);
},
{
closed = 1;
nodes = (
"384 362 LINE",
"384 360 LINE",
"650 360 LINE",
"650 362 LINE"
);
}
);
width = 750;
},
{
anchors = (
{
name = top;
position = "{501, 682}";
}
);
background = {
paths = (
{
closed = 1;
nodes = (
"429 0 LINE",
"700 0 LINE",
"706 50 LINE",
"477 50 LINE",
"438 330 LINE",
"673 330 LINE",
"679 380 LINE",
"431 380 LINE",
"395 635 LINE",
"722 635 LINE",
"736 685 LINE",
"314 685 LINE",
"-37 0 LINE",
"26 0 LINE",
"118 185 LINE",
"405 185 LINE"
);
},
{
closed = 1;
nodes = (
"344 636 LINE",
"346 636 LINE",
"398 235 LINE",
"143 235 LINE"
);
}
);
};
layerId = "BCC09A48-EAE1-493E-95CB-92D2C26BC05D";
name = "Regular Italic";
paths = (
{
closed = 1;
nodes = (
"331 682 LINE",
"-28 0 LINE",
"5 0 LINE",
"349 657 LINE",
"428 0 LINE",
"680 0 LINE",
"685 29 LINE",
"455 29 LINE",
"378 653 LINE",
"715 653 LINE",
"723 682 LINE"
);
},
{
closed = 1;
nodes = (
"114 221 LINE",
"97 193 LINE",
"411 193 LINE",
"408 221 LINE"
);
},
{
closed = 1;
nodes = (
"404 373 LINE",
"408 345 LINE",
"669 345 LINE",
"673 373 LINE"
);
}
);
width = 757;
},
{
anchors = (
{
name = top;
position = "{530, 689}";
}
);
background = {
paths = (
{
closed = 1;
nodes = (
"422 0 LINE",
"721 0 LINE",
"730 76 LINE",
"503 76 LINE",
"476 312 LINE",
"715 312 LINE",
"724 388 LINE",
"465 388 LINE",
"441 613 LINE",
"750 613 LINE",
"770 689 LINE",
"313 689 LINE",
"-47 0 LINE",
"53 0 LINE",
"139 173 LINE",
"402 173 LINE"
);
},
{
closed = 1;
nodes = (
"355 605 LINE",
"360 605 LINE",
"394 250 LINE",
"176 250 LINE"
);
}
);
};
layerId = "A11F629A-ECF3-413E-B2EC-6C6F8C33A243";
rightMetricsKey = E;
name = "Regular Italic";
paths = (
{
closed = 1;
nodes = (
"317 689 LINE",
"-49 0 LINE",
"51 0 LINE",
"364 613 LINE",
"421 0 LINE",
"718 0 LINE",
"729 76 LINE",
"504 76 LINE",
"446 613 LINE",
"753 613 LINE",
"775 689 LINE"
);
},
{
closed = 1;
nodes = (
"158 250 LINE",
"120 173 LINE",
"416 173 LINE",
"410 250 LINE"
);
},
{
closed = 1;
nodes = (
"455 387 LINE",
"465 311 LINE",
"713 311 LINE",
"723 387 LINE"
);
}
);
width = 808;
}
);
leftKerningGroup = AE;
rightKerningGroup = AE;
rightMetricsKey = E;
unicode = 00C6;
},
{
color = 4;
glyphname = B;
lastChange = "2014-04-26 15:52:18 +0100";
layers = (
{
background = {
paths = (
{
closed = 1;
nodes = (
"231 145 LINE",
"250 297 LINE",
"298 297 LINE SMOOTH",
"358 297 OFFCURVE",
"387 274 OFFCURVE",
"387 231 CURVE SMOOTH",
"387 176 OFFCURVE",
"353 145 OFFCURVE",
"264 145 CURVE"
);
},
{
closed = 1;
nodes = (
"266 427 LINE",
"282 555 LINE",
"312 555 LINE SMOOTH",
"373 555 OFFCURVE",
"395 536 OFFCURVE",
"395 502 CURVE SMOOTH",
"395 455 OFFCURVE",
"363 427 OFFCURVE",
"299 427 CURVE"
);
},
{
closed = 1;
nodes = (
"598 288 OFFCURVE",
"549 343 OFFCURVE",
"460 364 CURVE",
"461 368 LINE",
"553 389 OFFCURVE",
"604 457 OFFCURVE",
"604 533 CURVE SMOOTH",
"604 631 OFFCURVE",
"519 696 OFFCURVE",
"332 696 CURVE SMOOTH",
"93 696 LINE",
"8 0 LINE",
"265 0 LINE SMOOTH",
"500 0 OFFCURVE",
"598 89 OFFCURVE",
"598 221 CURVE SMOOTH"
);
},
{
closed = 1;
nodes = (
"103 696 LINE",
"6 0 LINE",
"246 0 LINE SMOOTH",
"425 0 OFFCURVE",
"563 40 OFFCURVE",
"587 203 CURVE SMOOTH",
"602 314 OFFCURVE",
"529 353 OFFCURVE",
"459 368 CURVE",
"521 385 OFFCURVE",
"590 425 OFFCURVE",
"602 513 CURVE SMOOTH",
"621 651 OFFCURVE",
"505 696 OFFCURVE",
"314 696 CURVE SMOOTH"
);
},
{
closed = 1;
nodes = (
"380 555 OFFCURVE",
"399 537 OFFCURVE",
"394 498 CURVE",
"387 447 OFFCURVE",
"363 427 OFFCURVE",
"301 427 CURVE SMOOTH",
"252 427 LINE",
"233 297 LINE",
"297 297 LINE SMOOTH",
"359 297 OFFCURVE",
"389 275 OFFCURVE",
"381 223 CURVE SMOOTH",
"372 159 OFFCURVE",
"327 145 OFFCURVE",
"266 145 CURVE SMOOTH",
"227 145 LINE",
"284 555 LINE",
"315 555 LINE SMOOTH"
);
}
);
};
layerId = UUID0;
name = "Bold Italic";
paths = (
{
closed = 1;
nodes = (
"103 696 LINE",
"6 0 LINE",
"246 0 LINE SMOOTH",
"505 0 OFFCURVE",
"589 100 OFFCURVE",
"589 221 CURVE SMOOTH",
"589 321 OFFCURVE",
"523 354 OFFCURVE",
"453 368 CURVE",
"527 387 OFFCURVE",
"604 433 OFFCURVE",
"604 535 CURVE SMOOTH",
"604 657 OFFCURVE",
"491 696 OFFCURVE",
"314 696 CURVE SMOOTH"
);
},
{
closed = 1;
nodes = (
"374 555 OFFCURVE",
"395 540 OFFCURVE",
"395 509 CURVE SMOOTH",
"395 474 OFFCURVE",
"386 427 OFFCURVE",
"301 427 CURVE SMOOTH",
"252 427 LINE",
"233 297 LINE",
"297 297 LINE SMOOTH",
"352 297 OFFCURVE",
"382 279 OFFCURVE",
"382 239 CURVE SMOOTH",
"382 186 OFFCURVE",
"362 145 OFFCURVE",
"266 145 CURVE SMOOTH",
"227 145 LINE",
"284 555 LINE",
"315 555 LINE SMOOTH"
);
}
);
width = 610;
},
{
background = {
paths = (
{
closed = 1;
nodes = (
"189 680 LINE",
"94 0 LINE",
"251 0 LINE SMOOTH",
"381 0 OFFCURVE",
"487 46 OFFCURVE",
"505 183 CURVE SMOOTH",
"521 294 OFFCURVE",
"445 355 OFFCURVE",
"351 360 CURVE",
"430 370 OFFCURVE",
"502 428 OFFCURVE",
"514 513 CURVE SMOOTH",
"529 619 OFFCURVE",
"462 680 OFFCURVE",
"323 680 CURVE SMOOTH"
);
},
{
closed = 1;
nodes = (
"462 678 OFFCURVE",
"527 617 OFFCURVE",
"512 513 CURVE SMOOTH",
"497 410 OFFCURVE",
"400 361 OFFCURVE",
"336 361 CURVE SMOOTH",
"146 361 LINE",
"146 359 LINE",
"332 359 LINE SMOOTH",
"445 359 OFFCURVE",
"519 292 OFFCURVE",
"503 183 CURVE SMOOTH",
"485 46 OFFCURVE",
"379 2 OFFCURVE",
"252 2 CURVE SMOOTH",
"96 2 LINE",
"191 678 LINE",
"324 678 LINE SMOOTH"
);
}
);
};
layerId = "F257A41E-77B2-4FB8-8247-C188CBBE1401";
name = "Light Italic";
paths = (
{
closed = 1;
nodes = (
"189 680 LINE",
"94 0 LINE",
"251 0 LINE SMOOTH",
"446 0 OFFCURVE",
"507 103 OFFCURVE",
"507 212 CURVE SMOOTH",
"507 305 OFFCURVE",
"437 355 OFFCURVE",
"351 360 CURVE",
"438 371 OFFCURVE",
"516 440 OFFCURVE",
"516 541 CURVE SMOOTH",
"516 630 OFFCURVE",
"449 680 OFFCURVE",
"323 680 CURVE SMOOTH"
);
},
{
closed = 1;
nodes = (
"449 678 OFFCURVE",
"514 628 OFFCURVE",
"514 541 CURVE SMOOTH",
"514 419 OFFCURVE",
"406 361 OFFCURVE",
"336 361 CURVE SMOOTH",
"146 361 LINE",
"146 359 LINE",
"332 359 LINE SMOOTH",
"435 359 OFFCURVE",
"505 304 OFFCURVE",
"505 212 CURVE SMOOTH",
"505 100 OFFCURVE",
"440 2 OFFCURVE",
"252 2 CURVE SMOOTH",
"96 2 LINE",
"191 678 LINE",
"324 678 LINE SMOOTH"
);
}
);
width = 581;
},
{
background = {
paths = (
{
closed = 1;
nodes = (
"535 631 OFFCURVE",
"467 685 OFFCURVE",
"312 685 CURVE SMOOTH",
"155 685 LINE",
"71 0 LINE",
"250 0 LINE SMOOTH",
"438 0 OFFCURVE",
"526 81 OFFCURVE",
"526 213 CURVE SMOOTH",
"526 291 OFFCURVE",
"478 345 OFFCURVE",
"394 362 CURVE",
"395 365 LINE",
"488 388 OFFCURVE",
"535 452 OFFCURVE",
"535 530 CURVE SMOOTH"
);
},
{
closed = 1;
nodes = (
"321 337 LINE SMOOTH",
"413 337 OFFCURVE",
"464 292 OFFCURVE",
"464 213 CURVE SMOOTH",
"464 110 OFFCURVE",
"398 50 OFFCURVE",
"270 50 CURVE SMOOTH",
"136 50 LINE",
"171 337 LINE"
);
},
{
closed = 1;
nodes = (
"207 635 LINE",
"312 635 LINE SMOOTH",
"426 635 OFFCURVE",
"474 600 OFFCURVE",
"474 530 CURVE SMOOTH",
"474 443 OFFCURVE",
"419 386 OFFCURVE",
"311 386 CURVE SMOOTH",
"177 386 LINE"
);
},
{
closed = 1;
nodes = (
"179 682 LINE",
"83 0 LINE",
"268 0 LINE SMOOTH",
"411 0 OFFCURVE",
"502 66 OFFCURVE",
"518 183 CURVE SMOOTH",
"535 303 OFFCURVE",
"470 357 OFFCURVE",
"386 362 CURVE",
"462 375 OFFCURVE",
"518 421 OFFCURVE",
"530 511 CURVE SMOOTH",
"546 625 OFFCURVE",
"468 682 OFFCURVE",
"322 682 CURVE SMOOTH"
);
},
{
closed = 1;
nodes = (
"449 653 OFFCURVE",
"512 610 OFFCURVE",
"499 514 CURVE SMOOTH",
"486 427 OFFCURVE",
"420 374 OFFCURVE",
"332 374 CURVE SMOOTH",
"160 374 LINE",
"156 346 LINE",
"335 346 LINE SMOOTH",
"437 346 OFFCURVE",
"502 296 OFFCURVE",
"487 187 CURVE SMOOTH",
"472 82 OFFCURVE",
"392 29 OFFCURVE",
"272 29 CURVE SMOOTH",
"119 29 LINE",
"206 653 LINE",
"324 653 LINE SMOOTH"
);
}
);
};
layerId = "BCC09A48-EAE1-493E-95CB-92D2C26BC05D";
leftMetricsKey = H;
name = "Regular Italic";
paths = (
{
closed = 1;
nodes = (
"179 682 LINE",
"83 0 LINE",
"268 0 LINE SMOOTH",
"467 0 OFFCURVE",
"521 121 OFFCURVE",
"521 216 CURVE SMOOTH",
"521 311 OFFCURVE",
"460 353 OFFCURVE",
"379 361 CURVE",
"498 382 OFFCURVE",
"532 460 OFFCURVE",
"532 534 CURVE SMOOTH",
"532 634 OFFCURVE",
"455 682 OFFCURVE",
"332 682 CURVE SMOOTH"
);
},
{
closed = 1;
nodes = (
"438 653 OFFCURVE",
"501 617 OFFCURVE",
"501 533 CURVE SMOOTH",
"501 463 OFFCURVE",
"459 374 OFFCURVE",
"324 374 CURVE SMOOTH",
"160 374 LINE",
"156 346 LINE",
"331 346 LINE SMOOTH",
"427 346 OFFCURVE",
"489 305 OFFCURVE",
"489 217 CURVE SMOOTH",
"489 132 OFFCURVE",
"444 29 OFFCURVE",
"272 29 CURVE SMOOTH",
"119 29 LINE",
"206 653 LINE",
"334 653 LINE SMOOTH"
);
}
);
width = 589;
},
{
background = {
paths = (
{
closed = 1;
nodes = (
"169 77 LINE",
"200 325 LINE",
"324 325 LINE SMOOTH",
"411 325 OFFCURVE",
"453 287 OFFCURVE",
"453 215 CURVE SMOOTH",
"453 128 OFFCURVE",
"401 77 OFFCURVE",
"291 77 CURVE"
);
},
{
closed = 1;
nodes = (
"208 398 LINE",
"235 614 LINE",
"337 614 LINE SMOOTH",
"426 614 OFFCURVE",
"464 585 OFFCURVE",
"464 530 CURVE SMOOTH",
"464 448 OFFCURVE",
"413 398 OFFCURVE",
"325 398 CURVE"
);
},
{
closed = 1;
nodes = (
"554 291 OFFCURVE",
"504 349 OFFCURVE",
"422 364 CURVE",
"423 368 LINE",
"510 387 OFFCURVE",
"562 461 OFFCURVE",
"562 530 CURVE SMOOTH",
"562 627 OFFCURVE",
"487 689 OFFCURVE",
"336 689 CURVE SMOOTH",
"149 689 LINE",
"65 0 LINE",
"275 0 LINE SMOOTH",
"456 0 OFFCURVE",
"554 83 OFFCURVE",
"554 215 CURVE SMOOTH"
);
},
{
closed = 1;
nodes = (
"159 689 LINE",
"62 0 LINE",
"252 0 LINE SMOOTH",
"411 0 OFFCURVE",
"528 47 OFFCURVE",
"548 191 CURVE SMOOTH",
"565 310 OFFCURVE",
"489 350 OFFCURVE",
"414 363 CURVE",
"485 377 OFFCURVE",
"551 427 OFFCURVE",
"563 510 CURVE SMOOTH",
"580 632 OFFCURVE",
"487 689 OFFCURVE",
"319 689 CURVE SMOOTH"
);
},
{
closed = 1;
nodes = (
"423 614 OFFCURVE",
"479 596 OFFCURVE",
"467 513 CURVE SMOOTH",
"457 438 OFFCURVE",
"389 397 OFFCURVE",
"313 397 CURVE SMOOTH",
"197 397 LINE",
"187 324 LINE",
"316 324 LINE SMOOTH",
"398 324 OFFCURVE",
"464 296 OFFCURVE",
"450 201 CURVE SMOOTH",
"436 99 OFFCURVE",
"358 76 OFFCURVE",
"259 76 CURVE SMOOTH",
"167 76 LINE",
"242 614 LINE",
"322 614 LINE SMOOTH"
);
}
);
};
layerId = "A11F629A-ECF3-413E-B2EC-6C6F8C33A243";
name = "Regular Italic";
paths = (
{
closed = 1;
nodes = (
"159 689 LINE",
"62 0 LINE",
"252 0 LINE SMOOTH",
"478 0 OFFCURVE",
"550 99 OFFCURVE",
"550 220 CURVE SMOOTH",
"550 317 OFFCURVE",
"482 351 OFFCURVE",
"411 364 CURVE",
"493 379 OFFCURVE",
"565 438 OFFCURVE",
"565 537 CURVE SMOOTH",
"565 641 OFFCURVE",
"474 689 OFFCURVE",
"349 689 CURVE SMOOTH"
);
},
{
closed = 1;
nodes = (
"414 614 OFFCURVE",
"469 599 OFFCURVE",
"469 534 CURVE SMOOTH",
"469 445 OFFCURVE",
"396 397 OFFCURVE",
"313 397 CURVE SMOOTH",
"197 397 LINE",
"187 324 LINE",
"316 324 LINE SMOOTH",
"391 324 OFFCURVE",
"452 301 OFFCURVE",
"452 222 CURVE SMOOTH",
"452 139 OFFCURVE",
"411 76 OFFCURVE",
"256 76 CURVE SMOOTH",
"167 76 LINE",
"242 614 LINE",
"352 614 LINE SMOOTH"
);
}
);
width = 602;
}
);
leftKerningGroup = H;
leftMetricsKey = H;
rightKerningGroup = B;
unicode = 0042;
},
{
color = 4;
glyphname = C;
lastChange = "2014-04-26 15:52:18 +0100";
layers = (
{
anchors = (
{
name = bottom;
position = "{294, 0}";
},
{
name = top;
position = "{410, 696}";
}
);
background = {
paths = (
{
closed = 1;
nodes = (
"615 627 LINE",
"554 691 OFFCURVE",
"481 716 OFFCURVE",
"387 716 CURVE SMOOTH",
"146 716 OFFCURVE",
"22 498 OFFCURVE",
"22 281 CURVE SMOOTH",
"22 84 OFFCURVE",
"139 -20 OFFCURVE",
"314 -20 CURVE SMOOTH",
"417 -20 OFFCURVE",
"497 18 OFFCURVE",
"558 68 CURVE",
"480 193 LINE",
"436 161 OFFCURVE",
"389 135 OFFCURVE",
"331 135 CURVE SMOOTH",
"269 135 OFFCURVE",
"235 182 OFFCURVE",
"235 282 CURVE SMOOTH",
"235 385 OFFCURVE",
"271 568 OFFCURVE",
"399 568 CURVE SMOOTH",
"447 568 OFFCURVE",
"476 550 OFFCURVE",
"505 520 CURVE"
);
},
{
closed = 1;
nodes = (
"214 716 OFFCURVE",
"63 583 OFFCURVE",
"31 353 CURVE SMOOTH",
"-3 110 OFFCURVE",
"108 -20 OFFCURVE",
"308 -20 CURVE SMOOTH",
"403 -20 OFFCURVE",
"488 25 OFFCURVE",
"545 76 CURVE",
"471 194 LINE",
"427 162 OFFCURVE",
"386 135 OFFCURVE",
"337 135 CURVE SMOOTH",
"256 135 OFFCURVE",
"219 202 OFFCURVE",
"240 347 CURVE SMOOTH",
"260 496 OFFCURVE",
"319 568 OFFCURVE",
"397 568 CURVE SMOOTH",
"443 568 OFFCURVE",
"475 550 OFFCURVE",
"504 520 CURVE",
"615 633 LINE",
"564 684 OFFCURVE",
"497 716 OFFCURVE",
"401 716 CURVE SMOOTH"
);
}
);
};
layerId = UUID0;
name = "Bold Italic";
paths = (
{
closed = 1;
nodes = (
"122 716 OFFCURVE",
"25 464 OFFCURVE",
"25 270 CURVE SMOOTH",
"25 81 OFFCURVE",
"132 -20 OFFCURVE",
"308 -20 CURVE SMOOTH",
"403 -20 OFFCURVE",
"488 25 OFFCURVE",
"545 76 CURVE",
"471 194 LINE",
"427 162 OFFCURVE",
"386 135 OFFCURVE",
"337 135 CURVE SMOOTH",
"271 135 OFFCURVE",
"234 179 OFFCURVE",
"234 274 CURVE SMOOTH",
"234 377 OFFCURVE",
"270 568 OFFCURVE",
"397 568 CURVE SMOOTH",
"443 568 OFFCURVE",
"475 550 OFFCURVE",
"504 520 CURVE",
"613 626 LINE",
"564 684 OFFCURVE",
"491 716 OFFCURVE",
"395 716 CURVE SMOOTH"
);
}
);
width = 570.844;
},
{
anchors = (
{
name = bottom;
position = "{306, 0}";
},
{
name = top;
position = "{403, 680}";
}
);
background = {
paths = (
{
closed = 1;
nodes = (
"252 690 OFFCURVE",
"130 577 OFFCURVE",
"97 339 CURVE SMOOTH",
"66 114 OFFCURVE",
"152 -9 OFFCURVE",
"305 -9 CURVE SMOOTH",
"387 -9 OFFCURVE",
"439 23 OFFCURVE",
"475 50 CURVE",
"474 52 LINE",
"438 25 OFFCURVE",
"386 -7 OFFCURVE",
"305 -7 CURVE SMOOTH",
"154 -7 OFFCURVE",
"68 115 OFFCURVE",
"99 339 CURVE SMOOTH",
"132 575 OFFCURVE",
"254 688 OFFCURVE",
"403 688 CURVE SMOOTH",
"476 688 OFFCURVE",
"515 662 OFFCURVE",
"546 631 CURVE",
"547 633 LINE",
"517 664 OFFCURVE",
"477 690 OFFCURVE",
"403 690 CURVE SMOOTH"
);
}
);
};
layerId = "F257A41E-77B2-4FB8-8247-C188CBBE1401";
leftMetricsKey = O;
name = "Light Italic";
paths = (
{
closed = 1;
nodes = (
"166 690 OFFCURVE",
"91 429 OFFCURVE",
"91 253 CURVE SMOOTH",
"91 83 OFFCURVE",
"173 -9 OFFCURVE",
"305 -9 CURVE SMOOTH",
"387 -9 OFFCURVE",
"439 23 OFFCURVE",
"475 50 CURVE",
"474 52 LINE",
"438 25 OFFCURVE",
"386 -7 OFFCURVE",
"305 -7 CURVE SMOOTH",
"175 -7 OFFCURVE",
"93 84 OFFCURVE",
"93 253 CURVE SMOOTH",
"93 424 OFFCURVE",
"166 688 OFFCURVE",
"403 688 CURVE SMOOTH",
"478 688 OFFCURVE",
"514 663 OFFCURVE",
"546 631 CURVE",
"547 633 LINE",
"517 664 OFFCURVE",
"477 690 OFFCURVE",
"403 690 CURVE SMOOTH"
);
}
);
width = 529.961;
},
{
anchors = (
{
name = bottom;
position = "{303, 0}";
},
{
name = top;
position = "{400, 682}";
}
);
background = {
paths = (
{
closed = 1;
nodes = (
"552 632 LINE",
"509 672 OFFCURVE",
"449 696 OFFCURVE",
"378 696 CURVE SMOOTH",
"218 696 OFFCURVE",
"68 554 OFFCURVE",
"68 281 CURVE SMOOTH",
"68 80 OFFCURVE",
"171 -11 OFFCURVE",
"307 -11 CURVE SMOOTH",
"385 -11 OFFCURVE",
"451 19 OFFCURVE",
"497 57 CURVE",
"469 98 LINE",
"424 62 OFFCURVE",
"372 41 OFFCURVE",
"310 41 CURVE SMOOTH",
"212 41 OFFCURVE",
"130 110 OFFCURVE",
"130 279 CURVE SMOOTH",
"130 523 OFFCURVE",
"252 645 OFFCURVE",
"380 645 CURVE SMOOTH",
"427 645 OFFCURVE",
"468 631 OFFCURVE",
"513 594 CURVE"
);
},
{
closed = 1;
nodes = (
"255 692 OFFCURVE",
"119 578 OFFCURVE",
"86 343 CURVE SMOOTH",
"53 113 OFFCURVE",
"152 -10 OFFCURVE",
"305 -10 CURVE SMOOTH",
"382 -10 OFFCURVE",
"439 16 OFFCURVE",
"488 54 CURVE",
"470 78 LINE",
"425 44 OFFCURVE",
"382 20 OFFCURVE",
"306 20 CURVE SMOOTH",
"176 20 OFFCURVE",
"87 125 OFFCURVE",
"117 339 CURVE SMOOTH",
"149 567 OFFCURVE",
"272 663 OFFCURVE",
"405 663 CURVE SMOOTH",
"466 663 OFFCURVE",
"499 647 OFFCURVE",
"541 611 CURVE",
"560 633 LINE",
"520 669 OFFCURVE",
"479 692 OFFCURVE",
"403 692 CURVE SMOOTH"
);
}
);
};
layerId = "BCC09A48-EAE1-493E-95CB-92D2C26BC05D";
leftMetricsKey = O;
name = "Regular Italic";
paths = (
{
closed = 1;
nodes = (
"166 692 OFFCURVE",
"80 440 OFFCURVE",
"80 259 CURVE SMOOTH",
"80 83 OFFCURVE",
"172 -10 OFFCURVE",
"305 -10 CURVE SMOOTH",
"382 -10 OFFCURVE",
"439 16 OFFCURVE",
"488 54 CURVE",
"470 78 LINE",
"425 44 OFFCURVE",
"382 20 OFFCURVE",
"306 20 CURVE SMOOTH",
"193 20 OFFCURVE",
"111 99 OFFCURVE",
"111 260 CURVE SMOOTH",
"111 425 OFFCURVE",
"187 663 OFFCURVE",
"405 663 CURVE SMOOTH",
"464 663 OFFCURVE",
"499 648 OFFCURVE",
"541 611 CURVE",
"560 633 LINE",
"520 669 OFFCURVE",
"477 692 OFFCURVE",
"403 692 CURVE SMOOTH"
);
}
);
width = 541.292;
},
{
anchors = (
{
name = bottom;
position = "{307, 0}";
},
{
name = top;
position = "{405, 689}";
}
);
background = {
paths = (
{
closed = 1;
nodes = (
"224 70 OFFCURVE",
"163 130 OFFCURVE",
"163 280 CURVE SMOOTH",
"163 514 OFFCURVE",
"273 622 OFFCURVE",
"385 622 CURVE SMOOTH",
"442 622 OFFCURVE",
"479 608 OFFCURVE",
"522 571 CURVE",
"579 627 LINE",
"528 677 OFFCURVE",
"470 701 OFFCURVE",
"387 701 CURVE SMOOTH",
"214 701 OFFCURVE",
"62 542 OFFCURVE",
"62 280 CURVE SMOOTH",
"62 84 OFFCURVE",
"165 -12 OFFCURVE",
"312 -12 CURVE SMOOTH",
"405 -12 OFFCURVE",
"472 20 OFFCURVE",
"523 65 CURVE",
"477 130 LINE",
"423 87 OFFCURVE",
"383 70 OFFCURVE",
"325 70 CURVE SMOOTH"
);
},
{
closed = 1;
nodes = (
"243 701 OFFCURVE",
"100 581 OFFCURVE",
"67 350 CURVE SMOOTH",
"34 116 OFFCURVE",
"138 -12 OFFCURVE",
"306 -12 CURVE SMOOTH",
"396 -12 OFFCURVE",
"466 24 OFFCURVE",
"509 63 CURVE",
"467 128 LINE",
"425 99 OFFCURVE",
"379 68 OFFCURVE",
"312 68 CURVE SMOOTH",
"209 68 OFFCURVE",
"138 143 OFFCURVE",
"166 340 CURVE SMOOTH",
"195 550 OFFCURVE",
"295 623 OFFCURVE",
"400 623 CURVE SMOOTH",
"445 623 OFFCURVE",
"484 609 OFFCURVE",
"522 574 CURVE",
"579 631 LINE",
"530 675 OFFCURVE",
"484 701 OFFCURVE",
"395 701 CURVE SMOOTH"
);
}
);
};
layerId = "A11F629A-ECF3-413E-B2EC-6C6F8C33A243";
name = "Regular Italic";
paths = (
{
closed = 1;
nodes = (
"155 701 OFFCURVE",
"61 452 OFFCURVE",
"61 268 CURVE SMOOTH",
"61 86 OFFCURVE",
"159 -12 OFFCURVE",
"306 -12 CURVE SMOOTH",
"396 -12 OFFCURVE",
"464 25 OFFCURVE",
"509 63 CURVE",
"467 128 LINE",
"425 99 OFFCURVE",
"379 68 OFFCURVE",
"312 68 CURVE SMOOTH",
"224 68 OFFCURVE",
"160 122 OFFCURVE",
"160 260 CURVE SMOOTH",
"160 415 OFFCURVE",
"219 623 OFFCURVE",
"400 623 CURVE SMOOTH",
"445 623 OFFCURVE",
"484 609 OFFCURVE",
"522 574 CURVE",
"579 630 LINE",
"531 675 OFFCURVE",
"474 701 OFFCURVE",
"394 701 CURVE SMOOTH"
);
}
);
width = 555.351;
}
);
leftKerningGroup = O;
leftMetricsKey = O;
rightKerningGroup = C;
unicode = 0043;
},
{
color = 7;
glyphname = Ccedilla;
lastChange = "2014-04-26 15:52:18 +0100";
layers = (
{
background = {
paths = (
{
closed = 1;
nodes = (
"233 -173 OFFCURVE",
"206 -164 OFFCURVE",
"184 -152 CURVE",
"131 -237 LINE",
"162 -256 OFFCURVE",
"215 -275 OFFCURVE",
"266 -275 CURVE SMOOTH",
"371 -275 OFFCURVE",
"432 -222 OFFCURVE",
"432 -147 CURVE SMOOTH",
"432 -96 OFFCURVE",
"397 -55 OFFCURVE",
"334 -43 CURVE",
"337 -19 LINE",
"429 -14 OFFCURVE",
"502 21 OFFCURVE",
"559 68 CURVE",
"481 193 LINE",
"437 161 OFFCURVE",
"390 135 OFFCURVE",
"332 135 CURVE SMOOTH",
"270 135 OFFCURVE",
"236 182 OFFCURVE",
"236 282 CURVE SMOOTH",
"236 385 OFFCURVE",
"272 568 OFFCURVE",
"400 568 CURVE SMOOTH",
"448 568 OFFCURVE",
"477 550 OFFCURVE",
"506 520 CURVE",
"616 627 LINE",
"555 691 OFFCURVE",
"482 716 OFFCURVE",
"388 716 CURVE SMOOTH",
"147 716 OFFCURVE",
"23 498 OFFCURVE",
"23 281 CURVE SMOOTH",
"23 116 OFFCURVE",
"106 17 OFFCURVE",
"235 -11 CURVE",
"204 -118 LINE",
"280 -118 OFFCURVE",
"294 -126 OFFCURVE",
"294 -146 CURVE SMOOTH",
"294 -162 OFFCURVE",
"284 -173 OFFCURVE",
"255 -173 CURVE SMOOTH"
);
}
);
};
components = (
{
name = C;
transform = "{1, 0, 0, 1, 0, 0}";
},
{
name = cedilla.case;
transform = "{1, 0, 0, 1, 184, 0}";
}
);
layerId = UUID0;
name = "Bold Italic";
width = 571;
},
{
background = {
paths = (
{
closed = 1;
nodes = (
"327 -8 LINE",
"322 -74 LINE",
"373 -76 OFFCURVE",
"403 -95 OFFCURVE",
"402 -136 CURVE SMOOTH",
"401 -176 OFFCURVE",
"368 -190 OFFCURVE",
"335 -190 CURVE SMOOTH",
"311 -190 OFFCURVE",
"293 -185 OFFCURVE",
"282 -179 CURVE",
"281 -181 LINE",
"295 -187 OFFCURVE",
"309 -192 OFFCURVE",
"335 -192 CURVE SMOOTH",
"369 -192 OFFCURVE",
"403 -178 OFFCURVE",
"404 -136 CURVE SMOOTH",
"405 -88 OFFCURVE",
"365 -74 OFFCURVE",
"324 -72 CURVE",
"329 -8 LINE"
);
}
);
};
components = (
{
name = C;
transform = "{1, 0, 0, 1, 0, 0}";
},
{
name = cedilla.case;
transform = "{1, 0, 0, 1, 267, 0}";
}
);
layerId = "F257A41E-77B2-4FB8-8247-C188CBBE1401";
name = "Light Italic";
width = 530;
},
{
background = {
paths = (
{
closed = 1;
nodes = (
"248 -182 OFFCURVE",
"229 -175 OFFCURVE",
"212 -165 CURVE",
"186 -203 LINE",
"209 -217 OFFCURVE",
"238 -226 OFFCURVE",
"275 -226 CURVE SMOOTH",
"341 -226 OFFCURVE",
"384 -188 OFFCURVE",
"384 -135 CURVE SMOOTH",
"384 -97 OFFCURVE",
"360 -73 OFFCURVE",
"308 -67 CURVE",
"317 -11 LINE",
"391 -8 OFFCURVE",
"454 20 OFFCURVE",
"498 57 CURVE",
"470 98 LINE",
"425 62 OFFCURVE",
"373 41 OFFCURVE",
"311 41 CURVE SMOOTH",
"213 41 OFFCURVE",
"131 110 OFFCURVE",
"131 279 CURVE SMOOTH",
"131 523 OFFCURVE",
"253 645 OFFCURVE",
"381 645 CURVE SMOOTH",
"428 645 OFFCURVE",
"469 631 OFFCURVE",
"514 594 CURVE",
"553 632 LINE",
"510 672 OFFCURVE",
"450 696 OFFCURVE",
"379 696 CURVE SMOOTH",
"219 696 OFFCURVE",
"69 554 OFFCURVE",
"69 281 CURVE SMOOTH",
"69 97 OFFCURVE",
"155 5 OFFCURVE",
"274 -9 CURVE",
"252 -98 LINE",
"305 -99 OFFCURVE",
"326 -111 OFFCURVE",
"326 -136 CURVE SMOOTH",
"326 -165 OFFCURVE",
"307 -182 OFFCURVE",
"275 -182 CURVE SMOOTH"
);
}
);
};
components = (
{
name = C;
transform = "{1, 0, 0, 1, 0, 0}";
},
{
name = cedilla.case;
transform = "{1, 0, 0, 1, 244, 0}";
}
);
layerId = "BCC09A48-EAE1-493E-95CB-92D2C26BC05D";
name = "Regular Italic";
width = 541;
},
{
background = {
paths = (
{
closed = 1;
nodes = (
"247 -181 OFFCURVE",
"218 -173 OFFCURVE",
"200 -163 CURVE",
"166 -214 LINE",
"190 -229 OFFCURVE",
"230 -241 OFFCURVE",
"271 -241 CURVE SMOOTH",
"348 -241 OFFCURVE",
"399 -194 OFFCURVE",
"399 -136 CURVE SMOOTH",
"399 -93 OFFCURVE",
"368 -61 OFFCURVE",
"314 -56 CURVE",
"321 -12 LINE",
"409 -9 OFFCURVE",
"473 21 OFFCURVE",
"522 65 CURVE",
"476 130 LINE",
"422 87 OFFCURVE",
"382 70 OFFCURVE",
"324 70 CURVE SMOOTH",
"223 70 OFFCURVE",
"162 130 OFFCURVE",
"162 280 CURVE SMOOTH",
"162 514 OFFCURVE",
"272 622 OFFCURVE",
"384 622 CURVE SMOOTH",
"441 622 OFFCURVE",
"478 608 OFFCURVE",
"521 571 CURVE",
"578 627 LINE",
"527 677 OFFCURVE",
"469 701 OFFCURVE",
"386 701 CURVE SMOOTH",
"213 701 OFFCURVE",
"61 542 OFFCURVE",
"61 280 CURVE SMOOTH",
"61 106 OFFCURVE",
"143 11 OFFCURVE",
"263 -8 CURVE",
"239 -99 LINE",
"301 -99 OFFCURVE",
"321 -112 OFFCURVE",
"321 -136 CURVE SMOOTH",
"321 -165 OFFCURVE",
"304 -181 OFFCURVE",
"269 -181 CURVE SMOOTH"
);
}
);
};
components = (
{
name = C;
transform = "{1, 0, 0, 1, 0, 0}";
},
{
name = cedilla.case;
transform = "{1, 0, 0, 1, 225, 0}";
}
);
layerId = "A11F629A-ECF3-413E-B2EC-6C6F8C33A243";
name = "Regular Italic";
width = 555;
}
);
leftKerningGroup = O;
rightKerningGroup = C;
unicode = 00C7;
},
{
color = 4;
glyphname = D;
lastChange = "2014-04-26 15:52:18 +0100";
layers = (
{
anchors = (
{
name = center;
position = "{334, 348}";
},
{
name = top;
position = "{346, 696}";
}
);
background = {
paths = (
{
closed = 1;
nodes = (
"231 145 LINE",
"281 551 LINE",
"314 551 LINE SMOOTH",
"394 551 OFFCURVE",
"437 511 OFFCURVE",
"437 419 CURVE SMOOTH",
"437 228 OFFCURVE",
"360 145 OFFCURVE",
"267 145 CURVE"
);
},
{
closed = 1;
nodes = (
"648 603 OFFCURVE",
"522 696 OFFCURVE",
"307 696 CURVE SMOOTH",
"93 696 LINE",
"8 0 LINE",
"244 0 LINE SMOOTH",
"512 0 OFFCURVE",
"648 160 OFFCURVE",
"648 417 CURVE SMOOTH"
);
}
);
};
layerId = UUID0;
leftMetricsKey = H;
rightMetricsKey = O;
name = "Bold Italic";
paths = (
{
closed = 1;
nodes = (
"103 696 LINE",
"6 0 LINE",
"237 0 LINE SMOOTH",
"548 0 OFFCURVE",
"642 203 OFFCURVE",
"642 432 CURVE SMOOTH",
"642 645 OFFCURVE",
"489 696 OFFCURVE",
"320 696 CURVE SMOOTH"
);
},
{
closed = 1;
nodes = (
"397 551 OFFCURVE",
"434 524 OFFCURVE",
"434 430 CURVE SMOOTH",
"434 314 OFFCURVE",
"408 145 OFFCURVE",
"267 145 CURVE SMOOTH",
"228 145 LINE",
"285 551 LINE",
"327 551 LINE SMOOTH"
);
}
);
width = 644.69;
},
{
anchors = (
{
name = center;
position = "{321, 340}";
},
{
name = top;
position = "{348, 680}";
}
);
background = {
paths = (
{
closed = 1;
nodes = (
"189 680 LINE",
"94 0 LINE",
"205 0 LINE SMOOTH",
"344 0 OFFCURVE",
"501 69 OFFCURVE",
"540 348 CURVE SMOOTH",
"580 626 OFFCURVE",
"437 680 OFFCURVE",
"293 680 CURVE SMOOTH"
);
},
{
closed = 1;
nodes = (
"436 678 OFFCURVE",
"577 624 OFFCURVE",
"538 348 CURVE SMOOTH",
"499 71 OFFCURVE",
"344 2 OFFCURVE",
"205 2 CURVE SMOOTH",
"96 2 LINE",
"191 678 LINE",
"293 678 LINE SMOOTH"
);
}
);
};
layerId = "F257A41E-77B2-4FB8-8247-C188CBBE1401";
leftMetricsKey = H;
rightMetricsKey = O;
name = "Light Italic";
paths = (
{
closed = 1;
nodes = (
"189 680 LINE",
"94 0 LINE",
"205 0 LINE SMOOTH",
"461 0 OFFCURVE",
"547 233 OFFCURVE",
"547 436 CURVE SMOOTH",
"547 638 OFFCURVE",
"421 680 OFFCURVE",
"293 680 CURVE SMOOTH"
);
},
{
closed = 1;
nodes = (
"420 678 OFFCURVE",
"545 636 OFFCURVE",
"545 436 CURVE SMOOTH",
"545 234 OFFCURVE",
"459 2 OFFCURVE",
"205 2 CURVE SMOOTH",
"96 2 LINE",
"191 678 LINE",
"293 678 LINE SMOOTH"
);
}
);
width = 612.495;
},
{
anchors = (
{
name = center;
position = "{328, 341}";
},
{
name = top;
position = "{356, 682}";
}
);
background = {
paths = (
{
closed = 1;
nodes = (
"71 0 LINE",
"211 0 LINE SMOOTH",
"447 0 OFFCURVE",
"575 154 OFFCURVE",
"575 415 CURVE SMOOTH",
"575 598 OFFCURVE",
"470 685 OFFCURVE",
"284 685 CURVE SMOOTH",
"155 685 LINE"
);
},
{
closed = 1;
nodes = (
"207 635 LINE",
"275 635 LINE SMOOTH",
"432 635 OFFCURVE",
"513 568 OFFCURVE",
"513 414 CURVE SMOOTH",
"513 179 OFFCURVE",
"404 50 OFFCURVE",
"216 50 CURVE SMOOTH",
"136 50 LINE"
);
},
{
closed = 1;
nodes = (
"179 682 LINE",
"83 0 LINE",
"216 0 LINE SMOOTH",
"350 0 OFFCURVE",
"519 60 OFFCURVE",
"559 346 CURVE SMOOTH",
"598 626 OFFCURVE",
"453 682 OFFCURVE",
"307 682 CURVE SMOOTH"
);
},
{
closed = 1;
nodes = (
"431 653 OFFCURVE",
"565 615 OFFCURVE",
"528 350 CURVE SMOOTH",
"491 88 OFFCURVE",
"347 29 OFFCURVE",
"220 29 CURVE SMOOTH",
"119 29 LINE",
"206 653 LINE",
"302 653 LINE SMOOTH"
);
}
);
};
layerId = "BCC09A48-EAE1-493E-95CB-92D2C26BC05D";
leftMetricsKey = H;
rightMetricsKey = O;
name = "Regular Italic";
paths = (
{
closed = 1;
nodes = (
"179 682 LINE",
"83 0 LINE",
"216 0 LINE SMOOTH",
"476 0 OFFCURVE",
"565 222 OFFCURVE",
"565 429 CURVE SMOOTH",
"565 638 OFFCURVE",
"437 682 OFFCURVE",
"307 682 CURVE SMOOTH"
);
},
{
closed = 1;
nodes = (
"416 653 OFFCURVE",
"534 623 OFFCURVE",
"534 430 CURVE SMOOTH",
"534 240 OFFCURVE",
"457 29 OFFCURVE",
"220 29 CURVE SMOOTH",
"119 29 LINE",
"206 653 LINE",
"302 653 LINE SMOOTH"
);
}
);
width = 622.258;
},
{
anchors = (
{
name = center;
position = "{331, 345}";
},
{
name = top;
position = "{360, 689}";
}
);
background = {
paths = (
{
closed = 1;
nodes = (
"169 75 LINE",
"235 613 LINE",
"305 613 LINE SMOOTH",
"432 613 OFFCURVE",
"507 555 OFFCURVE",
"507 411 CURVE SMOOTH",
"507 184 OFFCURVE",
"399 75 OFFCURVE",
"255 75 CURVE"
);
},
{
closed = 1;
nodes = (
"607 594 OFFCURVE",
"491 689 OFFCURVE",
"312 689 CURVE SMOOTH",
"149 689 LINE",
"65 0 LINE",
"250 0 LINE SMOOTH",
"469 0 OFFCURVE",
"607 152 OFFCURVE",
"607 415 CURVE SMOOTH"
);
},
{
closed = 1;
nodes = (
"159 689 LINE",
"62 0 LINE",
"228 0 LINE SMOOTH",
"375 0 OFFCURVE",
"556 64 OFFCURVE",
"595 343 CURVE SMOOTH",
"636 631 OFFCURVE",
"474 689 OFFCURVE",
"300 689 CURVE SMOOTH"
);
},
{
closed = 1;
nodes = (
"423 613 OFFCURVE",
"529 584 OFFCURVE",
"497 353 CURVE SMOOTH",
"464 124 OFFCURVE",
"349 75 OFFCURVE",
"242 75 CURVE SMOOTH",
"167 75 LINE",
"242 613 LINE",
"314 613 LINE SMOOTH"
);
}
);
};
layerId = "A11F629A-ECF3-413E-B2EC-6C6F8C33A243";
name = "Regular Italic";
paths = (
{
closed = 1;
nodes = (
"159 689 LINE",
"62 0 LINE",
"228 0 LINE SMOOTH",
"500 0 OFFCURVE",
"601 207 OFFCURVE",
"601 428 CURVE SMOOTH",
"601 643 OFFCURVE",
"456 689 OFFCURVE",
"300 689 CURVE SMOOTH"
);
},
{
closed = 1;
nodes = (
"410 613 OFFCURVE",
"505 591 OFFCURVE",
"505 430 CURVE SMOOTH",
"505 265 OFFCURVE",
"442 75 OFFCURVE",
"242 75 CURVE SMOOTH",
"167 75 LINE",
"242 613 LINE",
"314 613 LINE SMOOTH"
);
}
);
width = 638.809;
}
);
leftKerningGroup = H;
leftMetricsKey = H;
rightKerningGroup = O;
rightMetricsKey = O;
unicode = 0044;
},
{
color = 7;
glyphname = Eth;
lastChange = "2014-04-26 15:52:19 +0100";
layers = (
{
background = {
components = (
{
name = Dcroat;
transform = "{1, 0, 0, 1, 0, 0}";
}
);
};
components = (
{
disableAlignment = 1;
name = D;
transform = "{1, 0, 0, 1, -36, 0}";
}
);
layerId = UUID0;
name = "Bold Italic";
paths = (
{
closed = 1;
nodes = (
"68 411 LINE",
"20 411 LINE",
"4 295 LINE",
"372 295 LINE",
"388 411 LINE"
);
}
);
width = 608.69;
},
{
components = (
{
name = D;
transform = "{1, 0, 0, 1, -36, 0}";
}
);
layerId = "F257A41E-77B2-4FB8-8247-C188CBBE1401";
rightMetricsKey = D;
name = "Light Italic";
paths = (
{
closed = 1;
nodes = (
"143 354 LINE",
"49 354 LINE",
"49 352 LINE",
"341 352 LINE",
"341 354 LINE"
);
}
);
width = 576.495;
},
{
background = {
components = (
{
name = Dcroat;
transform = "{1, 0, 0, 1, 0, 0}";
}
);
};
components = (
{
name = D;
transform = "{1, 0, 0, 1, -37, 0}";
}
);
layerId = "BCC09A48-EAE1-493E-95CB-92D2C26BC05D";
name = "Regular Italic";
paths = (
{
closed = 1;
nodes = (
"135 367 LINE",
"44 367 LINE",
"40 339 LINE",
"352 339 LINE",
"356 367 LINE"
);
}
);
width = 585.258;
},
{
background = {
components = (
{
name = Dcroat;
transform = "{1, 0, 0, 1, 0, 0}";
}
);
};
components = (
{
disableAlignment = 1;
name = D;
transform = "{1, 0, 0, 1, -33, 0}";
}
);
layerId = "A11F629A-ECF3-413E-B2EC-6C6F8C33A243";
rightMetricsKey = D;
name = "Regular Italic";
paths = (
{
closed = 1;
nodes = (
"123 388 LINE",
"32 388 LINE",
"23 318 LINE",
"363 318 LINE",
"372 388 LINE"
);
}
);
width = 605.809;
}
);
leftKerningGroup = H;
rightKerningGroup = O;
rightMetricsKey = D;
unicode = 00D0;
},
{
color = 7;
glyphname = Dcroat;
lastChange = "2014-04-26 15:52:18 +0100";
layers = (
{
background = {
paths = (
{
closed = 1;
nodes = (
"655 603 OFFCURVE",
"529 696 OFFCURVE",
"314 696 CURVE SMOOTH",
"100 696 LINE",
"65 411 LINE",
"15 411 LINE",
"1 295 LINE",
"51 295 LINE",
"15 0 LINE",
"251 0 LINE SMOOTH",
"519 0 OFFCURVE",
"655 160 OFFCURVE",
"655 417 CURVE SMOOTH"
);
},
{
closed = 1;
nodes = (
"238 145 LINE",
"256 295 LINE",
"375 295 LINE",
"390 411 LINE",
"271 411 LINE",
"288 551 LINE",
"321 551 LINE SMOOTH",
"401 551 OFFCURVE",
"444 511 OFFCURVE",
"444 419 CURVE SMOOTH",
"444 228 OFFCURVE",
"367 145 OFFCURVE",
"274 145 CURVE"
);
}
);
};
components = (
{
name = Eth;
transform = "{1, 0, 0, 1, 0, 0}";
}
);
layerId = UUID0;
leftMetricsKey = Eth;
rightMetricsKey = Eth;
name = "Bold Italic";
width = 609;
},
{
background = {
paths = (
{
closed = 1;
nodes = (
"23 369 LINE",
"23 337 LINE",
"145 337 LINE",
"335 337 LINE",
"335 369 LINE",
"114 369 LINE"
);
}
);
};
components = (
{
name = Eth;
transform = "{1, 0, 0, 1, 0, 0}";
}
);
layerId = "F257A41E-77B2-4FB8-8247-C188CBBE1401";
name = "Light Italic";
width = 576;
},
{
background = {
paths = (
{
closed = 1;
nodes = (
"73 0 LINE",
"213 0 LINE SMOOTH",
"449 0 OFFCURVE",
"577 154 OFFCURVE",
"577 415 CURVE SMOOTH",
"577 598 OFFCURVE",
"472 685 OFFCURVE",
"286 685 CURVE SMOOTH",
"157 685 LINE",
"119 377 LINE",
"32 377 LINE",
"26 329 LINE",
"113 329 LINE"
);
},
{
closed = 1;
nodes = (
"209 635 LINE",
"277 635 LINE SMOOTH",
"434 635 OFFCURVE",
"515 568 OFFCURVE",
"515 414 CURVE SMOOTH",
"515 179 OFFCURVE",
"406 50 OFFCURVE",
"218 50 CURVE SMOOTH",
"138 50 LINE",
"172 329 LINE",
"354 329 LINE",
"360 377 LINE",
"178 377 LINE"
);
}
);
};
components = (
{
name = Eth;
transform = "{1, 0, 0, 1, 0, 0}";
}
);
layerId = "BCC09A48-EAE1-493E-95CB-92D2C26BC05D";
name = "Regular Italic";
width = 585;
},
{
background = {
paths = (
{
closed = 1;
nodes = (
"607 594 OFFCURVE",
"491 689 OFFCURVE",
"312 689 CURVE SMOOTH",
"149 689 LINE",
"112 388 LINE",
"30 388 LINE",
"22 318 LINE",
"104 318 LINE",
"65 0 LINE",
"250 0 LINE SMOOTH",
"469 0 OFFCURVE",
"607 152 OFFCURVE",
"607 415 CURVE SMOOTH"
);
},
{
closed = 1;
nodes = (
"169 75 LINE",
"199 318 LINE",
"371 318 LINE",
"379 388 LINE",
"207 388 LINE",
"235 613 LINE",
"305 613 LINE SMOOTH",
"432 613 OFFCURVE",
"507 555 OFFCURVE",
"507 411 CURVE SMOOTH",
"507 184 OFFCURVE",
"399 75 OFFCURVE",
"255 75 CURVE"
);
}
);
};
components = (
{
name = Eth;
transform = "{1, 0, 0, 1, 0, 0}";
}
);
layerId = "A11F629A-ECF3-413E-B2EC-6C6F8C33A243";
name = "Regular Italic";
width = 606;
}
);
leftKerningGroup = H;
leftMetricsKey = Eth;
rightKerningGroup = O;
rightMetricsKey = Eth;
unicode = 0110;
},
{
color = 4;
glyphname = E;
lastChange = "2014-04-26 15:52:18 +0100";
layers = (
{
anchors = (
{
name = bottom;
position = "{228, 0}";
},
{
name = ogonek;
position = "{420, 0}";
},
{
name = top;
position = "{328, 696}";
},
{
name = topleft;
position = "{-48, 534}";
}
);
background = {
paths = (
{
closed = 1;
nodes = (
"513 553 LINE",
"552 696 LINE",
"95 696 LINE",
"10 0 LINE",
"462 0 LINE",
"479 144 LINE",
"233 144 LINE",
"250 284 LINE",
"452 284 LINE",
"469 423 LINE",
"267 423 LINE",
"283 553 LINE"
);
}
);
};
layerId = UUID0;
name = "Bold Italic";
paths = (
{
closed = 1;
nodes = (
"103 696 LINE",
"6 0 LINE",
"450 0 LINE",
"470 144 LINE",
"228 144 LINE",
"248 284 LINE",
"446 284 LINE",
"464 423 LINE",
"267 423 LINE",
"285 553 LINE",
"511 553 LINE",
"552 696 LINE"
);
}
);
width = 510;
},
{
anchors = (
{
name = bottom;
position = "{248, 0}";
},
{
name = ogonek;
position = "{389, 0}";
},
{
name = top;
position = "{343, 680}";
},
{
name = topleft;
position = "{88, 517}";
}
);
layerId = "F257A41E-77B2-4FB8-8247-C188CBBE1401";
leftMetricsKey = H;
name = "Light Italic";
paths = (
{
closed = 1;
nodes = (
"189 680 LINE",
"94 0 LINE",
"409 0 LINE",
"409 2 LINE",
"96 2 LINE",
"147 360 LINE",
"407 360 LINE",
"407 362 LINE",
"147 362 LINE",
"191 678 LINE",
"494 678 LINE",
"494 680 LINE"
);
}
);
width = 495;
},
{
anchors = (
{
name = bottom;
position = "{246, 0}";
},
{
name = ogonek;
position = "{401, 0}";
},
{
name = top;
position = "{347, 682}";
},
{
name = topleft;
position = "{88, 520}";
}
);
background = {
paths = (
{
closed = 1;
nodes = (
"425 0 LINE",
"431 50 LINE",
"136 50 LINE",
"170 330 LINE",
"413 330 LINE",
"419 380 LINE",
"176 380 LINE",
"207 635 LINE",
"487 635 LINE",
"501 685 LINE",
"155 685 LINE",
"71 0 LINE"
);
}
);
};
layerId = "BCC09A48-EAE1-493E-95CB-92D2C26BC05D";
leftMetricsKey = H;
name = "Regular Italic";
paths = (
{
closed = 1;
nodes = (
"179 682 LINE",
"83 0 LINE",
"416 0 LINE",
"421 29 LINE",
"119 29 LINE",
"163 345 LINE",
"415 345 LINE",
"419 373 LINE",
"167 373 LINE",
"206 653 LINE",
"498 653 LINE",
"506 682 LINE"
);
}
);
width = 493;
},
{
anchors = (
{
name = bottom;
position = "{251, 0}";
},
{
name = ogonek;
position = "{409, 0}";
},
{
name = top;
position = "{347, 689}";
},
{
name = topleft;
position = "{48, 534}";
}
);
background = {
paths = (
{
closed = 1;
nodes = (
"502 613 LINE",
"522 689 LINE",
"149 689 LINE",
"65 0 LINE",
"446 0 LINE",
"455 76 LINE",
"169 76 LINE",
"198 312 LINE",
"430 312 LINE",
"439 388 LINE",
"207 388 LINE",
"235 613 LINE"
);
}
);
};
layerId = "A11F629A-ECF3-413E-B2EC-6C6F8C33A243";
name = "Regular Italic";
paths = (
{
closed = 1;
nodes = (
"159 689 LINE",
"62 0 LINE",
"439 0 LINE",
"450 76 LINE",
"167 76 LINE",
"200 312 LINE",
"430 312 LINE",
"440 388 LINE",
"210 388 LINE",
"242 613 LINE",
"507 613 LINE",
"528 689 LINE"
);
}
);
width = 529;
}
);
leftKerningGroup = H;
leftMetricsKey = H;
rightKerningGroup = E;
unicode = 0045;
},
{
color = 7;
glyphname = Eogonek;
lastChange = "2014-04-28 11:23:13 +0100";
layers = (
{
background = {
paths = (
{
closed = 1;
nodes = (
"511 553 LINE",
"550 696 LINE",
"93 696 LINE",
"8 0 LINE",
"351 0 LINE",
"261 -41 OFFCURVE",
"221 -99 OFFCURVE",
"221 -158 CURVE SMOOTH",
"221 -225 OFFCURVE",
"275 -267 OFFCURVE",
"359 -267 CURVE SMOOTH",
"397 -267 OFFCURVE",
"452 -256 OFFCURVE",
"491 -239 CURVE",
"461 -147 LINE",
"445 -155 OFFCURVE",
"419 -162 OFFCURVE",
"392 -162 CURVE SMOOTH",
"368 -162 OFFCURVE",
"352 -148 OFFCURVE",
"352 -123 CURVE SMOOTH",
"352 -82 OFFCURVE",
"381 -40 OFFCURVE",
"460 0 CURVE",
"477 144 LINE",
"231 144 LINE",
"248 284 LINE",
"450 284 LINE",
"467 423 LINE",
"265 423 LINE",
"281 553 LINE"
);
}
);
};
components = (
{
name = E;
transform = "{1, 0, 0, 1, 0, 0}";
},
{
name = ogonek;
transform = "{1, 0, 0, 1, 205, 0}";
}
);
layerId = UUID0;
name = "Bold Italic";
width = 510;
},
{
components = (
{
name = E;
transform = "{1, 0, 0, 1, 0, 0}";
},
{
name = ogonek;
transform = "{1, 0, 0, 1, 292, 0}";
}
);
layerId = "F257A41E-77B2-4FB8-8247-C188CBBE1401";
name = "Light Italic";
width = 495;
},
{
background = {
paths = (
{
closed = 1;
nodes = (
"431 50 LINE",
"136 50 LINE",
"170 330 LINE",
"413 330 LINE",
"419 380 LINE",
"176 380 LINE",
"207 635 LINE",
"487 635 LINE",
"501 685 LINE",
"155 685 LINE",
"71 0 LINE",
"364 0 LINE",
"306 -35 OFFCURVE",
"266 -89 OFFCURVE",
"266 -145 CURVE SMOOTH",
"266 -192 OFFCURVE",
"298 -226 OFFCURVE",
"366 -226 CURVE SMOOTH",
"397 -226 OFFCURVE",
"416 -221 OFFCURVE",
"446 -210 CURVE",
"434 -172 LINE",
"419 -178 OFFCURVE",
"401 -182 OFFCURVE",
"378 -182 CURVE SMOOTH",
"341 -182 OFFCURVE",
"323 -161 OFFCURVE",
"323 -132 CURVE SMOOTH",
"323 -69 OFFCURVE",
"372 -32 OFFCURVE",
"425 0 CURVE"
);
}
);
};
components = (
{
name = E;
transform = "{1, 0, 0, 1, 0, 0}";
},
{
name = ogonek;
transform = "{1, 0, 0, 1, 276, 0}";
}
);
layerId = "BCC09A48-EAE1-493E-95CB-92D2C26BC05D";
name = "Regular Italic";
width = 493;
},
{
background = {
paths = (
{
closed = 1;
nodes = (
"502 613 LINE",
"522 689 LINE",
"149 689 LINE",
"65 0 LINE",
"372 0 LINE",
"303 -37 OFFCURVE",
"263 -92 OFFCURVE",
"263 -146 CURVE SMOOTH",
"263 -204 OFFCURVE",
"304 -241 OFFCURVE",
"381 -241 CURVE SMOOTH",
"415 -241 OFFCURVE",
"447 -235 OFFCURVE",
"481 -219 CURVE",
"462 -165 LINE",
"450 -172 OFFCURVE",
"426 -180 OFFCURVE",
"399 -180 CURVE SMOOTH",
"358 -180 OFFCURVE",
"340 -162 OFFCURVE",
"340 -136 CURVE SMOOTH",
"340 -102 OFFCURVE",
"361 -48 OFFCURVE",
"446 0 CURVE",
"455 76 LINE",
"169 76 LINE",
"198 312 LINE",
"430 312 LINE",
"439 388 LINE",
"207 388 LINE",
"235 613 LINE"
);
}
);
};
components = (
{
name = E;
transform = "{1, 0, 0, 1, 0, 0}";
},
{
name = ogonek;
transform = "{1, 0, 0, 1, 242, 0}";
}
);
layerId = "A11F629A-ECF3-413E-B2EC-6C6F8C33A243";
name = "Regular Italic";
width = 529;
}
);
leftKerningGroup = H;
rightKerningGroup = E;
unicode = 0118;
},
{
color = 4;
glyphname = F;
lastChange = "2014-04-26 15:52:18 +0100";
layers = (
{
background = {
paths = (
{
closed = 1;
nodes = (
"498 553 LINE",
"537 696 LINE",
"95 696 LINE",
"10 0 LINE",
"216 0 LINE",
"247 258 LINE",
"436 258 LINE",
"454 401 LINE",
"265 401 LINE",
"283 553 LINE"
);
}
);
};
layerId = UUID0;
name = "Bold Italic";
paths = (
{
closed = 1;
nodes = (
"103 696 LINE SMOOTH",
"6 0 LINE SMOOTH",
"208 0 LINE SMOOTH",
"244 258 LINE SMOOTH",
"430 258 LINE SMOOTH",
"450 401 LINE SMOOTH",
"264 401 LINE SMOOTH",
"285 553 LINE SMOOTH",
"496 553 LINE SMOOTH",
"537 696 LINE SMOOTH"
);
}
);
width = 475;
},
{
layerId = "F257A41E-77B2-4FB8-8247-C188CBBE1401";
leftMetricsKey = H;
name = "Light Italic";
paths = (
{
closed = 1;
nodes = (
"189 680 LINE",
"94 0 LINE",
"96 0 LINE",
"144 345 LINE",
"402 345 LINE",
"402 347 LINE",
"144 347 LINE",
"191 678 LINE",
"489 678 LINE",
"489 680 LINE"
);
}
);
width = 470;
},
{
background = {
paths = (
{
closed = 1;
nodes = (
"496 685 LINE",
"155 685 LINE",
"71 0 LINE",
"130 0 LINE",
"169 318 LINE",
"407 318 LINE",
"413 368 LINE",
"175 368 LINE",
"207 635 LINE",
"482 635 LINE"
);
}
);
};
layerId = "BCC09A48-EAE1-493E-95CB-92D2C26BC05D";
leftMetricsKey = H;
name = "Regular Italic";
paths = (
{
closed = 1;
nodes = (
"179 682 LINE",
"83 0 LINE",
"114 0 LINE",
"161 331 LINE",
"409 331 LINE",
"413 359 LINE",
"165 359 LINE",
"206 653 LINE",
"493 653 LINE",
"501 682 LINE"
);
}
);
width = 472;
},
{
background = {
paths = (
{
closed = 1;
nodes = (
"495 613 LINE",
"515 689 LINE",
"149 689 LINE",
"65 0 LINE",
"160 0 LINE",
"197 303 LINE",
"422 303 LINE",
"431 378 LINE",
"206 378 LINE",
"235 613 LINE"
);
}
);
};
layerId = "A11F629A-ECF3-413E-B2EC-6C6F8C33A243";
name = "Regular Italic";
paths = (
{
closed = 1;
nodes = (
"159 689 LINE",
"62 0 LINE",
"156 0 LINE",
"199 303 LINE",
"422 303 LINE",
"432 378 LINE",
"209 378 LINE",
"242 613 LINE",
"500 613 LINE",
"521 689 LINE"
);
}
);
width = 485;
}
);
leftKerningGroup = H;
leftMetricsKey = H;
rightKerningGroup = F;
unicode = 0046;
},
{
color = 4;
glyphname = G;
lastChange = "2014-04-26 15:52:18 +0100";
layers = (
{
anchors = (
{
name = bottom;
position = "{306, 0}";
},
{
name = top;
position = "{403, 696}";
}
);
background = {
paths = (
{
closed = 1;
nodes = (
"413 -20 OFFCURVE",
"510 10 OFFCURVE",
"591 58 CURVE",
"635 409 LINE",
"350 409 LINE",
"355 270 LINE",
"420 270 LINE",
"404 142 LINE",
"381 131 OFFCURVE",
"361 126 OFFCURVE",
"334 126 CURVE SMOOTH",
"271 126 OFFCURVE",
"234 162 OFFCURVE",
"234 265 CURVE SMOOTH",
"234 482 OFFCURVE",
"311 572 OFFCURVE",
"420 572 CURVE SMOOTH",
"465 572 OFFCURVE",
"506 553 OFFCURVE",
"542 516 CURVE",
"653 628 LINE",
"598 683 OFFCURVE",
"520 716 OFFCURVE",
"407 716 CURVE SMOOTH",
"176 716 OFFCURVE",
"23 550 OFFCURVE",
"23 275 CURVE SMOOTH",
"23 81 OFFCURVE",
"131 -20 OFFCURVE",
"319 -20 CURVE SMOOTH"
);
},
{
closed = 1;
nodes = (
"229 716 OFFCURVE",
"64 586 OFFCURVE",
"31 352 CURVE SMOOTH",
"-1 113 OFFCURVE",
"81 -20 OFFCURVE",
"310 -20 CURVE SMOOTH",
"395 -20 OFFCURVE",
"498 8 OFFCURVE",
"578 59 CURVE",
"626 409 LINE",
"345 409 LINE",
"343 270 LINE",
"412 270 LINE",
"394 144 LINE",
"370 133 OFFCURVE",
"348 126 OFFCURVE",
"320 126 CURVE SMOOTH",
"242 126 OFFCURVE",
"216 175 OFFCURVE",
"240 345 CURVE SMOOTH",
"261 500 OFFCURVE",
"326 572 OFFCURVE",
"421 572 CURVE SMOOTH",
"472 572 OFFCURVE",
"504 555 OFFCURVE",
"540 519 CURVE",
"655 624 LINE",
"607 675 OFFCURVE",
"529 716 OFFCURVE",
"425 716 CURVE SMOOTH"
);
}
);
};
layerId = UUID0;
name = "Bold Italic";
paths = (
{
closed = 1;
nodes = (
"131 716 OFFCURVE",
"24 472 OFFCURVE",
"24 259 CURVE SMOOTH",
"24 79 OFFCURVE",
"113 -20 OFFCURVE",
"310 -20 CURVE SMOOTH",
"395 -20 OFFCURVE",
"498 8 OFFCURVE",
"578 58 CURVE",
"626 409 LINE",
"345 409 LINE",
"343 270 LINE",
"412 270 LINE",
"394 142 LINE",
"370 132 OFFCURVE",
"347 126 OFFCURVE",
"319 126 CURVE SMOOTH",
"261 126 OFFCURVE",
"231 154 OFFCURVE",
"231 243 CURVE SMOOTH",
"231 382 OFFCURVE",
"266 572 OFFCURVE",
"421 572 CURVE SMOOTH",
"472 572 OFFCURVE",
"504 555 OFFCURVE",
"540 519 CURVE",
"654 622 LINE",
"607 675 OFFCURVE",
"529 716 OFFCURVE",
"425 716 CURVE SMOOTH"
);
}
);
width = 640.41;
},
{
anchors = (
{
name = bottom;
position = "{303, 0}";
},
{
name = top;
position = "{397, 680}";
}
);
background = {
paths = (
{
closed = 1;
nodes = (
"278 690 OFFCURVE",
"131 582 OFFCURVE",
"98 345 CURVE SMOOTH",
"66 114 OFFCURVE",
"154 -9 OFFCURVE",
"317 -9 CURVE SMOOTH",
"387 -9 OFFCURVE",
"445 15 OFFCURVE",
"489 39 CURVE",
"532 342 LINE",
"379 342 LINE",
"379 340 LINE",
"530 340 LINE",
"487 40 LINE",
"447 17 OFFCURVE",
"388 -7 OFFCURVE",
"317 -7 CURVE SMOOTH",
"154 -7 OFFCURVE",
"68 116 OFFCURVE",
"100 345 CURVE SMOOTH",
"133 580 OFFCURVE",
"279 688 OFFCURVE",
"404 688 CURVE SMOOTH",
"465 688 OFFCURVE",
"510 669 OFFCURVE",
"552 633 CURVE",
"554 635 LINE",
"510 671 OFFCURVE",
"466 690 OFFCURVE",
"404 690 CURVE SMOOTH"
);
}
);
};
layerId = "F257A41E-77B2-4FB8-8247-C188CBBE1401";
leftMetricsKey = O;
name = "Light Italic";
paths = (
{
closed = 1;
nodes = (
"189 690 OFFCURVE",
"91 450 OFFCURVE",
"91 256 CURVE SMOOTH",
"91 83 OFFCURVE",
"176 -9 OFFCURVE",
"317 -9 CURVE SMOOTH",
"387 -9 OFFCURVE",
"445 15 OFFCURVE",
"489 39 CURVE",
"532 342 LINE",
"379 342 LINE",
"379 340 LINE",
"530 340 LINE",
"487 40 LINE",
"444 17 OFFCURVE",
"388 -7 OFFCURVE",
"317 -7 CURVE SMOOTH",
"177 -7 OFFCURVE",
"93 84 OFFCURVE",
"93 256 CURVE SMOOTH",
"93 444 OFFCURVE",
"188 688 OFFCURVE",
"404 688 CURVE SMOOTH",
"465 688 OFFCURVE",
"509 669 OFFCURVE",
"553 633 CURVE",
"554 635 LINE",
"510 671 OFFCURVE",
"466 690 OFFCURVE",
"404 690 CURVE SMOOTH"
);
}
);
width = 599.806;
},
{
anchors = (
{
name = bottom;
position = "{299, 0}";
},
{
name = top;
position = "{407, 682}";
}
);
background = {
paths = (
{
closed = 1;
nodes = (
"578 628 LINE",
"530 672 OFFCURVE",
"468 696 OFFCURVE",
"395 696 CURVE SMOOTH",
"222 696 OFFCURVE",
"68 550 OFFCURVE",
"68 271 CURVE SMOOTH",
"68 82 OFFCURVE",
"172 -11 OFFCURVE",
"313 -11 CURVE SMOOTH",
"385 -11 OFFCURVE",
"457 10 OFFCURVE",
"521 46 CURVE",
"561 371 LINE",
"356 371 LINE",
"357 321 LINE",
"497 321 LINE",
"467 77 LINE",
"422 51 OFFCURVE",
"377 40 OFFCURVE",
"317 40 CURVE SMOOTH",
"211 40 OFFCURVE",
"130 116 OFFCURVE",
"130 272 CURVE SMOOTH",
"130 518 OFFCURVE",
"259 645 OFFCURVE",
"392 645 CURVE SMOOTH",
"451 645 OFFCURVE",
"497 629 OFFCURVE",
"540 591 CURVE"
);
},
{
closed = 1;
nodes = (
"274 692 OFFCURVE",
"120 584 OFFCURVE",
"86 347 CURVE SMOOTH",
"53 110 OFFCURVE",
"151 -10 OFFCURVE",
"316 -10 CURVE SMOOTH",
"378 -10 OFFCURVE",
"446 8 OFFCURVE",
"507 42 CURVE",
"551 359 LINE",
"373 359 LINE",
"373 330 LINE",
"516 330 LINE",
"477 58 LINE",
"428 33 OFFCURVE",
"382 19 OFFCURVE",
"316 19 CURVE SMOOTH",
"171 19 OFFCURVE",
"87 124 OFFCURVE",
"118 343 CURVE SMOOTH",
"150 573 OFFCURVE",
"290 663 OFFCURVE",
"406 663 CURVE SMOOTH",
"468 663 OFFCURVE",
"510 647 OFFCURVE",
"553 610 CURVE",
"574 631 LINE",
"526 672 OFFCURVE",
"481 692 OFFCURVE",
"406 692 CURVE SMOOTH"
);
}
);
};
layerId = "BCC09A48-EAE1-493E-95CB-92D2C26BC05D";
leftMetricsKey = O;
name = "Regular Italic";
paths = (
{
closed = 1;
nodes = (
"189 692 OFFCURVE",
"80 464 OFFCURVE",
"80 260 CURVE SMOOTH",
"80 81 OFFCURVE",
"172 -10 OFFCURVE",
"316 -10 CURVE SMOOTH",
"378 -10 OFFCURVE",
"446 8 OFFCURVE",
"507 41 CURVE",
"551 359 LINE",
"373 359 LINE",
"374 330 LINE",
"516 330 LINE",
"477 58 LINE",
"428 33 OFFCURVE",
"381 19 OFFCURVE",
"316 19 CURVE SMOOTH",
"191 19 OFFCURVE",
"112 97 OFFCURVE",
"112 258 CURVE SMOOTH",
"112 451 OFFCURVE",
"206 663 OFFCURVE",
"406 663 CURVE SMOOTH",
"468 663 OFFCURVE",
"512 647 OFFCURVE",
"553 610 CURVE",
"574 631 LINE",
"526 672 OFFCURVE",
"474 692 OFFCURVE",
"406 692 CURVE SMOOTH"
);
}
);
width = 607.242;
},
{
anchors = (
{
name = bottom;
position = "{303, 0}";
},
{
name = top;
position = "{412, 689}";
}
);
background = {
paths = (
{
closed = 1;
nodes = (
"394 -12 OFFCURVE",
"476 8 OFFCURVE",
"544 53 CURVE",
"584 379 LINE",
"349 379 LINE",
"352 302 LINE",
"482 302 LINE",
"457 101 LINE",
"415 77 OFFCURVE",
"377 66 OFFCURVE",
"329 66 CURVE SMOOTH",
"223 66 OFFCURVE",
"161 127 OFFCURVE",
"161 283 CURVE SMOOTH",
"161 510 OFFCURVE",
"271 623 OFFCURVE",
"388 623 CURVE SMOOTH",
"452 623 OFFCURVE",
"494 606 OFFCURVE",
"538 567 CURVE",
"599 625 LINE",
"545 675 OFFCURVE",
"480 701 OFFCURVE",
"394 701 CURVE SMOOTH",
"220 701 OFFCURVE",
"61 559 OFFCURVE",
"61 285 CURVE SMOOTH",
"61 84 OFFCURVE",
"152 -12 OFFCURVE",
"321 -12 CURVE SMOOTH"
);
},
{
closed = 1;
nodes = (
"254 701 OFFCURVE",
"99 580 OFFCURVE",
"67 350 CURVE SMOOTH",
"33 110 OFFCURVE",
"128 -12 OFFCURVE",
"299 -12 CURVE SMOOTH",
"393 -12 OFFCURVE",
"468 11 OFFCURVE",
"535 48 CURVE",
"580 382 LINE",
"356 382 LINE",
"356 305 LINE",
"476 305 LINE",
"446 99 LINE",
"404 76 OFFCURVE",
"356 66 OFFCURVE",
"309 66 CURVE SMOOTH",
"191 66 OFFCURVE",
"138 144 OFFCURVE",
"166 340 CURVE SMOOTH",
"195 545 OFFCURVE",
"306 623 OFFCURVE",
"406 623 CURVE SMOOTH",
"465 623 OFFCURVE",
"502 608 OFFCURVE",
"545 569 CURVE",
"606 623 LINE",
"553 672 OFFCURVE",
"500 701 OFFCURVE",
"405 701 CURVE SMOOTH"
);
}
);
};
layerId = "A11F629A-ECF3-413E-B2EC-6C6F8C33A243";
name = "Regular Italic";
paths = (
{
closed = 1;
nodes = (
"163 701 OFFCURVE",
"60 457 OFFCURVE",
"60 259 CURVE SMOOTH",
"60 79 OFFCURVE",
"154 -12 OFFCURVE",
"302 -12 CURVE SMOOTH",
"396 -12 OFFCURVE",
"468 11 OFFCURVE",
"535 54 CURVE",
"580 382 LINE",
"356 382 LINE",
"356 305 LINE",
"476 305 LINE",
"446 101 LINE",
"404 76 OFFCURVE",
"359 66 OFFCURVE",
"315 66 CURVE SMOOTH",
"213 66 OFFCURVE",
"159 119 OFFCURVE",
"159 247 CURVE SMOOTH",
"159 413 OFFCURVE",
"227 623 OFFCURVE",
"406 623 CURVE SMOOTH",
"465 623 OFFCURVE",
"502 608 OFFCURVE",
"545 569 CURVE",
"607 622 LINE",
"555 672 OFFCURVE",
"494 701 OFFCURVE",
"405 701 CURVE SMOOTH"
);
}
);
width = 625.28;
}
);
leftKerningGroup = O;
leftMetricsKey = O;
rightKerningGroup = G;
unicode = 0047;
},
{
color = 4;
glyphname = H;
lastChange = "2014-04-26 15:52:18 +0100";
layers = (
{
anchors = (
{
name = bottomright;
position = "{575, 0}";
},
{
name = center;
position = "{335, 348}";
},
{
name = top;
position = "{383, 696}";
},
{
name = topleft;
position = "{-50, 534}";
}
);
background = {
paths = (
{
closed = 1;
nodes = (
"579 0 LINE",
"664 696 LINE",
"458 696 LINE",
"426 439 LINE",
"267 439 LINE",
"299 696 LINE",
"93 696 LINE",
"8 0 LINE",
"214 0 LINE",
"248 281 LINE",
"407 281 LINE",
"373 0 LINE"
);
}
);
};
layerId = UUID0;
name = "Bold Italic";
paths = (
{
closed = 1;
nodes = (
"565 0 LINE",
"662 696 LINE",
"460 696 LINE",
"424 439 LINE",
"269 439 LINE",
"305 696 LINE",
"103 696 LINE",
"6 0 LINE",
"208 0 LINE",
"247 281 LINE",
"401 281 LINE",
"363 0 LINE"
);
}
);
width = 645;
},
{
anchors = (
{
name = bottomright;
position = "{498, 0}";
},
{
name = center;
position = "{338, 340}";
},
{
name = top;
position = "{385, 680}";
},
{
name = topleft;
position = "{88, 517}";
}
);
layerId = "F257A41E-77B2-4FB8-8247-C188CBBE1401";
name = "Light Italic";
paths = (
{
closed = 1;
nodes = (
"488 0 LINE",
"583 680 LINE",
"581 680 LINE",
"537 367 LINE",
"147 367 LINE",
"191 680 LINE",
"189 680 LINE",
"94 0 LINE",
"96 0 LINE",
"147 365 LINE",
"537 365 LINE",
"486 0 LINE"
);
}
);
width = 654;
},
{
anchors = (
{
name = bottomright;
position = "{515, 0}";
},
{
name = center;
position = "{340, 341}";
},
{
name = top;
position = "{388, 682}";
},
{
name = topleft;
position = "{88, 520}";
}
);
background = {
paths = (
{
closed = 1;
nodes = (
"511 0 LINE",
"595 685 LINE",
"536 685 LINE",
"499 386 LINE",
"177 386 LINE",
"214 685 LINE",
"155 685 LINE",
"71 0 LINE",
"130 0 LINE",
"171 336 LINE",
"493 336 LINE",
"452 0 LINE"
);
}
);
};
layerId = "BCC09A48-EAE1-493E-95CB-92D2C26BC05D";
name = "Regular Italic";
paths = (
{
closed = 1;
nodes = (
"505 0 LINE",
"601 682 LINE",
"570 682 LINE",
"527 374 LINE",
"167 374 LINE",
"210 682 LINE",
"179 682 LINE",
"83 0 LINE",
"114 0 LINE",
"163 345 LINE",
"523 345 LINE",
"474 0 LINE"
);
}
);
width = 662;
},
{
anchors = (
{
name = bottomright;
position = "{548, 0}";
},
{
name = center;
position = "{348, 345}";
},
{
name = top;
position = "{397, 689}";
},
{
name = topleft;
position = "{48, 534}";
}
);
background = {
paths = (
{
closed = 1;
nodes = (
"535 0 LINE",
"619 689 LINE",
"524 689 LINE",
"489 401 LINE",
"209 401 LINE",
"244 689 LINE",
"149 689 LINE",
"65 0 LINE",
"160 0 LINE",
"199 323 LINE",
"479 323 LINE",
"440 0 LINE"
);
}
);
};
layerId = "A11F629A-ECF3-413E-B2EC-6C6F8C33A243";
name = "Regular Italic";
paths = (
{
closed = 1;
nodes = (
"538 0 LINE",
"635 689 LINE",
"541 689 LINE",
"500 401 LINE",
"212 401 LINE",
"253 689 LINE",
"159 689 LINE",
"62 0 LINE",
"156 0 LINE",
"201 323 LINE",
"489 323 LINE",
"444 0 LINE"
);
}
);
width = 674;
}
);
leftKerningGroup = H;
rightKerningGroup = H;
unicode = 0048;
},
{
color = 4;
glyphname = Hbar;
lastChange = "2014-04-28 14:56:42 +0100";
layers = (
{
background = {
paths = (
{
closed = 1;
nodes = (
"586 0 LINE",
"646 495 LINE",
"696 495 LINE",
"709 601 LINE",
"659 601 LINE",
"671 696 LINE",
"465 696 LINE",
"453 601 LINE",
"294 601 LINE",
"306 696 LINE",
"100 696 LINE",
"88 601 LINE",
"38 601 LINE",
"25 495 LINE",
"75 495 LINE",
"15 0 LINE",
"221 0 LINE",
"255 281 LINE",
"414 281 LINE",
"380 0 LINE"
);
},
{
closed = 1;
nodes = (
"274 439 LINE",
"281 495 LINE",
"440 495 LINE",
"433 439 LINE"
);
}
);
};
components = (
{
disableAlignment = 1;
name = H;
transform = "{1, 0, 0, 1, 10, 0}";
}
);
layerId = UUID0;
name = "Bold Italic";
paths = (
{
closed = 1;
nodes = (
"654 601 LINE",
"51 601 LINE",
"36 495 LINE",
"86 495 LINE",
"693 495 LINE",
"708 601 LINE"
);
}
);
width = 669.059;
},
{
components = (
{
disableAlignment = 1;
name = H;
transform = "{1, 0, 0, 1, 7, 0}";
}
);
layerId = "F257A41E-77B2-4FB8-8247-C188CBBE1401";
name = "Light Italic";
paths = (
{
closed = 1;
nodes = (
"567 528 LINE",
"122 528 LINE",
"122 526 LINE",
"175 526 LINE",
"620 526 LINE",
"620 528 LINE"
);
}
);
width = 668;
},
{
background = {
paths = (
{
closed = 1;
nodes = (
"513 0 LINE",
"576 518 LINE",
"645 518 LINE",
"651 562 LINE",
"582 562 LINE",
"597 685 LINE",
"538 685 LINE",
"523 562 LINE",
"201 562 LINE",
"216 685 LINE",
"157 685 LINE",
"142 562 LINE",
"73 562 LINE",
"67 518 LINE",
"136 518 LINE",
"73 0 LINE",
"132 0 LINE",
"173 336 LINE",
"495 336 LINE",
"454 0 LINE"
);
},
{
closed = 1;
nodes = (
"179 386 LINE",
"195 518 LINE",
"517 518 LINE",
"501 386 LINE"
);
}
);
};
components = (
{
disableAlignment = 1;
name = H;
transform = "{1, 0, 0, 1, 0, 0}";
}
);
layerId = "BCC09A48-EAE1-493E-95CB-92D2C26BC05D";
name = "Regular Italic";
paths = (
{
closed = 1;
nodes = (
"577 542 LINE",
"98 542 LINE",
"94 518 LINE",
"157 518 LINE",
"636 518 LINE",
"640 542 LINE"
);
}
);
width = 652;
},
{
background = {
paths = (
{
closed = 1;
nodes = (
"543 0 LINE",
"605 508 LINE",
"683 508 LINE",
"691 577 LINE",
"613 577 LINE",
"627 689 LINE",
"532 689 LINE",
"518 577 LINE",
"237 577 LINE",
"251 689 LINE",
"156 689 LINE",
"142 577 LINE",
"65 577 LINE",
"57 508 LINE",
"134 508 LINE",
"72 0 LINE",
"167 0 LINE",
"206 323 LINE",
"487 323 LINE",
"448 0 LINE"
);
},
{
closed = 1;
nodes = (
"216 401 LINE",
"229 508 LINE",
"510 508 LINE",
"497 401 LINE"
);
}
);
};
components = (
{
disableAlignment = 1;
name = H;
transform = "{1, 0, 0, 1, 3, 0}";
}
);
layerId = "A11F629A-ECF3-413E-B2EC-6C6F8C33A243";
name = "Regular Italic";
paths = (
{
closed = 1;
nodes = (
"617 577 LINE",
"79 577 LINE",
"69 508 LINE",
"137 508 LINE",
"681 508 LINE",
"691 577 LINE"
);
}
);
width = 682;
}
);
leftKerningGroup = H;
rightKerningGroup = H;
unicode = 0126;
},
{
color = 4;
glyphname = I;
lastChange = "2014-04-26 15:52:18 +0100";
layers = (
{
anchors = (
{
name = ogonek;
position = "{173, 0}";
},
{
name = top;
position = "{204, 696}";
},
{
name = topleft;
position = "{-49, 534}";
}
);
background = {
paths = (
{
closed = 1;
nodes = (
"218 0 LINE",
"303 696 LINE",
"97 696 LINE",
"12 0 LINE"
);
}
);
};
layerId = UUID0;
leftMetricsKey = H;
rightMetricsKey = H;
name = "Bold Italic";
paths = (
{
closed = 1;
nodes = (
"103 696 LINE",
"6 0 LINE",
"208 0 LINE",
"305 696 LINE"
);
}
);
width = 288;
},
{
anchors = (
{
name = ogonek;
position = "{106, 0}";
},
{
name = top;
position = "{190, 680}";
},
{
name = topleft;
position = "{88, 517}";
}
);
layerId = "F257A41E-77B2-4FB8-8247-C188CBBE1401";
leftMetricsKey = H;
rightMetricsKey = H;
name = "Light Italic";
paths = (
{
closed = 1;
nodes = (
"189 680 LINE",
"94 0 LINE",
"96 0 LINE",
"191 680 LINE"
);
}
);
width = 262;
},
{
anchors = (
{
name = ogonek;
position = "{124, 0}";
},
{
name = top;
position = "{194, 682}";
},
{
name = topleft;
position = "{88, 520}";
}
);
background = {
paths = (
{
closed = 1;
nodes = (
"155 685 LINE",
"71 0 LINE",
"130 0 LINE",
"214 685 LINE"
);
}
);
};
layerId = "BCC09A48-EAE1-493E-95CB-92D2C26BC05D";
leftMetricsKey = H;
rightMetricsKey = H;
name = "Regular Italic";
paths = (
{
closed = 1;
nodes = (
"179 682 LINE",
"83 0 LINE",
"114 0 LINE",
"210 682 LINE"
);
}
);
width = 271;
},
{
anchors = (
{
name = ogonek;
position = "{167, 0}";
},
{
name = top;
position = "{207, 689}";
},
{
name = topleft;
position = "{50, 534}";
}
);
background = {
paths = (
{
closed = 1;
nodes = (
"162 0 LINE",
"246 689 LINE",
"151 689 LINE",
"67 0 LINE"
);
}
);
};
layerId = "A11F629A-ECF3-413E-B2EC-6C6F8C33A243";
name = "Regular Italic";
paths = (
{
closed = 1;
nodes = (
"159 689 LINE",
"62 0 LINE",
"158 0 LINE",
"255 689 LINE"
);
}
);
width = 294;
}
);
leftKerningGroup = H;
leftMetricsKey = H;
rightKerningGroup = H;
rightMetricsKey = H;
unicode = 0049;
},
{
color = 7;
glyphname = Iogonek;
lastChange = "2014-04-26 15:52:18 +0100";
layers = (
{
background = {
paths = (
{
closed = 1;
nodes = (
"299 696 LINE",
"93 696 LINE",
"8 0 LINE",
"105 0 LINE",
"15 -41 OFFCURVE",
"-25 -99 OFFCURVE",
"-25 -158 CURVE SMOOTH",
"-25 -225 OFFCURVE",
"29 -267 OFFCURVE",
"113 -267 CURVE SMOOTH",
"151 -267 OFFCURVE",
"206 -256 OFFCURVE",
"245 -239 CURVE",
"215 -147 LINE",
"199 -155 OFFCURVE",
"173 -162 OFFCURVE",
"146 -162 CURVE SMOOTH",
"122 -162 OFFCURVE",
"106 -148 OFFCURVE",
"106 -123 CURVE SMOOTH",
"106 -82 OFFCURVE",
"135 -40 OFFCURVE",
"214 0 CURVE"
);
}
);
};
components = (
{
name = I;
transform = "{1, 0, 0, 1, 0, 0}";
},
{
name = ogonek;
transform = "{1, 0, 0, 1, -42, 0}";
}
);
layerId = UUID0;
name = "Bold Italic";
width = 288;
},
{
components = (
{
name = I;
transform = "{1, 0, 0, 1, 0, 0}";
},
{
name = ogonek;
transform = "{1, 0, 0, 1, 9, 0}";
}
);
layerId = "F257A41E-77B2-4FB8-8247-C188CBBE1401";
name = "Light Italic";
width = 262;
},
{
background = {
paths = (
{
closed = 1;
nodes = (
"155 685 LINE",
"71 0 LINE",
"13 -34 OFFCURVE",
"-28 -89 OFFCURVE",
"-28 -145 CURVE SMOOTH",
"-28 -192 OFFCURVE",
"4 -226 OFFCURVE",
"72 -226 CURVE SMOOTH",
"103 -226 OFFCURVE",
"122 -221 OFFCURVE",
"152 -210 CURVE",
"140 -172 LINE",
"125 -178 OFFCURVE",
"107 -182 OFFCURVE",
"84 -182 CURVE SMOOTH",
"47 -182 OFFCURVE",
"29 -161 OFFCURVE",
"29 -132 CURVE SMOOTH",
"29 -71 OFFCURVE",
"77 -32 OFFCURVE",
"130 0 CURVE",
"214 685 LINE"
);
}
);
};
components = (
{
name = I;
transform = "{1, 0, 0, 1, 0, 0}";
},
{
name = ogonek;
transform = "{1, 0, 0, 1, -1, 0}";
}
);
layerId = "BCC09A48-EAE1-493E-95CB-92D2C26BC05D";
name = "Regular Italic";
width = 271;
},
{
background = {
paths = (
{
closed = 1;
nodes = (
"244 689 LINE",
"149 689 LINE",
"65 0 LINE",
"86 0 LINE",
"17 -37 OFFCURVE",
"-23 -92 OFFCURVE",
"-23 -146 CURVE SMOOTH",
"-23 -204 OFFCURVE",
"18 -241 OFFCURVE",
"95 -241 CURVE SMOOTH",
"129 -241 OFFCURVE",
"161 -235 OFFCURVE",
"195 -219 CURVE",
"176 -165 LINE",
"164 -172 OFFCURVE",
"140 -180 OFFCURVE",
"113 -180 CURVE SMOOTH",
"72 -180 OFFCURVE",
"54 -162 OFFCURVE",
"54 -136 CURVE SMOOTH",
"54 -102 OFFCURVE",
"75 -48 OFFCURVE",
"160 0 CURVE"
);
}
);
};
components = (
{
name = I;
transform = "{1, 0, 0, 1, 0, 0}";
},
{
name = ogonek;
transform = "{1, 0, 0, 1, 0, 0}";
}
);
layerId = "A11F629A-ECF3-413E-B2EC-6C6F8C33A243";
name = "Regular Italic";
width = 294;
}
);
leftKerningGroup = H;
rightKerningGroup = H;
unicode = 012E;
},
{
color = 4;
glyphname = J;
lastChange = "2014-04-26 15:52:18 +0100";
layers = (
{
anchors = (
{
name = top;
position = "{234, 696}";
}
);
background = {
paths = (
{
closed = 1;
nodes = (
"-45 -189 LINE",
"143 -128 OFFCURVE",
"220 -50 OFFCURVE",
"243 134 CURVE SMOOTH",
"312 696 LINE",
"106 696 LINE",
"35 121 LINE SMOOTH",
"23 24 OFFCURVE",
"-5 -12 OFFCURVE",
"-83 -41 CURVE"
);
}
);
};
layerId = UUID0;
rightMetricsKey = "=H*0.95";
name = "Bold Italic";
paths = (
{
closed = 1;
nodes = (
"133 696 LINE",
"52 119 LINE SMOOTH",
"41 42 OFFCURVE",
"24 -10 OFFCURVE",
"-68 -44 CURVE",
"-32 -189 LINE",
"92 -149 OFFCURVE",
"226 -84 OFFCURVE",
"254 110 CURVE SMOOTH",
"335 696 LINE"
);
}
);
width = 316.417;
},
{
anchors = (
{
name = top;
position = "{209, 680}";
}
);
layerId = "F257A41E-77B2-4FB8-8247-C188CBBE1401";
rightMetricsKey = "=H*0.95";
name = "Light Italic";
paths = (
{
closed = 1;
nodes = (
"207 680 LINE",
"124 85 LINE SMOOTH",
"111 -6 OFFCURVE",
"86 -49 OFFCURVE",
"-19 -89 CURVE",
"-18 -91 LINE",
"88 -50 OFFCURVE",
"113 -7 OFFCURVE",
"126 85 CURVE SMOOTH",
"209 680 LINE"
);
}
);
width = 273.571;
},
{
anchors = (
{
name = top;
position = "{206, 682}";
}
);
background = {
paths = (
{
closed = 1;
nodes = (
"-33 -136 LINE",
"82 -94 OFFCURVE",
"135 -48 OFFCURVE",
"151 84 CURVE SMOOTH",
"225 685 LINE",
"166 685 LINE",
"92 82 LINE SMOOTH",
"81 -9 OFFCURVE",
"48 -55 OFFCURVE",
"-42 -89 CURVE"
);
}
);
};
layerId = "BCC09A48-EAE1-493E-95CB-92D2C26BC05D";
rightMetricsKey = "=H*0.95";
name = "Regular Italic";
paths = (
{
closed = 1;
nodes = (
"193 682 LINE",
"110 92 LINE SMOOTH",
"97 -2 OFFCURVE",
"68 -36 OFFCURVE",
"-29 -80 CURVE",
"-21 -104 LINE",
"98 -54 OFFCURVE",
"126 -16 OFFCURVE",
"141 88 CURVE SMOOTH",
"224 682 LINE"
);
}
);
width = 279.466;
},
{
anchors = (
{
name = top;
position = "{219, 689}";
}
);
background = {
paths = (
{
closed = 1;
nodes = (
"-29 -139 LINE",
"105 -102 OFFCURVE",
"162 -37 OFFCURVE",
"178 94 CURVE SMOOTH",
"251 689 LINE",
"156 689 LINE",
"85 107 LINE SMOOTH",
"74 14 OFFCURVE",
"47 -28 OFFCURVE",
"-48 -61 CURVE"
);
}
);
};
layerId = "A11F629A-ECF3-413E-B2EC-6C6F8C33A243";
rightMetricsKey = "=H*0.95";
name = "Regular Italic";
paths = (
{
closed = 1;
nodes = (
"172 689 LINE",
"89 103 LINE SMOOTH",
"77 11 OFFCURVE",
"50 -31 OFFCURVE",
"-45 -67 CURVE",
"-26 -138 LINE",
"88 -103 OFFCURVE",
"162 -51 OFFCURVE",
"182 93 CURVE SMOOTH",
"266 689 LINE"
);
}
);
width = 300.06;
}
);
leftKerningGroup = J;
rightKerningGroup = J;
rightMetricsKey = "=H-5";
unicode = 004A;
},
{
color = 4;
glyphname = K;
lastChange = "2014-04-26 15:52:18 +0100";
layers = (
{
anchors = (
{
name = bottom;
position = "{288, 0}";
},
{
name = top;
position = "{385, 696}";
}
);
background = {
paths = (
{
closed = 1;
nodes = (
"299 696 LINE",
"93 696 LINE",
"8 0 LINE",
"214 0 LINE"
);
},
{
closed = 1;
nodes = (
"418 0 LINE",
"644 0 LINE",
"479 382 LINE",
"711 696 LINE",
"496 696 LINE",
"265 374 LINE"
);
}
);
};
layerId = UUID0;
name = "Bold Italic";
paths = (
{
closed = 1;
nodes = (
"499 696 LINE",
"266 371 LINE",
"402 0 LINE",
"630 0 LINE",
"471 377 LINE",
"709 696 LINE"
);
},
{
closed = 1;
nodes = (
"103 696 LINE",
"6 0 LINE",
"208 0 LINE",
"305 696 LINE"
);
}
);
width = 647;
},
{
anchors = (
{
name = bottom;
position = "{248, 0}";
},
{
name = top;
position = "{343, 680}";
}
);
layerId = "F257A41E-77B2-4FB8-8247-C188CBBE1401";
leftMetricsKey = H;
name = "Light Italic";
paths = (
{
closed = 1;
nodes = (
"529 680 LINE",
"150 366 LINE",
"450 0 LINE",
"453 0 LINE",
"152 366 LINE",
"532 680 LINE"
);
},
{
closed = 1;
nodes = (
"189 680 LINE",
"94 1 LINE",
"96 1 LINE",
"191 680 LINE"
);
}
);
width = 504;
},
{
anchors = (
{
name = bottom;
position = "{263, 0}";
},
{
name = top;
position = "{349, 682}";
}
);
background = {
paths = (
{
closed = 1;
nodes = (
"502 685 LINE",
"179 371 LINE",
"436 0 LINE",
"506 0 LINE",
"249 367 LINE",
"573 685 LINE"
);
},
{
closed = 1;
nodes = (
"155 685 LINE",
"71 0 LINE",
"130 0 LINE",
"214 685 LINE"
);
}
);
};
layerId = "BCC09A48-EAE1-493E-95CB-92D2C26BC05D";
leftMetricsKey = H;
name = "Regular Italic";
paths = (
{
closed = 1;
nodes = (
"517 682 LINE",
"169 367 LINE",
"439 0 LINE",
"476 0 LINE",
"207 365 LINE",
"556 682 LINE"
);
},
{
closed = 1;
nodes = (
"179 682 LINE",
"83 0 LINE",
"114 0 LINE",
"210 682 LINE"
);
}
);
width = 513;
},
{
anchors = (
{
name = bottom;
position = "{275, 0}";
},
{
name = top;
position = "{385, 689}";
}
);
background = {
paths = (
{
closed = 1;
nodes = (
"244 689 LINE",
"149 689 LINE",
"65 0 LINE",
"160 0 LINE"
);
},
{
closed = 1;
nodes = (
"442 0 LINE",
"554 0 LINE",
"317 365 LINE",
"619 689 LINE",
"509 689 LINE",
"210 368 LINE"
);
}
);
};
layerId = "A11F629A-ECF3-413E-B2EC-6C6F8C33A243";
name = "Regular Italic";
paths = (
{
closed = 1;
nodes = (
"515 689 LINE",
"213 368 LINE",
"434 0 LINE",
"546 0 LINE",
"319 365 LINE",
"626 689 LINE"
);
},
{
closed = 1;
nodes = (
"159 689 LINE",
"62 0 LINE",
"156 0 LINE",
"253 689 LINE"
);
}
);
width = 583;
}
);
leftKerningGroup = H;
leftMetricsKey = H;
rightKerningGroup = K;
unicode = 004B;
},
{
color = 4;
glyphname = L;
lastChange = "2014-05-14 16:21:33 +0100";
layers = (
{
anchors = (
{
name = bottom;
position = "{225, 0}";
},
{
name = center;
position = "{415, 404}";
},
{
name = top;
position = "{204, 696}";
},
{
name = topright;
position = "{324, 696}";
}
);
background = {
paths = (
{
closed = 1;
nodes = (
"457 0 LINE",
"497 158 LINE",
"234 158 LINE",
"300 696 LINE",
"94 696 LINE",
"9 0 LINE"
);
}
);
};
layerId = UUID0;
name = "Bold Italic";
paths = (
{
closed = 1;
nodes = (
"103 696 LINE",
"6 0 LINE",
"445 0 LINE",
"487 158 LINE",
"230 158 LINE",
"305 696 LINE"
);
}
);
width = 514.319;
},
{
anchors = (
{
name = bottom;
position = "{239, 0}";
},
{
name = center;
position = "{363, 355}";
},
{
name = top;
position = "{190, 680}";
},
{
name = topright;
position = "{251, 680}";
}
);
layerId = "F257A41E-77B2-4FB8-8247-C188CBBE1401";
leftMetricsKey = H;
name = "Light Italic";
paths = (
{
closed = 1;
nodes = (
"189 680 LINE",
"94 0 LINE",
"384 0 LINE",
"384 2 LINE",
"96 2 LINE",
"191 680 LINE"
);
}
);
width = 445;
},
{
anchors = (
{
name = bottom;
position = "{244, 0}";
},
{
name = center;
position = "{365, 354}";
},
{
name = top;
position = "{195, 682}";
},
{
name = topright;
position = "{250, 682}";
}
);
background = {
paths = (
{
closed = 1;
nodes = (
"155 685 LINE",
"71 0 LINE",
"408 0 LINE",
"422 54 LINE",
"136 54 LINE",
"214 685 LINE"
);
}
);
};
layerId = "BCC09A48-EAE1-493E-95CB-92D2C26BC05D";
leftMetricsKey = H;
name = "Regular Italic";
paths = (
{
closed = 1;
nodes = (
"179 682 LINE",
"83 0 LINE",
"397 0 LINE",
"408 30 LINE",
"119 30 LINE",
"210 682 LINE"
);
}
);
width = 455;
},
{
anchors = (
{
name = bottom;
position = "{244, 0}";
},
{
name = center;
position = "{404, 390}";
},
{
name = top;
position = "{206, 689}";
},
{
name = topright;
position = "{278, 689}";
}
);
background = {
paths = (
{
closed = 1;
nodes = (
"432 0 LINE",
"452 83 LINE",
"169 83 LINE",
"244 689 LINE",
"149 689 LINE",
"65 0 LINE"
);
}
);
};
layerId = "A11F629A-ECF3-413E-B2EC-6C6F8C33A243";
name = "Regular Italic";
paths = (
{
closed = 1;
nodes = (
"159 689 LINE",
"62 0 LINE",
"426 0 LINE",
"448 83 LINE",
"168 83 LINE",
"253 689 LINE"
);
}
);
width = 492;
}
);
leftKerningGroup = H;
leftMetricsKey = H;
rightKerningGroup = L;
unicode = 004C;
},
{
color = 4;
glyphname = Lslash;
lastChange = "2014-05-14 16:21:50 +0100";
layers = (
{
background = {
paths = (
{
closed = 1;
nodes = (
"484 0 LINE",
"524 158 LINE",
"261 158 LINE",
"282 333 LINE",
"467 439 LINE",
"416 541 LINE",
"300 474 LINE",
"327 696 LINE",
"121 696 LINE",
"78 347 LINE",
"-26 287 LINE",
"24 184 LINE",
"61 205 LINE",
"36 0 LINE"
);
}
);
};
layerId = UUID0;
rightMetricsKey = L;
name = "Bold Italic";
paths = (
{
closed = 1;
nodes = (
"278 158 LINE",
"302 332 LINE",
"486 439 LINE",
"437 541 LINE",
"322 474 LINE",
"353 696 LINE",
"151 696 LINE",
"102 346 LINE",
"0 287 LINE",
"47 184 LINE",
"83 205 LINE",
"54 0 LINE",
"493 0 LINE",
"535 158 LINE"
);
}
);
width = 562.319;
},
{
layerId = "F257A41E-77B2-4FB8-8247-C188CBBE1401";
rightMetricsKey = L;
name = "Light Italic";
paths = (
{
closed = 1;
nodes = (
"106 2 LINE",
"151 325 LINE",
"379 454 LINE",
"378 456 LINE",
"151 327 LINE",
"201 680 LINE",
"199 680 LINE",
"149 326 LINE",
"64 278 LINE",
"65 276 LINE",
"149 324 LINE",
"104 0 LINE",
"394 0 LINE",
"394 2 LINE"
);
}
);
width = 455;
},
{
background = {
paths = (
{
closed = 1;
nodes = (
"157 685 LINE",
"114 339 LINE",
"17 284 LINE",
"38 244 LINE",
"107 283 LINE",
"73 0 LINE",
"410 0 LINE",
"424 52 LINE",
"138 52 LINE",
"171 320 LINE",
"395 448 LINE",
"373 488 LINE",
"178 376 LINE",
"216 685 LINE"
);
}
);
};
layerId = "BCC09A48-EAE1-493E-95CB-92D2C26BC05D";
name = "Regular Italic";
paths = (
{
closed = 1;
nodes = (
"130 30 LINE",
"171 320 LINE",
"400 453 LINE",
"389 475 LINE",
"175 351 LINE",
"221 682 LINE",
"190 682 LINE",
"141 331 LINE",
"50 279 LINE",
"61 257 LINE",
"137 301 LINE",
"94 0 LINE",
"408 0 LINE",
"419 30 LINE"
);
}
);
width = 466;
},
{
background = {
paths = (
{
closed = 1;
nodes = (
"442 0 LINE",
"462 80 LINE",
"179 80 LINE",
"209 322 LINE",
"403 435 LINE",
"372 494 LINE",
"219 405 LINE",
"254 689 LINE",
"159 689 LINE",
"117 347 LINE",
"16 289 LINE",
"47 229 LINE",
"107 264 LINE",
"75 0 LINE"
);
}
);
};
layerId = "A11F629A-ECF3-413E-B2EC-6C6F8C33A243";
rightMetricsKey = L;
name = "Regular Italic";
paths = (
{
closed = 1;
nodes = (
"178 83 LINE",
"210 313 LINE",
"427 438 LINE",
"397 498 LINE",
"222 398 LINE",
"263 689 LINE",
"169 689 LINE",
"120 339 LINE",
"23 282 LINE",
"52 222 LINE",
"108 254 LINE",
"72 0 LINE",
"436 0 LINE",
"458 83 LINE"
);
}
);
width = 502;
}
);
leftKerningGroup = H;
rightKerningGroup = L;
rightMetricsKey = L;
unicode = 0141;
},
{
color = 4;
glyphname = M;
lastChange = "2014-04-26 15:52:18 +0100";
layers = (
{
background = {
paths = (
{
closed = 1;
nodes = (
"244 531 LINE",
"270 70 LINE",
"467 70 LINE",
"601 531 LINE",
"605 531 LINE",
"586 435 OFFCURVE",
"569 323 OFFCURVE",
"559 220 CURVE SMOOTH",
"537 0 LINE",
"740 0 LINE",
"776 696 LINE",
"519 696 LINE",
"391 240 LINE",
"387 240 LINE",
"367 696 LINE",
"115 696 LINE",
"-21 0 LINE",
"182 0 LINE",
"214 221 LINE SMOOTH",
"227 308 OFFCURVE",
"239 440 OFFCURVE",
"240 531 CURVE"
);
}
);
};
layerId = UUID0;
name = "Bold Italic";
paths = (
{
closed = 1;
nodes = (
"518 696 LINE",
"382 226 LINE",
"369 696 LINE",
"125 696 LINE",
"-21 0 LINE",
"178 0 LINE",
"217 247 LINE SMOOTH",
"233 341 OFFCURVE",
"239 415 OFFCURVE",
"241 550 CURVE",
"264 70 LINE",
"458 70 LINE",
"604 552 LINE",
"580 428 OFFCURVE",
"566 338 OFFCURVE",
"556 248 CURVE SMOOTH",
"527 0 LINE",
"726 0 LINE",
"774 696 LINE"
);
}
);
width = 779;
},
{
layerId = "F257A41E-77B2-4FB8-8247-C188CBBE1401";
name = "Light Italic";
paths = (
{
closed = 1;
nodes = (
"648 680 LINE",
"354 88 LINE",
"227 680 LINE",
"223 680 LINE",
"49 0 LINE",
"51 0 LINE",
"144 361 LINE SMOOTH",
"173 474 OFFCURVE",
"213 630 OFFCURVE",
"225 678 CURVE",
"352 85 LINE",
"355 85 LINE",
"649 677 LINE",
"647 606 OFFCURVE",
"644 468 OFFCURVE",
"641 354 CURVE SMOOTH",
"634 0 LINE",
"636 0 LINE",
"651 680 LINE"
);
}
);
width = 757;
},
{
background = {
paths = (
{
closed = 1;
nodes = (
"671 0 LINE",
"688 685 LINE",
"604 685 LINE",
"369 154 LINE",
"365 154 LINE",
"260 685 LINE",
"181 685 LINE",
"32 0 LINE",
"91 0 LINE",
"138 225 LINE SMOOTH",
"171 382 OFFCURVE",
"201 530 OFFCURVE",
"218 621 CURVE",
"220 621 LINE",
"331 81 LINE",
"389 81 LINE",
"630 621 LINE",
"632 621 LINE",
"628 525 OFFCURVE",
"624 377 OFFCURVE",
"622 261 CURVE SMOOTH",
"617 0 LINE"
);
}
);
};
layerId = "BCC09A48-EAE1-493E-95CB-92D2C26BC05D";
name = "Regular Italic";
paths = (
{
closed = 1;
nodes = (
"627 682 LINE",
"361 119 LINE",
"250 682 LINE",
"205 682 LINE",
"38 0 LINE",
"68 0 LINE",
"153 350 LINE",
"179 458 OFFCURVE",
"214 596 OFFCURVE",
"226 656 CURVE",
"342 83 LINE",
"372 83 LINE",
"646 658 LINE",
"641 589 OFFCURVE",
"636 455 OFFCURVE",
"633 343 CURVE SMOOTH",
"622 0 LINE",
"652 0 LINE",
"675 682 LINE"
);
}
);
width = 764;
},
{
background = {
paths = (
{
closed = 1;
nodes = (
"694 0 LINE",
"721 689 LINE",
"589 689 LINE",
"381 186 LINE",
"377 186 LINE",
"288 689 LINE",
"163 689 LINE",
"22 0 LINE",
"112 0 LINE",
"182 353 LINE SMOOTH",
"200 442 OFFCURVE",
"216 559 OFFCURVE",
"219 582 CURVE",
"223 582 LINE",
"320 73 LINE",
"411 73 LINE",
"627 582 LINE",
"631 582 LINE",
"628 560 OFFCURVE",
"618 450 OFFCURVE",
"615 353 CURVE SMOOTH",
"602 0 LINE"
);
}
);
};
layerId = "A11F629A-ECF3-413E-B2EC-6C6F8C33A243";
name = "Regular Italic";
paths = (
{
closed = 1;
nodes = (
"580 689 LINE",
"376 190 LINE",
"298 689 LINE",
"179 689 LINE",
"25 0 LINE",
"115 0 LINE",
"179 301 LINE SMOOTH",
"201 402 OFFCURVE",
"223 514 OFFCURVE",
"232 590 CURVE",
"315 78 LINE",
"405 78 LINE",
"623 591 LINE",
"616 528 OFFCURVE",
"608 422 OFFCURVE",
"602 314 CURVE SMOOTH",
"582 0 LINE",
"673 0 LINE",
"713 689 LINE"
);
}
);
width = 790;
}
);
leftKerningGroup = M;
rightKerningGroup = M;
unicode = 004D;
},
{
color = 4;
glyphname = N;
lastChange = "2014-04-26 15:52:18 +0100";
layers = (
{
anchors = (
{
name = bottom;
position = "{283, 0}";
},
{
name = top;
position = "{380, 696}";
}
);
background = {
paths = (
{
closed = 1;
nodes = (
"573 0 LINE",
"658 696 LINE",
"478 696 LINE",
"458 530 LINE SMOOTH",
"446 432 OFFCURVE",
"441 339 OFFCURVE",
"441 268 CURVE SMOOTH",
"441 237 OFFCURVE",
"442 209 OFFCURVE",
"444 188 CURVE",
"440 188 LINE",
"344 696 LINE",
"93 696 LINE",
"8 0 LINE",
"188 0 LINE",
"210 181 LINE SMOOTH",
"220 264 OFFCURVE",
"224 352 OFFCURVE",
"224 419 CURVE SMOOTH",
"224 456 OFFCURVE",
"223 488 OFFCURVE",
"221 508 CURVE",
"225 508 LINE",
"317 0 LINE"
);
}
);
};
layerId = UUID0;
rightMetricsKey = H;
name = "Bold Italic";
paths = (
{
closed = 1;
nodes = (
"480 696 LINE",
"450 484 LINE SMOOTH",
"431 348 OFFCURVE",
"435 268 OFFCURVE",
"442 169 CURVE",
"353 696 LINE",
"103 696 LINE",
"6 0 LINE",
"182 0 LINE",
"211 205 LINE SMOOTH",
"230 344 OFFCURVE",
"225 440 OFFCURVE",
"220 527 CURVE",
"305 0 LINE",
"559 0 LINE",
"656 696 LINE"
);
}
);
width = 639;
},
{
anchors = (
{
name = bottom;
position = "{285, 0}";
},
{
name = top;
position = "{390, 680}";
}
);
layerId = "F257A41E-77B2-4FB8-8247-C188CBBE1401";
leftMetricsKey = H;
rightMetricsKey = H;
name = "Light Italic";
paths = (
{
closed = 1;
nodes = (
"581 680 LINE",
"505 136 LINE",
"499 95 OFFCURVE",
"492 45 OFFCURVE",
"486 4 CURVE",
"192 680 LINE",
"189 680 LINE",
"94 0 LINE",
"96 0 LINE",
"176 572 LINE",
"183 622 OFFCURVE",
"187 650 OFFCURVE",
"191 677 CURVE",
"485 0 LINE",
"488 0 LINE",
"583 680 LINE"
);
}
);
width = 654;
},
{
anchors = (
{
name = bottom;
position = "{295, 0}";
},
{
name = top;
position = "{398, 682}";
}
);
background = {
paths = (
{
closed = 1;
nodes = (
"607 685 LINE",
"551 685 LINE",
"521 439 LINE SMOOTH",
"501 274 OFFCURVE",
"486 121 OFFCURVE",
"482 62 CURVE",
"480 62 LINE",
"228 685 LINE",
"155 685 LINE",
"71 0 LINE",
"127 0 LINE",
"163 300 LINE SMOOTH",
"176 410 OFFCURVE",
"192 561 OFFCURVE",
"195 622 CURVE",
"197 622 LINE",
"449 0 LINE",
"523 0 LINE"
);
}
);
};
layerId = "BCC09A48-EAE1-493E-95CB-92D2C26BC05D";
leftMetricsKey = H;
rightMetricsKey = H;
name = "Regular Italic";
paths = (
{
closed = 1;
nodes = (
"573 682 LINE",
"510 233 LINE",
"497 141 OFFCURVE",
"490 76 OFFCURVE",
"487 34 CURVE",
"218 682 LINE",
"179 682 LINE",
"83 0 LINE",
"113 0 LINE",
"175 437 LINE",
"192 556 OFFCURVE",
"198 607 OFFCURVE",
"200 651 CURVE",
"469 0 LINE",
"507 0 LINE",
"603 682 LINE"
);
}
);
width = 664;
},
{
anchors = (
{
name = bottom;
position = "{303, 0}";
},
{
name = top;
position = "{410, 689}";
}
);
background = {
paths = (
{
closed = 1;
nodes = (
"544 0 LINE",
"628 689 LINE",
"539 689 LINE",
"498 353 LINE SMOOTH",
"483 229 OFFCURVE",
"480 119 OFFCURVE",
"480 103 CURVE",
"476 103 LINE",
"272 689 LINE",
"149 689 LINE",
"65 0 LINE",
"155 0 LINE",
"196 336 LINE SMOOTH",
"209 444 OFFCURVE",
"213 567 OFFCURVE",
"213 583 CURVE",
"217 583 LINE",
"418 0 LINE"
);
}
);
};
layerId = "A11F629A-ECF3-413E-B2EC-6C6F8C33A243";
rightMetricsKey = H;
name = "Regular Italic";
paths = (
{
closed = 1;
nodes = (
"549 689 LINE",
"496 316 LINE SMOOTH",
"485 232 OFFCURVE",
"481 172 OFFCURVE",
"481 81 CURVE",
"283 689 LINE",
"159 689 LINE",
"62 0 LINE",
"151 0 LINE",
"195 313 LINE SMOOTH",
"213 441 OFFCURVE",
"220 523 OFFCURVE",
"221 607 CURVE",
"418 0 LINE",
"541 0 LINE",
"638 689 LINE"
);
}
);
width = 677;
}
);
leftKerningGroup = H;
leftMetricsKey = H;
rightKerningGroup = H;
rightMetricsKey = H;
unicode = 004E;
},
{
color = 4;
glyphname = Eng;
lastChange = "2014-05-12 12:19:01 +0100";
layers = (
{
anchors = (
{
name = bottom;
position = "{283, 0}";
},
{
name = top;
position = "{380, 696}";
}
);
background = {
paths = (
{
closed = 1;
nodes = (
"297 -228 LINE",
"485 -167 OFFCURVE",
"562 -89 OFFCURVE",
"585 95 CURVE SMOOTH",
"658 696 LINE",
"478 696 LINE",
"458 530 LINE SMOOTH",
"446 432 OFFCURVE",
"441 339 OFFCURVE",
"441 268 CURVE SMOOTH",
"441 237 OFFCURVE",
"442 209 OFFCURVE",
"444 188 CURVE",
"440 188 LINE",
"344 696 LINE",
"93 696 LINE",
"8 0 LINE",
"188 0 LINE",
"210 181 LINE SMOOTH",
"220 264 OFFCURVE",
"224 352 OFFCURVE",
"224 419 CURVE SMOOTH",
"224 456 OFFCURVE",
"223 488 OFFCURVE",
"221 508 CURVE",
"225 508 LINE",
"317 0 LINE",
"372 0 LINE",
"348 -42 OFFCURVE",
"309 -67 OFFCURVE",
"258 -86 CURVE"
);
}
);
};
layerId = UUID0;
rightMetricsKey = N;
name = "Bold Italic";
paths = (
{
closed = 1;
nodes = (
"397 66 LINE",
"383 -31 OFFCURVE",
"344 -61 OFFCURVE",
"247 -94 CURVE",
"291 -227 LINE",
"452 -188 OFFCURVE",
"543 -112 OFFCURVE",
"559 0 CURVE"
);
},
{
closed = 1;
nodes = (
"480 696 LINE",
"450 484 LINE SMOOTH",
"431 348 OFFCURVE",
"435 268 OFFCURVE",
"442 169 CURVE",
"353 696 LINE",
"103 696 LINE",
"6 0 LINE",
"182 0 LINE",
"211 205 LINE SMOOTH",
"230 344 OFFCURVE",
"225 440 OFFCURVE",
"220 527 CURVE",
"305 0 LINE",
"559 0 LINE",
"656 696 LINE"
);
}
);
width = 639;
},
{
anchors = (
{
name = bottom;
position = "{285, 0}";
},
{
name = top;
position = "{390, 680}";
}
);
background = {
paths = (
{
closed = 1;
nodes = (
"522 680 LINE",
"522 136 LINE",
"522 95 OFFCURVE",
"522 44 OFFCURVE",
"522 3 CURVE",
"521 3 LINE",
"134 680 LINE",
"130 680 LINE",
"130 0 LINE",
"132 0 LINE",
"132 575 LINE",
"132 622 OFFCURVE",
"132 654 OFFCURVE",
"132 677 CURVE",
"133 677 LINE",
"520 0 LINE",
"524 0 LINE",
"524 680 LINE"
);
},
{
closed = 1;
nodes = (
"522 680 LINE",
"522 36 LINE",
"522 25 OFFCURVE",
"522 14 OFFCURVE",
"522 3 CURVE",
"521 3 LINE",
"134 680 LINE",
"130 680 LINE",
"130 0 LINE",
"132 0 LINE",
"132 631 LINE",
"132 648 OFFCURVE",
"132 660 OFFCURVE",
"132 677 CURVE",
"133 677 LINE",
"520 0 LINE",
"522 0 LINE",
"522 -110 OFFCURVE",
"483 -149 OFFCURVE",
"402 -189 CURVE",
"403 -191 LINE",
"485 -150 OFFCURVE",
"524 -112 OFFCURVE",
"524 0 CURVE SMOOTH",
"524 680 LINE"
);
}
);
};
layerId = "F257A41E-77B2-4FB8-8247-C188CBBE1401";
leftMetricsKey = N;
rightMetricsKey = N;
name = "Light Italic";
paths = (
{
closed = 1;
nodes = (
"486 1 LINE",
"470 -117 OFFCURVE",
"436 -153 OFFCURVE",
"362 -189 CURVE",
"363 -191 LINE",
"438 -154 OFFCURVE",
"471 -119 OFFCURVE",
"488 0 CURVE"
);
},
{
closed = 1;
nodes = (
"581 680 LINE",
"505 136 LINE",
"499 95 OFFCURVE",
"492 45 OFFCURVE",
"486 4 CURVE",
"192 680 LINE",
"189 680 LINE",
"94 0 LINE",
"96 0 LINE",
"176 572 LINE",
"183 622 OFFCURVE",
"187 650 OFFCURVE",
"191 677 CURVE",
"485 0 LINE",
"488 0 LINE",
"583 680 LINE"
);
}
);
width = 654;
},
{
anchors = (
{
name = bottom;
position = "{295, 0}";
},
{
name = top;
position = "{398, 682}";
}
);
background = {
paths = (
{
closed = 1;
nodes = (
"607 685 LINE",
"551 685 LINE",
"521 439 LINE SMOOTH",
"501 274 OFFCURVE",
"486 121 OFFCURVE",
"482 62 CURVE",
"480 62 LINE",
"228 685 LINE",
"155 685 LINE",
"71 0 LINE",
"127 0 LINE",
"163 300 LINE SMOOTH",
"176 410 OFFCURVE",
"192 561 OFFCURVE",
"195 622 CURVE",
"197 622 LINE",
"449 0 LINE",
"474 0 LINE",
"461 -83 OFFCURVE",
"425 -123 OFFCURVE",
"332 -160 CURVE",
"341 -206 LINE",
"456 -164 OFFCURVE",
"509 -118 OFFCURVE",
"525 14 CURVE SMOOTH"
);
}
);
};
layerId = "BCC09A48-EAE1-493E-95CB-92D2C26BC05D";
leftMetricsKey = N;
rightMetricsKey = N;
name = "Regular Italic";
paths = (
{
closed = 1;
nodes = (
"482 10 LINE",
"465 -107 OFFCURVE",
"429 -135 OFFCURVE",
"354 -172 CURVE",
"363 -196 LINE",
"449 -156 OFFCURVE",
"489 -123 OFFCURVE",
"507 0 CURVE"
);
},
{
closed = 1;
nodes = (
"573 682 LINE",
"510 233 LINE SMOOTH",
"497 140 OFFCURVE",
"490 76 OFFCURVE",
"487 34 CURVE",
"218 682 LINE",
"179 682 LINE",
"83 0 LINE",
"113 0 LINE",
"175 437 LINE SMOOTH",
"192 556 OFFCURVE",
"198 607 OFFCURVE",
"200 651 CURVE",
"469 0 LINE",
"507 0 LINE",
"603 682 LINE"
);
}
);
width = 664;
},
{
anchors = (
{
name = bottom;
position = "{303, 0}";
},
{
name = top;
position = "{410, 689}";
}
);
background = {
paths = (
{
closed = 1;
nodes = (
"418 0 LINE",
"448 0 LINE",
"434 -70 OFFCURVE",
"403 -106 OFFCURVE",
"320 -135 CURVE",
"339 -213 LINE",
"462 -179 OFFCURVE",
"531 -114 OFFCURVE",
"547 23 CURVE SMOOTH",
"628 689 LINE",
"539 689 LINE",
"498 353 LINE SMOOTH",
"483 229 OFFCURVE",
"480 119 OFFCURVE",
"480 103 CURVE",
"476 103 LINE",
"272 689 LINE",
"149 689 LINE",
"65 0 LINE",
"155 0 LINE",
"196 336 LINE SMOOTH",
"209 444 OFFCURVE",
"213 567 OFFCURVE",
"213 583 CURVE",
"217 583 LINE"
);
}
);
};
layerId = "A11F629A-ECF3-413E-B2EC-6C6F8C33A243";
rightMetricsKey = N;
name = "Regular Italic";
paths = (
{
closed = 1;
nodes = (
"465 29 LINE",
"449 -87 OFFCURVE",
"406 -114 OFFCURVE",
"326 -146 CURVE",
"348 -213 LINE",
"470 -170 OFFCURVE",
"520 -123 OFFCURVE",
"541 0 CURVE"
);
},
{
closed = 1;
nodes = (
"549 689 LINE",
"496 316 LINE SMOOTH",
"485 232 OFFCURVE",
"481 172 OFFCURVE",
"481 81 CURVE",
"283 689 LINE",
"159 689 LINE",
"62 0 LINE",
"151 0 LINE",
"195 313 LINE SMOOTH",
"213 441 OFFCURVE",
"220 523 OFFCURVE",
"221 607 CURVE",
"418 0 LINE",
"541 0 LINE",
"638 689 LINE"
);
}
);
width = 677;
}
);
leftKerningGroup = Eng;
leftMetricsKey = N;
rightKerningGroup = Eng;
rightMetricsKey = J;
unicode = 014A;
},
{
color = 4;
glyphname = O;
lastChange = "2014-04-26 15:52:18 +0100";
layers = (
{
anchors = (
{
name = top;
position = "{399, 696}";
},
{
name = topleft;
position = "{-15, 534}";
}
);
background = {
paths = (
{
closed = 1;
nodes = (
"681 605 OFFCURVE",
"566 716 OFFCURVE",
"385 716 CURVE SMOOTH",
"135 716 OFFCURVE",
"23 506 OFFCURVE",
"23 283 CURVE SMOOTH",
"23 92 OFFCURVE",
"135 -20 OFFCURVE",
"318 -20 CURVE SMOOTH",
"568 -20 OFFCURVE",
"681 191 OFFCURVE",
"681 414 CURVE SMOOTH"
);
},
{
closed = 1;
nodes = (
"261 126 OFFCURVE",
"234 163 OFFCURVE",
"234 257 CURVE SMOOTH",
"234 357 OFFCURVE",
"252 570 OFFCURVE",
"381 570 CURVE SMOOTH",
"443 570 OFFCURVE",
"469 533 OFFCURVE",
"469 438 CURVE SMOOTH",
"469 336 OFFCURVE",
"452 126 OFFCURVE",
"322 126 CURVE SMOOTH"
);
},
{
closed = 1;
nodes = (
"196 716 OFFCURVE",
"63 576 OFFCURVE",
"31 352 CURVE SMOOTH",
"-1 119 OFFCURVE",
"95 -20 OFFCURVE",
"301 -20 CURVE SMOOTH",
"505 -20 OFFCURVE",
"638 122 OFFCURVE",
"670 346 CURVE SMOOTH",
"702 579 OFFCURVE",
"606 716 OFFCURVE",
"400 716 CURVE SMOOTH"
);
},
{
closed = 1;
nodes = (
"459 570 OFFCURVE",
"482 511 OFFCURVE",
"459 352 CURVE SMOOTH",
"437 189 OFFCURVE",
"396 126 OFFCURVE",
"317 126 CURVE SMOOTH",
"242 126 OFFCURVE",
"219 187 OFFCURVE",
"242 346 CURVE SMOOTH",
"264 509 OFFCURVE",
"307 570 OFFCURVE",
"384 570 CURVE SMOOTH"
);
}
);
};
layerId = UUID0;
name = "Bold Italic";
paths = (
{
closed = 1;
nodes = (
"112 716 OFFCURVE",
"25 458 OFFCURVE",
"25 268 CURVE SMOOTH",
"25 89 OFFCURVE",
"121 -20 OFFCURVE",
"301 -20 CURVE",
"591 -20 OFFCURVE",
"676 241 OFFCURVE",
"676 429 CURVE SMOOTH",
"676 609 OFFCURVE",
"580 716 OFFCURVE",
"400 716 CURVE"
);
},
{
closed = 1;
nodes = (
"441 570 OFFCURVE",
"468 536 OFFCURVE",
"468 452 CURVE SMOOTH",
"468 346 OFFCURVE",
"446 126 OFFCURVE",
"317 126 CURVE SMOOTH",
"260 126 OFFCURVE",
"233 161 OFFCURVE",
"233 246 CURVE SMOOTH",
"233 348 OFFCURVE",
"255 570 OFFCURVE",
"384 570 CURVE"
);
}
);
width = 678;
},
{
anchors = (
{
name = top;
position = "{401, 680}";
},
{
name = topleft;
position = "{108, 517}";
}
);
background = {
paths = (
{
closed = 1;
nodes = (
"248 690 OFFCURVE",
"126 557 OFFCURVE",
"96 338 CURVE SMOOTH",
"65 119 OFFCURVE",
"147 -9 OFFCURVE",
"306 -9 CURVE SMOOTH",
"473 -9 OFFCURVE",
"582 120 OFFCURVE",
"614 340 CURVE SMOOTH",
"645 563 OFFCURVE",
"564 690 OFFCURVE",
"403 690 CURVE SMOOTH"
);
},
{
closed = 1;
nodes = (
"563 688 OFFCURVE",
"643 561 OFFCURVE",
"612 340 CURVE SMOOTH",
"581 122 OFFCURVE",
"472 -7 OFFCURVE",
"306 -7 CURVE SMOOTH",
"148 -7 OFFCURVE",
"68 121 OFFCURVE",
"98 338 CURVE SMOOTH",
"128 555 OFFCURVE",
"249 688 OFFCURVE",
"403 688 CURVE SMOOTH"
);
}
);
};
layerId = "F257A41E-77B2-4FB8-8247-C188CBBE1401";
name = "Light Italic";
paths = (
{
closed = 1;
nodes = (
"169 690 OFFCURVE",
"90 418 OFFCURVE",
"90 251 CURVE SMOOTH",
"90 86 OFFCURVE",
"169 -9 OFFCURVE",
"306 -9 CURVE SMOOTH",
"551 -9 OFFCURVE",
"621 261 OFFCURVE",
"621 429 CURVE SMOOTH",
"621 596 OFFCURVE",
"541 690 OFFCURVE",
"403 690 CURVE SMOOTH"
);
},
{
closed = 1;
nodes = (
"540 688 OFFCURVE",
"619 595 OFFCURVE",
"619 429 CURVE SMOOTH",
"619 265 OFFCURVE",
"550 -7 OFFCURVE",
"306 -7 CURVE SMOOTH",
"170 -7 OFFCURVE",
"92 88 OFFCURVE",
"92 253 CURVE SMOOTH",
"92 415 OFFCURVE",
"170 688 OFFCURVE",
"403 688 CURVE SMOOTH"
);
}
);
width = 687;
},
{
anchors = (
{
name = top;
position = "{389, 682}";
},
{
name = topleft;
position = "{78, 520}";
}
);
background = {
paths = (
{
closed = 1;
nodes = (
"622 601 OFFCURVE",
"522 696 OFFCURVE",
"383 696 CURVE SMOOTH",
"209 696 OFFCURVE",
"69 542 OFFCURVE",
"69 267 CURVE SMOOTH",
"69 85 OFFCURVE",
"161 -11 OFFCURVE",
"309 -11 CURVE SMOOTH",
"500 -11 OFFCURVE",
"622 170 OFFCURVE",
"622 417 CURVE SMOOTH"
);
},
{
closed = 1;
nodes = (
"201 40 OFFCURVE",
"131 111 OFFCURVE",
"131 264 CURVE SMOOTH",
"131 521 OFFCURVE",
"247 645 OFFCURVE",
"382 645 CURVE SMOOTH",
"484 645 OFFCURVE",
"560 580 OFFCURVE",
"560 420 CURVE SMOOTH",
"560 163 OFFCURVE",
"444 40 OFFCURVE",
"310 40 CURVE SMOOTH"
);
},
{
closed = 1;
nodes = (
"246 692 OFFCURVE",
"118 566 OFFCURVE",
"86 341 CURVE SMOOTH",
"55 115 OFFCURVE",
"148 -10 OFFCURVE",
"309 -10 CURVE SMOOTH",
"474 -10 OFFCURVE",
"595 117 OFFCURVE",
"626 338 CURVE SMOOTH",
"659 570 OFFCURVE",
"566 692 OFFCURVE",
"404 692 CURVE SMOOTH"
);
},
{
closed = 1;
nodes = (
"546 663 OFFCURVE",
"625 557 OFFCURVE",
"595 342 CURVE SMOOTH",
"565 130 OFFCURVE",
"458 19 OFFCURVE",
"309 19 CURVE SMOOTH",
"170 19 OFFCURVE",
"88 128 OFFCURVE",
"118 337 CURVE SMOOTH",
"148 553 OFFCURVE",
"262 663 OFFCURVE",
"404 663 CURVE"
);
}
);
};
layerId = "BCC09A48-EAE1-493E-95CB-92D2C26BC05D";
name = "Regular Italic";
paths = (
{
closed = 1;
nodes = (
"163 692 OFFCURVE",
"80 430 OFFCURVE",
"80 259 CURVE SMOOTH",
"80 85 OFFCURVE",
"169 -10 OFFCURVE",
"309 -10 CURVE SMOOTH",
"554 -10 OFFCURVE",
"633 250 OFFCURVE",
"633 426 CURVE SMOOTH",
"633 601 OFFCURVE",
"544 692 OFFCURVE",
"405 692 CURVE SMOOTH"
);
},
{
closed = 1;
nodes = (
"526 664 OFFCURVE",
"601 585 OFFCURVE",
"601 427 CURVE SMOOTH",
"601 270 OFFCURVE",
"538 19 OFFCURVE",
"309 19 CURVE SMOOTH",
"189 19 OFFCURVE",
"112 100 OFFCURVE",
"112 256 CURVE SMOOTH",
"112 415 OFFCURVE",
"182 664 OFFCURVE",
"404 664 CURVE"
);
}
);
width = 690;
},
{
anchors = (
{
name = top;
position = "{407, 689}";
},
{
name = topleft;
position = "{68, 534}";
}
);
background = {
paths = (
{
closed = 1;
nodes = (
"642 603 OFFCURVE",
"538 701 OFFCURVE",
"387 701 CURVE SMOOTH",
"155 701 OFFCURVE",
"61 470 OFFCURVE",
"61 271 CURVE SMOOTH",
"61 84 OFFCURVE",
"165 -12 OFFCURVE",
"316 -12 CURVE SMOOTH",
"548 -12 OFFCURVE",
"642 215 OFFCURVE",
"642 416 CURVE SMOOTH"
);
},
{
closed = 1;
nodes = (
"223 66 OFFCURVE",
"161 121 OFFCURVE",
"161 266 CURVE SMOOTH",
"161 416 OFFCURVE",
"209 623 OFFCURVE",
"386 623 CURVE SMOOTH",
"482 623 OFFCURVE",
"541 567 OFFCURVE",
"541 425 CURVE SMOOTH",
"541 272 OFFCURVE",
"496 66 OFFCURVE",
"317 66 CURVE SMOOTH"
);
},
{
closed = 1;
nodes = (
"232 701 OFFCURVE",
"98 573 OFFCURVE",
"67 348 CURVE SMOOTH",
"34 115 OFFCURVE",
"136 -12 OFFCURVE",
"308 -12 CURVE SMOOTH",
"477 -12 OFFCURVE",
"610 113 OFFCURVE",
"642 339 CURVE SMOOTH",
"674 573 OFFCURVE",
"573 701 OFFCURVE",
"400 701 CURVE SMOOTH"
);
},
{
closed = 1;
nodes = (
"513 623 OFFCURVE",
"571 545 OFFCURVE",
"543 349 CURVE SMOOTH",
"515 147 OFFCURVE",
"428 66 OFFCURVE",
"311 66 CURVE SMOOTH",
"202 66 OFFCURVE",
"138 141 OFFCURVE",
"165 338 CURVE SMOOTH",
"194 539 OFFCURVE",
"282 623 OFFCURVE",
"398 623 CURVE SMOOTH"
);
}
);
};
layerId = "A11F629A-ECF3-413E-B2EC-6C6F8C33A243";
name = "Regular Italic";
paths = (
{
closed = 1;
nodes = (
"147 701 OFFCURVE",
"61 441 OFFCURVE",
"61 265 CURVE SMOOTH",
"61 85 OFFCURVE",
"158 -12 OFFCURVE",
"308 -12 CURVE SMOOTH",
"562 -12 OFFCURVE",
"648 239 OFFCURVE",
"648 421 CURVE SMOOTH",
"648 603 OFFCURVE",
"552 701 OFFCURVE",
"402 701 CURVE SMOOTH"
);
},
{
closed = 1;
nodes = (
"494 623 OFFCURVE",
"550 566 OFFCURVE",
"550 438 CURVE SMOOTH",
"550 288 OFFCURVE",
"500 66 OFFCURVE",
"311 66 CURVE SMOOTH",
"219 66 OFFCURVE",
"159 120 OFFCURVE",
"159 255 CURVE SMOOTH",
"159 403 OFFCURVE",
"211 623 OFFCURVE",
"398 623 CURVE SMOOTH"
);
}
);
width = 686;
}
);
leftKerningGroup = O;
rightKerningGroup = O;
unicode = 004F;
},
{
color = 4;
glyphname = Oslash;
lastChange = "2014-04-26 15:52:18 +0100";
layers = (
{
anchors = (
{
name = top;
position = "{406, 741}";
},
{
name = topleft;
position = "{162, 696}";
}
);
background = {
paths = (
{
closed = 1;
nodes = (
"196 716 OFFCURVE",
"63 576 OFFCURVE",
"31 352 CURVE SMOOTH",
"-1 119 OFFCURVE",
"95 -20 OFFCURVE",
"301 -20 CURVE SMOOTH",
"505 -20 OFFCURVE",
"638 122 OFFCURVE",
"670 346 CURVE SMOOTH",
"702 579 OFFCURVE",
"606 716 OFFCURVE",
"400 716 CURVE SMOOTH"
);
},
{
closed = 1;
nodes = (
"459 570 OFFCURVE",
"487 541 OFFCURVE",
"459 352 CURVE SMOOTH",
"437 189 OFFCURVE",
"396 126 OFFCURVE",
"317 126 CURVE SMOOTH",
"242 126 OFFCURVE",
"215 157 OFFCURVE",
"242 346 CURVE SMOOTH",
"264 509 OFFCURVE",
"307 570 OFFCURVE",
"384 570 CURVE SMOOTH"
);
}
);
};
layerId = UUID0;
name = "Bold Italic";
paths = (
{
closed = 1;
nodes = (
"436 709 LINE",
"407 590 LINE",
"229 180 LINE",
"125 33 LINE",
"65 -99 LINE",
"208 -139 LINE",
"264 -12 LINE",
"299 112 LINE",
"480 532 LINE",
"576 664 LINE",
"635 793 LINE",
"493 833 LINE"
);
},
{
closed = 1;
nodes = (
"112 716 OFFCURVE",
"25 458 OFFCURVE",
"25 268 CURVE SMOOTH",
"25 89 OFFCURVE",
"121 -20 OFFCURVE",
"301 -20 CURVE",
"591 -20 OFFCURVE",
"676 241 OFFCURVE",
"676 429 CURVE SMOOTH",
"676 609 OFFCURVE",
"580 716 OFFCURVE",
"400 716 CURVE"
);
},
{
closed = 1;
nodes = (
"441 570 OFFCURVE",
"472 566 OFFCURVE",
"472 452 CURVE SMOOTH",
"472 346 OFFCURVE",
"446 126 OFFCURVE",
"317 126 CURVE SMOOTH",
"260 126 OFFCURVE",
"228 129 OFFCURVE",
"228 246 CURVE SMOOTH",
"228 348 OFFCURVE",
"255 570 OFFCURVE",
"384 570 CURVE"
);
}
);
width = 678;
},
{
anchors = (
{
name = top;
position = "{403, 680}";
}
);
layerId = "F257A41E-77B2-4FB8-8247-C188CBBE1401";
rightMetricsKey = O;
name = "Light Italic";
paths = (
{
closed = 1;
nodes = (
"496 672 LINE",
"496 672 LINE",
"212 11 LINE",
"212 11 LINE",
"162 -102 LINE",
"164 -103 LINE",
"214 10 LINE",
"214 10 LINE",
"498 671 LINE",
"498 671 LINE",
"548 786 LINE",
"547 787 LINE"
);
},
{
closed = 1;
nodes = (
"169 690 OFFCURVE",
"90 418 OFFCURVE",
"90 251 CURVE SMOOTH",
"90 86 OFFCURVE",
"169 -9 OFFCURVE",
"306 -9 CURVE SMOOTH",
"551 -9 OFFCURVE",
"621 261 OFFCURVE",
"621 429 CURVE SMOOTH",
"621 596 OFFCURVE",
"541 690 OFFCURVE",
"403 690 CURVE SMOOTH"
);
},
{
closed = 1;
nodes = (
"540 688 OFFCURVE",
"619 595 OFFCURVE",
"619 429 CURVE SMOOTH",
"619 265 OFFCURVE",
"550 -7 OFFCURVE",
"306 -7 CURVE SMOOTH",
"170 -7 OFFCURVE",
"92 88 OFFCURVE",
"92 253 CURVE SMOOTH",
"92 415 OFFCURVE",
"170 688 OFFCURVE",
"403 688 CURVE SMOOTH"
);
}
);
width = 687;
},
{
anchors = (
{
name = top;
position = "{398, 692}";
},
{
name = topleft;
position = "{162, 682}";
}
);
background = {
paths = (
{
closed = 1;
nodes = (
"622 540 OFFCURVE",
"577 624 OFFCURVE",
"505 665 CURVE",
"562 796 LINE",
"511 810 LINE",
"459 685 LINE",
"435 692 OFFCURVE",
"410 696 OFFCURVE",
"383 696 CURVE SMOOTH",
"209 696 OFFCURVE",
"69 542 OFFCURVE",
"69 267 CURVE SMOOTH",
"69 144 OFFCURVE",
"110 60 OFFCURVE",
"183 19 CURVE",
"127 -107 LINE",
"179 -121 LINE",
"228 0 LINE",
"253 -7 OFFCURVE",
"280 -11 OFFCURVE",
"309 -11 CURVE SMOOTH",
"500 -11 OFFCURVE",
"622 170 OFFCURVE",
"622 417 CURVE SMOOTH"
);
},
{
closed = 1;
nodes = (
"288 40 OFFCURVE",
"267 42 OFFCURVE",
"249 48 CURVE",
"482 616 LINE",
"530 583 OFFCURVE",
"560 520 OFFCURVE",
"560 420 CURVE SMOOTH",
"560 163 OFFCURVE",
"444 40 OFFCURVE",
"310 40 CURVE SMOOTH"
);
},
{
closed = 1;
nodes = (
"131 521 OFFCURVE",
"247 645 OFFCURVE",
"382 645 CURVE SMOOTH",
"403 645 OFFCURVE",
"423 642 OFFCURVE",
"441 636 CURVE",
"207 69 LINE",
"159 103 OFFCURVE",
"131 167 OFFCURVE",
"131 264 CURVE SMOOTH"
);
}
);
};
layerId = "BCC09A48-EAE1-493E-95CB-92D2C26BC05D";
leftMetricsKey = O;
rightMetricsKey = O;
name = "Regular Italic";
paths = (
{
closed = 1;
nodes = (
"487 675 LINE",
"480 656 LINE",
"209 34 LINE",
"201 20 LINE",
"145 -105 LINE",
"172 -114 LINE",
"225 9 LINE",
"231 27 LINE",
"501 648 LINE",
"510 664 LINE",
"568 794 LINE",
"540 803 LINE"
);
},
{
closed = 1;
nodes = (
"163 692 OFFCURVE",
"80 430 OFFCURVE",
"80 259 CURVE SMOOTH",
"80 85 OFFCURVE",
"169 -10 OFFCURVE",
"309 -10 CURVE SMOOTH",
"554 -10 OFFCURVE",
"633 250 OFFCURVE",
"633 426 CURVE SMOOTH",
"633 601 OFFCURVE",
"544 692 OFFCURVE",
"405 692 CURVE SMOOTH"
);
},
{
closed = 1;
nodes = (
"526 664 OFFCURVE",
"601 585 OFFCURVE",
"601 427 CURVE SMOOTH",
"601 270 OFFCURVE",
"538 19 OFFCURVE",
"309 19 CURVE SMOOTH",
"189 19 OFFCURVE",
"112 100 OFFCURVE",
"112 256 CURVE SMOOTH",
"112 415 OFFCURVE",
"182 664 OFFCURVE",
"404 664 CURVE"
);
}
);
width = 690;
},
{
anchors = (
{
name = top;
position = "{400, 704}";
},
{
name = topleft;
position = "{172, 689}";
}
);
background = {
paths = (
{
closed = 1;
nodes = (
"642 536 OFFCURVE",
"599 619 OFFCURVE",
"529 663 CURVE",
"587 798 LINE",
"507 819 LINE",
"455 693 LINE",
"433 698 OFFCURVE",
"411 701 OFFCURVE",
"387 701 CURVE SMOOTH",
"155 701 OFFCURVE",
"61 470 OFFCURVE",
"61 271 CURVE SMOOTH",
"61 152 OFFCURVE",
"103 69 OFFCURVE",
"173 25 CURVE",
"114 -110 LINE",
"194 -131 LINE",
"247 -4 LINE",
"269 -9 OFFCURVE",
"292 -12 OFFCURVE",
"316 -12 CURVE SMOOTH",
"548 -12 OFFCURVE",
"642 215 OFFCURVE",
"642 416 CURVE SMOOTH"
);
},
{
closed = 1;
nodes = (
"301 66 OFFCURVE",
"285 67 OFFCURVE",
"271 70 CURVE",
"486 591 LINE",
"521 561 OFFCURVE",
"541 506 OFFCURVE",
"541 425 CURVE SMOOTH",
"541 272 OFFCURVE",
"496 66 OFFCURVE",
"317 66 CURVE SMOOTH"
);
},
{
closed = 1;
nodes = (
"161 416 OFFCURVE",
"209 623 OFFCURVE",
"386 623 CURVE SMOOTH",
"401 623 OFFCURVE",
"417 621 OFFCURVE",
"430 618 CURVE",
"215 99 LINE",
"181 129 OFFCURVE",
"161 184 OFFCURVE",
"161 266 CURVE SMOOTH"
);
}
);
};
layerId = "A11F629A-ECF3-413E-B2EC-6C6F8C33A243";
rightMetricsKey = O;
name = "Regular Italic";
paths = (
{
closed = 1;
nodes = (
"465 689 LINE",
"445 626 LINE",
"207 86 LINE",
"172 32 LINE",
"111 -106 LINE",
"188 -127 LINE",
"243 0 LINE",
"263 63 LINE",
"501 606 LINE",
"535 657 LINE",
"599 798 LINE",
"522 819 LINE"
);
},
{
closed = 1;
nodes = (
"147 701 OFFCURVE",
"61 441 OFFCURVE",
"61 265 CURVE SMOOTH",
"61 85 OFFCURVE",
"158 -12 OFFCURVE",
"308 -12 CURVE SMOOTH",
"562 -12 OFFCURVE",
"648 239 OFFCURVE",
"648 421 CURVE SMOOTH",
"648 603 OFFCURVE",
"552 701 OFFCURVE",
"402 701 CURVE SMOOTH"
);
},
{
closed = 1;
nodes = (
"494 623 OFFCURVE",
"550 576 OFFCURVE",
"550 438 CURVE SMOOTH",
"550 288 OFFCURVE",
"500 66 OFFCURVE",
"311 66 CURVE SMOOTH",
"219 66 OFFCURVE",
"159 110 OFFCURVE",
"159 255 CURVE SMOOTH",
"159 403 OFFCURVE",
"211 623 OFFCURVE",
"398 623 CURVE SMOOTH"
);
}
);
width = 686;
}
);
leftKerningGroup = O;
leftMetricsKey = O;
rightKerningGroup = O;
rightMetricsKey = O;
unicode = 00D8;
},
{
color = 4;
glyphname = OE;
lastChange = "2014-04-26 15:52:18 +0100";
layers = (
{
background = {
paths = (
{
closed = 1;
nodes = (
"929 553 LINE",
"968 696 LINE",
"508 696 LINE",
"474 709 OFFCURVE",
"435 716 OFFCURVE",
"392 716 CURVE SMOOTH",
"152 716 OFFCURVE",
"40 506 OFFCURVE",
"40 283 CURVE SMOOTH",
"40 92 OFFCURVE",
"152 -20 OFFCURVE",
"325 -20 CURVE SMOOTH",
"369 -20 OFFCURVE",
"407 -13 OFFCURVE",
"442 0 CURVE",
"878 0 LINE",
"895 143 LINE",
"605 143 LINE",
"630 184 OFFCURVE",
"648 230 OFFCURVE",
"660 280 CURVE",
"868 280 LINE",
"885 423 LINE",
"676 423 LINE",
"675 472 OFFCURVE",
"665 515 OFFCURVE",
"649 553 CURVE"
);
},
{
closed = 1;
nodes = (
"278 126 OFFCURVE",
"251 163 OFFCURVE",
"251 257 CURVE SMOOTH",
"251 357 OFFCURVE",
"269 570 OFFCURVE",
"388 570 CURVE SMOOTH",
"440 570 OFFCURVE",
"466 533 OFFCURVE",
"466 438 CURVE SMOOTH",
"466 336 OFFCURVE",
"449 126 OFFCURVE",
"329 126 CURVE SMOOTH"
);
},
{
closed = 1;
nodes = (
"195 716 OFFCURVE",
"63 576 OFFCURVE",
"31 352 CURVE SMOOTH",
"-1 119 OFFCURVE",
"94 -20 OFFCURVE",
"283 -20 CURVE SMOOTH",
"363 -20 OFFCURVE",
"436 8 OFFCURVE",
"488 67 CURVE",
"577 124 OFFCURVE",
"633 236 OFFCURVE",
"649 346 CURVE SMOOTH",
"665 464 OFFCURVE",
"638 575 OFFCURVE",
"557 638 CURVE",
"528 688 OFFCURVE",
"463 716 OFFCURVE",
"382 716 CURVE SMOOTH"
);
},
{
closed = 1;
nodes = (
"545 144 LINE",
"382 0 LINE",
"831 0 LINE",
"851 144 LINE"
);
},
{
closed = 1;
nodes = (
"642 423 LINE",
"624 284 LINE",
"827 284 LINE",
"845 423 LINE"
);
},
{
closed = 1;
nodes = (
"479 696 LINE",
"611 553 LINE",
"892 553 LINE",
"932 696 LINE"
);
},
{
closed = 1;
nodes = (
"439 570 OFFCURVE",
"461 511 OFFCURVE",
"438 352 CURVE SMOOTH",
"416 189 OFFCURVE",
"376 126 OFFCURVE",
"306 126 CURVE SMOOTH",
"241 126 OFFCURVE",
"218 187 OFFCURVE",
"241 346 CURVE SMOOTH",
"263 509 OFFCURVE",
"306 570 OFFCURVE",
"373 570 CURVE SMOOTH"
);
}
);
};
layerId = UUID0;
rightMetricsKey = E;
name = "Bold Italic";
paths = (
{
closed = 1;
nodes = (
"113 716 OFFCURVE",
"25 454 OFFCURVE",
"25 267 CURVE SMOOTH",
"25 86 OFFCURVE",
"118 -20 OFFCURVE",
"283 -20 CURVE SMOOTH",
"363 -20 OFFCURVE",
"436 8 OFFCURVE",
"488 67 CURVE",
"625 155 OFFCURVE",
"650 292 OFFCURVE",
"650 405 CURVE SMOOTH",
"650 503 OFFCURVE",
"623 586 OFFCURVE",
"557 638 CURVE",
"528 688 OFFCURVE",
"463 716 OFFCURVE",
"382 716 CURVE SMOOTH"
);
},
{
closed = 1;
nodes = (
"545 144 LINE",
"382 0 LINE",
"831 0 LINE",
"851 144 LINE"
);
},
{
closed = 1;
nodes = (
"642 423 LINE",
"624 284 LINE",
"827 284 LINE",
"845 423 LINE"
);
},
{
closed = 1;
nodes = (
"439 696 LINE",
"571 553 LINE",
"892 553 LINE",
"932 696 LINE"
);
},
{
closed = 1;
nodes = (
"421 570 OFFCURVE",
"447 537 OFFCURVE",
"447 455 CURVE SMOOTH",
"447 306 OFFCURVE",
"417 126 OFFCURVE",
"306 126 CURVE SMOOTH",
"257 126 OFFCURVE",
"232 160 OFFCURVE",
"232 244 CURVE SMOOTH",
"232 390 OFFCURVE",
"258 570 OFFCURVE",
"372 570 CURVE SMOOTH"
);
}
);
width = 890;
},
{
background = {
paths = (
{
closed = 1;
nodes = (
"243 690 OFFCURVE",
"127 557 OFFCURVE",
"97 338 CURVE SMOOTH",
"66 119 OFFCURVE",
"142 -9 OFFCURVE",
"288 -9 CURVE SMOOTH",
"317 -9 OFFCURVE",
"340 -5 OFFCURVE",
"361 1 CURVE",
"479 35 OFFCURVE",
"558 156 OFFCURVE",
"588 361 CURVE SMOOTH",
"610 525 OFFCURVE",
"565 644 OFFCURVE",
"458 679 CURVE",
"441 685 OFFCURVE",
"414 690 OFFCURVE",
"385 690 CURVE SMOOTH"
);
},
{
closed = 1;
nodes = (
"362 2 LINE",
"357 0 LINE",
"753 0 LINE",
"753 2 LINE"
);
},
{
closed = 1;
nodes = (
"586 362 LINE",
"586 360 LINE",
"751 360 LINE",
"751 362 LINE"
);
},
{
closed = 1;
nodes = (
"454 680 LINE",
"459 678 LINE",
"838 678 LINE",
"838 680 LINE"
);
},
{
closed = 1;
nodes = (
"539 688 OFFCURVE",
"614 561 OFFCURVE",
"586 361 CURVE SMOOTH",
"552 122 OFFCURVE",
"448 -7 OFFCURVE",
"288 -7 CURVE SMOOTH",
"143 -7 OFFCURVE",
"69 121 OFFCURVE",
"99 338 CURVE SMOOTH",
"129 555 OFFCURVE",
"244 688 OFFCURVE",
"385 688 CURVE SMOOTH"
);
}
);
};
layerId = "F257A41E-77B2-4FB8-8247-C188CBBE1401";
leftMetricsKey = O;
rightMetricsKey = E;
name = "Light Italic";
paths = (
{
closed = 1;
nodes = (
"171 690 OFFCURVE",
"90 418 OFFCURVE",
"90 247 CURVE SMOOTH",
"90 84 OFFCURVE",
"163 -9 OFFCURVE",
"288 -9 CURVE SMOOTH",
"317 -9 OFFCURVE",
"340 -5 OFFCURVE",
"361 1 CURVE",
"538 52 OFFCURVE",
"593 297 OFFCURVE",
"593 438 CURVE SMOOTH",
"593 562 OFFCURVE",
"547 650 OFFCURVE",
"458 679 CURVE",
"441 685 OFFCURVE",
"414 690 OFFCURVE",
"385 690 CURVE SMOOTH"
);
},
{
closed = 1;
nodes = (
"362 2 LINE",
"357 0 LINE",
"753 0 LINE",
"753 2 LINE"
);
},
{
closed = 1;
nodes = (
"588 362 LINE",
"588 360 LINE",
"751 360 LINE",
"751 362 LINE"
);
},
{
closed = 1;
nodes = (
"454 680 LINE",
"459 678 LINE",
"838 678 LINE",
"838 680 LINE"
);
},
{
closed = 1;
nodes = (
"517 688 OFFCURVE",
"591 594 OFFCURVE",
"591 438 CURVE SMOOTH",
"591 287 OFFCURVE",
"527 -7 OFFCURVE",
"288 -7 CURVE SMOOTH",
"164 -7 OFFCURVE",
"92 86 OFFCURVE",
"92 248 CURVE SMOOTH",
"92 412 OFFCURVE",
"171 688 OFFCURVE",
"385 688 CURVE SMOOTH"
);
}
);
width = 839;
},
{
background = {
paths = (
{
closed = 1;
nodes = (
"596 504 OFFCURVE",
"571 586 OFFCURVE",
"522 635 CURVE",
"855 635 LINE",
"869 685 LINE",
"446 685 LINE",
"424 692 OFFCURVE",
"400 696 OFFCURVE",
"375 696 CURVE SMOOTH",
"206 696 OFFCURVE",
"68 542 OFFCURVE",
"68 267 CURVE SMOOTH",
"68 85 OFFCURVE",
"158 -11 OFFCURVE",
"302 -11 CURVE SMOOTH",
"328 -11 OFFCURVE",
"352 -7 OFFCURVE",
"375 0 CURVE",
"793 0 LINE",
"799 50 LINE",
"463 50 LINE",
"534 112 OFFCURVE",
"577 214 OFFCURVE",
"591 330 CURVE",
"780 330 LINE",
"786 380 LINE",
"595 380 LINE",
"596 391 OFFCURVE",
"596 402 OFFCURVE",
"596 414 CURVE SMOOTH"
);
},
{
closed = 1;
nodes = (
"199 40 OFFCURVE",
"130 111 OFFCURVE",
"130 264 CURVE SMOOTH",
"130 521 OFFCURVE",
"243 645 OFFCURVE",
"374 645 CURVE SMOOTH",
"468 645 OFFCURVE",
"539 577 OFFCURVE",
"539 417 CURVE SMOOTH",
"539 162 OFFCURVE",
"430 40 OFFCURVE",
"303 40 CURVE SMOOTH"
);
}
);
};
layerId = "BCC09A48-EAE1-493E-95CB-92D2C26BC05D";
rightMetricsKey = E;
name = "Regular Italic";
paths = (
{
closed = 1;
nodes = (
"167 692 OFFCURVE",
"80 426 OFFCURVE",
"80 258 CURVE SMOOTH",
"80 85 OFFCURVE",
"168 -10 OFFCURVE",
"299 -10 CURVE SMOOTH",
"336 -10 OFFCURVE",
"374 -1 OFFCURVE",
"407 17 CURVE",
"561 83 OFFCURVE",
"613 288 OFFCURVE",
"613 429 CURVE SMOOTH",
"613 548 OFFCURVE",
"570 627 OFFCURVE",
"496 665 CURVE",
"471 683 OFFCURVE",
"435 692 OFFCURVE",
"394 692 CURVE SMOOTH"
);
},
{
closed = 1;
nodes = (
"408 29 LINE",
"359 0 LINE",
"771 0 LINE",
"776 29 LINE"
);
},
{
closed = 1;
nodes = (
"600 373 LINE",
"596 345 LINE",
"770 345 LINE",
"774 373 LINE"
);
},
{
closed = 1;
nodes = (
"458 682 LINE",
"485 653 LINE",
"853 653 LINE",
"861 682 LINE"
);
},
{
closed = 1;
nodes = (
"508 664 OFFCURVE",
"582 584 OFFCURVE",
"582 431 CURVE SMOOTH",
"582 280 OFFCURVE",
"516 19 OFFCURVE",
"299 19 CURVE SMOOTH",
"188 19 OFFCURVE",
"112 100 OFFCURVE",
"112 255 CURVE SMOOTH",
"112 414 OFFCURVE",
"185 664 OFFCURVE",
"394 664 CURVE"
);
}
);
width = 848;
},
{
anchors = (
{
name = top;
position = "{504, 689}";
}
);
background = {
paths = (
{
closed = 1;
nodes = (
"618 499 OFFCURVE",
"596 566 OFFCURVE",
"558 614 CURVE",
"878 614 LINE",
"898 689 LINE",
"453 689 LINE",
"429 697 OFFCURVE",
"403 701 OFFCURVE",
"377 701 CURVE SMOOTH",
"155 701 OFFCURVE",
"61 470 OFFCURVE",
"61 271 CURVE SMOOTH",
"61 84 OFFCURVE",
"155 -12 OFFCURVE",
"306 -12 CURVE SMOOTH",
"335 -12 OFFCURVE",
"362 -8 OFFCURVE",
"387 0 CURVE",
"822 0 LINE",
"831 75 LINE",
"503 75 LINE",
"559 136 OFFCURVE",
"594 222 OFFCURVE",
"609 312 CURVE",
"806 312 LINE",
"815 387 LINE",
"617 387 LINE",
"618 396 OFFCURVE",
"618 406 OFFCURVE",
"618 416 CURVE SMOOTH"
);
},
{
closed = 1;
nodes = (
"213 66 OFFCURVE",
"161 121 OFFCURVE",
"161 266 CURVE SMOOTH",
"161 416 OFFCURVE",
"209 623 OFFCURVE",
"376 623 CURVE SMOOTH",
"462 623 OFFCURVE",
"521 567 OFFCURVE",
"521 425 CURVE SMOOTH",
"521 272 OFFCURVE",
"476 66 OFFCURVE",
"307 66 CURVE SMOOTH"
);
},
{
closed = 1;
nodes = (
"232 701 OFFCURVE",
"98 573 OFFCURVE",
"67 348 CURVE SMOOTH",
"34 115 OFFCURVE",
"136 -12 OFFCURVE",
"295 -12 CURVE SMOOTH",
"343 -12 OFFCURVE",
"395 2 OFFCURVE",
"434 34 CURVE",
"537 91 OFFCURVE",
"602 201 OFFCURVE",
"622 339 CURVE SMOOTH",
"641 480 OFFCURVE",
"610 591 OFFCURVE",
"531 641 CURVE",
"498 681 OFFCURVE",
"446 701 OFFCURVE",
"387 701 CURVE SMOOTH"
);
},
{
closed = 1;
nodes = (
"470 76 LINE",
"364 0 LINE",
"798 0 LINE",
"809 76 LINE"
);
},
{
closed = 1;
nodes = (
"563 388 LINE",
"553 312 LINE",
"789 312 LINE",
"799 388 LINE"
);
},
{
closed = 1;
nodes = (
"463 689 LINE",
"556 613 LINE",
"866 613 LINE",
"887 689 LINE"
);
},
{
closed = 1;
nodes = (
"493 623 OFFCURVE",
"551 545 OFFCURVE",
"523 349 CURVE SMOOTH",
"495 147 OFFCURVE",
"408 66 OFFCURVE",
"301 66 CURVE SMOOTH",
"202 66 OFFCURVE",
"138 141 OFFCURVE",
"165 338 CURVE SMOOTH",
"194 539 OFFCURVE",
"282 623 OFFCURVE",
"388 623 CURVE SMOOTH"
);
}
);
};
layerId = "A11F629A-ECF3-413E-B2EC-6C6F8C33A243";
name = "Regular Italic";
paths = (
{
closed = 1;
nodes = (
"151 701 OFFCURVE",
"61 439 OFFCURVE",
"61 264 CURVE SMOOTH",
"61 85 OFFCURVE",
"156 -12 OFFCURVE",
"295 -12 CURVE SMOOTH",
"343 -12 OFFCURVE",
"395 2 OFFCURVE",
"434 34 CURVE",
"581 115 OFFCURVE",
"627 287 OFFCURVE",
"627 416 CURVE SMOOTH",
"627 520 OFFCURVE",
"595 601 OFFCURVE",
"531 641 CURVE",
"498 681 OFFCURVE",
"446 701 OFFCURVE",
"387 701 CURVE SMOOTH"
);
},
{
closed = 1;
nodes = (
"470 76 LINE",
"364 0 LINE",
"798 0 LINE",
"809 76 LINE"
);
},
{
closed = 1;
nodes = (
"563 388 LINE",
"553 312 LINE",
"789 312 LINE",
"799 388 LINE"
);
},
{
closed = 1;
nodes = (
"463 689 LINE",
"556 613 LINE",
"866 613 LINE",
"887 689 LINE"
);
},
{
closed = 1;
nodes = (
"475 623 OFFCURVE",
"530 569 OFFCURVE",
"530 439 CURVE SMOOTH",
"530 291 OFFCURVE",
"479 66 OFFCURVE",
"301 66 CURVE SMOOTH",
"217 66 OFFCURVE",
"159 119 OFFCURVE",
"159 255 CURVE SMOOTH",
"159 394 OFFCURVE",
"212 623 OFFCURVE",
"388 623 CURVE SMOOTH"
);
}
);
width = 900.651;
}
);
leftKerningGroup = O;
leftMetricsKey = O;
rightKerningGroup = E;
rightMetricsKey = auto;
unicode = 0152;
},
{
color = 4;
glyphname = P;
lastChange = "2014-04-26 15:52:18 +0100";
layers = (
{
background = {
paths = (
{
closed = 1;
nodes = (
"259 362 LINE",
"282 553 LINE",
"310 553 LINE SMOOTH",
"379 553 OFFCURVE",
"409 529 OFFCURVE",
"409 481 CURVE SMOOTH",
"409 411 OFFCURVE",
"365 362 OFFCURVE",
"299 362 CURVE SMOOTH"
);
},
{
closed = 1;
nodes = (
"620 614 OFFCURVE",
"526 696 OFFCURVE",
"329 696 CURVE SMOOTH",
"94 696 LINE",
"9 0 LINE",
"215 0 LINE",
"241 217 LINE",
"309 217 LINE SMOOTH",
"498 217 OFFCURVE",
"620 326 OFFCURVE",
"620 487 CURVE SMOOTH"
);
},
{
closed = 1;
nodes = (
"285 553 LINE",
"328 553 LINE SMOOTH",
"394 553 OFFCURVE",
"415 520 OFFCURVE",
"407 465 CURVE SMOOTH",
"397 395 OFFCURVE",
"361 362 OFFCURVE",
"304 362 CURVE SMOOTH",
"243 362 LINE",
"223 217 LINE",
"306 217 LINE SMOOTH",
"468 217 OFFCURVE",
"590 298 OFFCURVE",
"614 459 CURVE SMOOTH",
"635 617 OFFCURVE",
"532 696 OFFCURVE",
"349 696 CURVE SMOOTH",
"103 696 LINE",
"6 0 LINE",
"208 0 LINE"
);
}
);
};
layerId = UUID0;
name = "Bold Italic";
paths = (
{
closed = 1;
nodes = (
"285 553 LINE",
"328 553 LINE SMOOTH",
"385 553 OFFCURVE",
"409 528 OFFCURVE",
"409 483 CURVE SMOOTH",
"409 438 OFFCURVE",
"389 362 OFFCURVE",
"304 362 CURVE SMOOTH",
"243 362 LINE",
"223 217 LINE",
"306 217 LINE SMOOTH",
"534 217 OFFCURVE",
"617 370 OFFCURVE",
"617 495 CURVE SMOOTH",
"617 627 OFFCURVE",
"516 696 OFFCURVE",
"349 696 CURVE SMOOTH",
"103 696 LINE",
"6 0 LINE",
"208 0 LINE"
);
}
);
width = 600;
},
{
background = {
paths = (
{
closed = 1;
nodes = (
"191 678 LINE",
"311 678 LINE SMOOTH",
"469 678 OFFCURVE",
"536 621 OFFCURVE",
"517 485 CURVE SMOOTH",
"497 347 OFFCURVE",
"399 293 OFFCURVE",
"254 293 CURVE SMOOTH",
"136 293 LINE",
"135 291 LINE",
"253 291 LINE SMOOTH",
"400 291 OFFCURVE",
"499 346 OFFCURVE",
"519 485 CURVE SMOOTH",
"538 622 OFFCURVE",
"470 680 OFFCURVE",
"311 680 CURVE SMOOTH",
"189 680 LINE",
"94 0 LINE",
"96 0 LINE"
);
}
);
};
layerId = "F257A41E-77B2-4FB8-8247-C188CBBE1401";
leftMetricsKey = H;
name = "Light Italic";
paths = (
{
closed = 1;
nodes = (
"191 678 LINE",
"311 678 LINE SMOOTH",
"452 678 OFFCURVE",
"520 633 OFFCURVE",
"520 525 CURVE SMOOTH",
"520 412 OFFCURVE",
"461 293 OFFCURVE",
"254 293 CURVE SMOOTH",
"136 293 LINE",
"135 291 LINE",
"253 291 LINE SMOOTH",
"462 291 OFFCURVE",
"522 411 OFFCURVE",
"522 525 CURVE SMOOTH",
"522 634 OFFCURVE",
"453 680 OFFCURVE",
"311 680 CURVE SMOOTH",
"189 680 LINE",
"94 0 LINE",
"96 0 LINE"
);
}
);
width = 552;
},
{
background = {
paths = (
{
closed = 1;
nodes = (
"271 267 LINE SMOOTH",
"455 267 OFFCURVE",
"551 361 OFFCURVE",
"551 511 CURVE SMOOTH",
"551 627 OFFCURVE",
"472 685 OFFCURVE",
"311 685 CURVE SMOOTH",
"155 685 LINE",
"71 0 LINE",
"130 0 LINE",
"162 267 LINE"
);
},
{
closed = 1;
nodes = (
"207 635 LINE",
"310 635 LINE SMOOTH",
"434 635 OFFCURVE",
"489 593 OFFCURVE",
"489 509 CURVE SMOOTH",
"489 387 OFFCURVE",
"423 317 OFFCURVE",
"282 317 CURVE SMOOTH",
"168 317 LINE"
);
},
{
closed = 1;
nodes = (
"206 653 LINE",
"320 653 LINE SMOOTH",
"455 653 OFFCURVE",
"523 610 OFFCURVE",
"505 484 CURVE SMOOTH",
"487 349 OFFCURVE",
"391 307 OFFCURVE",
"268 307 CURVE SMOOTH",
"151 307 LINE",
"147 278 LINE",
"263 278 LINE SMOOTH",
"408 278 OFFCURVE",
"516 332 OFFCURVE",
"537 481 CURVE SMOOTH",
"557 622 OFFCURVE",
"476 682 OFFCURVE",
"322 682 CURVE SMOOTH",
"179 682 LINE",
"83 0 LINE",
"114 0 LINE"
);
}
);
};
layerId = "BCC09A48-EAE1-493E-95CB-92D2C26BC05D";
leftMetricsKey = H;
name = "Regular Italic";
paths = (
{
closed = 1;
nodes = (
"206 653 LINE",
"320 653 LINE SMOOTH",
"441 653 OFFCURVE",
"508 616 OFFCURVE",
"508 516 CURVE SMOOTH",
"508 410 OFFCURVE",
"458 307 OFFCURVE",
"267 307 CURVE SMOOTH",
"151 307 LINE",
"147 278 LINE",
"263 278 LINE SMOOTH",
"479 278 OFFCURVE",
"540 397 OFFCURVE",
"540 516 CURVE SMOOTH",
"540 631 OFFCURVE",
"461 682 OFFCURVE",
"322 682 CURVE SMOOTH",
"179 682 LINE",
"83 0 LINE",
"114 0 LINE"
);
}
);
width = 561;
},
{
background = {
paths = (
{
closed = 1;
nodes = (
"200 328 LINE",
"235 615 LINE",
"316 615 LINE SMOOTH",
"426 615 OFFCURVE",
"474 576 OFFCURVE",
"474 499 CURVE SMOOTH",
"474 386 OFFCURVE",
"407 328 OFFCURVE",
"303 328 CURVE"
);
},
{
closed = 1;
nodes = (
"574 618 OFFCURVE",
"486 689 OFFCURVE",
"321 689 CURVE SMOOTH",
"149 689 LINE",
"65 0 LINE",
"160 0 LINE",
"191 253 LINE",
"300 253 LINE SMOOTH",
"469 253 OFFCURVE",
"574 347 OFFCURVE",
"574 501 CURVE SMOOTH"
);
},
{
closed = 1;
nodes = (
"242 615 LINE",
"329 615 LINE SMOOTH",
"429 615 OFFCURVE",
"489 581 OFFCURVE",
"474 480 CURVE SMOOTH",
"458 361 OFFCURVE",
"383 328 OFFCURVE",
"282 328 CURVE SMOOTH",
"186 328 LINE",
"176 253 LINE",
"280 253 LINE SMOOTH",
"431 253 OFFCURVE",
"551 315 OFFCURVE",
"573 471 CURVE SMOOTH",
"594 618 OFFCURVE",
"501 689 OFFCURVE",
"336 689 CURVE SMOOTH",
"159 689 LINE",
"62 0 LINE",
"156 0 LINE"
);
}
);
};
layerId = "A11F629A-ECF3-413E-B2EC-6C6F8C33A243";
name = "Regular Italic";
paths = (
{
closed = 1;
nodes = (
"242 615 LINE",
"329 615 LINE SMOOTH",
"419 615 OFFCURVE",
"476 588 OFFCURVE",
"476 507 CURVE SMOOTH",
"476 418 OFFCURVE",
"438 328 OFFCURVE",
"282 328 CURVE SMOOTH",
"186 328 LINE",
"176 253 LINE",
"280 253 LINE SMOOTH",
"500 253 OFFCURVE",
"576 379 OFFCURVE",
"576 507 CURVE SMOOTH",
"576 631 OFFCURVE",
"486 689 OFFCURVE",
"336 689 CURVE SMOOTH",
"159 689 LINE",
"62 0 LINE",
"156 0 LINE"
);
}
);
width = 575;
}
);
leftKerningGroup = H;
leftMetricsKey = H;
rightKerningGroup = P;
unicode = 0050;
},
{
color = 4;
glyphname = Thorn;
lastChange = "2014-04-26 15:52:18 +0100";
layers = (
{
anchors = (
{
name = top;
position = "{204, 696}";
}
);
background = {
paths = (
{
closed = 1;
nodes = (
"607 506 OFFCURVE",
"513 588 OFFCURVE",
"316 588 CURVE SMOOTH",
"287 588 LINE",
"300 696 LINE",
"94 696 LINE",
"9 0 LINE",
"215 0 LINE",
"228 109 LINE",
"296 109 LINE SMOOTH",
"485 109 OFFCURVE",
"607 218 OFFCURVE",
"607 379 CURVE SMOOTH"
);
},
{
closed = 1;
nodes = (
"246 254 LINE",
"269 445 LINE",
"297 445 LINE SMOOTH",
"366 445 OFFCURVE",
"396 421 OFFCURVE",
"396 373 CURVE SMOOTH",
"396 303 OFFCURVE",
"352 254 OFFCURVE",
"286 254 CURVE SMOOTH"
);
},
{
closed = 1;
nodes = (
"284 593 LINE",
"270 450 LINE",
"313 450 LINE SMOOTH",
"379 450 OFFCURVE",
"401 417 OFFCURVE",
"392 361 CURVE SMOOTH",
"383 284 OFFCURVE",
"345 251 OFFCURVE",
"288 251 CURVE SMOOTH",
"227 251 LINE",
"207 106 LINE",
"290 106 LINE SMOOTH",
"452 106 OFFCURVE",
"575 187 OFFCURVE",
"599 355 CURVE SMOOTH",
"621 514 OFFCURVE",
"517 593 OFFCURVE",
"334 593 CURVE SMOOTH"
);
},
{
closed = 1;
nodes = (
"103 696 LINE",
"6 0 LINE",
"208 0 LINE",
"305 696 LINE"
);
}
);
};
layerId = UUID0;
rightMetricsKey = P;
name = "Bold Italic";
paths = (
{
closed = 1;
nodes = (
"227 593 LINE",
"268 450 LINE",
"313 450 LINE SMOOTH",
"370 450 OFFCURVE",
"394 423 OFFCURVE",
"394 380 CURVE SMOOTH",
"394 333 OFFCURVE",
"375 251 OFFCURVE",
"288 251 CURVE SMOOTH",
"227 251 LINE",
"207 106 LINE",
"290 106 LINE SMOOTH",
"534 106 OFFCURVE",
"602 271 OFFCURVE",
"602 386 CURVE SMOOTH",
"602 527 OFFCURVE",
"501 593 OFFCURVE",
"334 593 CURVE SMOOTH"
);
},
{
closed = 1;
nodes = (
"103 696 LINE",
"6 0 LINE",
"208 0 LINE",
"305 696 LINE"
);
}
);
width = 600.449;
},
{
background = {
paths = (
{
closed = 1;
nodes = (
"171 550 LINE",
"172 548 LINE",
"292 548 LINE SMOOTH",
"450 548 OFFCURVE",
"517 491 OFFCURVE",
"498 351 CURVE SMOOTH",
"478 210 OFFCURVE",
"379 156 OFFCURVE",
"234 156 CURVE SMOOTH",
"116 156 LINE",
"116 154 LINE",
"234 154 LINE SMOOTH",
"381 154 OFFCURVE",
"480 209 OFFCURVE",
"500 351 CURVE SMOOTH",
"520 492 OFFCURVE",
"452 550 OFFCURVE",
"293 550 CURVE SMOOTH"
);
},
{
closed = 1;
nodes = (
"189 680 LINE",
"94 0 LINE",
"96 0 LINE",
"191 680 LINE"
);
}
);
};
layerId = "F257A41E-77B2-4FB8-8247-C188CBBE1401";
leftMetricsKey = H;
rightMetricsKey = P;
name = "Light Italic";
paths = (
{
closed = 1;
nodes = (
"171 550 LINE",
"172 548 LINE",
"292 548 LINE SMOOTH",
"433 548 OFFCURVE",
"501 503 OFFCURVE",
"501 383 CURVE SMOOTH",
"501 276 OFFCURVE",
"447 156 OFFCURVE",
"234 156 CURVE SMOOTH",
"116 156 LINE",
"116 154 LINE",
"234 154 LINE SMOOTH",
"445 154 OFFCURVE",
"503 272 OFFCURVE",
"503 383 CURVE SMOOTH",
"503 505 OFFCURVE",
"434 550 OFFCURVE",
"293 550 CURVE SMOOTH"
);
},
{
closed = 1;
nodes = (
"189 680 LINE",
"94 0 LINE",
"96 0 LINE",
"191 680 LINE"
);
}
);
width = 552.887;
},
{
anchors = (
{
name = top;
position = "{-268, -532}";
}
);
background = {
paths = (
{
closed = 1;
nodes = (
"255 147 LINE SMOOTH",
"439 147 OFFCURVE",
"535 241 OFFCURVE",
"535 391 CURVE SMOOTH",
"535 507 OFFCURVE",
"456 565 OFFCURVE",
"295 565 CURVE SMOOTH",
"199 565 LINE",
"214 685 LINE",
"155 685 LINE",
"71 0 LINE",
"130 0 LINE",
"147 147 LINE"
);
},
{
closed = 1;
nodes = (
"294 515 LINE SMOOTH",
"418 515 OFFCURVE",
"473 473 OFFCURVE",
"473 389 CURVE SMOOTH",
"473 267 OFFCURVE",
"407 197 OFFCURVE",
"266 197 CURVE SMOOTH",
"153 197 LINE",
"193 515 LINE"
);
},
{
closed = 1;
nodes = (
"172 556 LINE",
"189 527 LINE",
"303 527 LINE SMOOTH",
"438 527 OFFCURVE",
"505 484 OFFCURVE",
"488 358 CURVE SMOOTH",
"468 215 OFFCURVE",
"372 173 OFFCURVE",
"249 173 CURVE SMOOTH",
"132 173 LINE",
"128 144 LINE",
"244 144 LINE SMOOTH",
"389 144 OFFCURVE",
"497 198 OFFCURVE",
"519 355 CURVE SMOOTH",
"539 496 OFFCURVE",
"459 556 OFFCURVE",
"305 556 CURVE SMOOTH"
);
},
{
closed = 1;
nodes = (
"179 682 LINE",
"83 0 LINE",
"114 0 LINE",
"210 682 LINE"
);
}
);
};
layerId = "BCC09A48-EAE1-493E-95CB-92D2C26BC05D";
leftMetricsKey = H;
rightMetricsKey = P;
name = "Regular Italic";
paths = (
{
closed = 1;
nodes = (
"172 556 LINE",
"179 527 LINE",
"303 527 LINE SMOOTH",
"424 527 OFFCURVE",
"491 492 OFFCURVE",
"491 384 CURVE SMOOTH",
"491 280 OFFCURVE",
"435 173 OFFCURVE",
"249 173 CURVE SMOOTH",
"132 173 LINE",
"128 144 LINE",
"244 144 LINE SMOOTH",
"463 144 OFFCURVE",
"522 273 OFFCURVE",
"522 385 CURVE SMOOTH",
"522 508 OFFCURVE",
"443 556 OFFCURVE",
"305 556 CURVE SMOOTH"
);
},
{
closed = 1;
nodes = (
"179 682 LINE",
"83 0 LINE",
"114 0 LINE",
"210 682 LINE"
);
}
);
width = 561.227;
},
{
background = {
paths = (
{
closed = 1;
nodes = (
"559 492 OFFCURVE",
"471 563 OFFCURVE",
"306 563 CURVE SMOOTH",
"228 563 LINE",
"244 689 LINE",
"149 689 LINE",
"65 0 LINE",
"160 0 LINE",
"175 127 LINE",
"285 127 LINE SMOOTH",
"453 127 OFFCURVE",
"559 220 OFFCURVE",
"559 375 CURVE SMOOTH"
);
},
{
closed = 1;
nodes = (
"185 202 LINE",
"220 489 LINE",
"301 489 LINE SMOOTH",
"411 489 OFFCURVE",
"459 450 OFFCURVE",
"459 373 CURVE SMOOTH",
"459 260 OFFCURVE",
"392 202 OFFCURVE",
"288 202 CURVE"
);
},
{
closed = 1;
nodes = (
"222 571 LINE",
"227 497 LINE",
"313 497 LINE SMOOTH",
"413 497 OFFCURVE",
"472 463 OFFCURVE",
"457 358 CURVE SMOOTH",
"440 235 OFFCURVE",
"365 202 OFFCURVE",
"264 202 CURVE SMOOTH",
"168 202 LINE",
"158 127 LINE",
"262 127 LINE SMOOTH",
"413 127 OFFCURVE",
"534 189 OFFCURVE",
"556 349 CURVE SMOOTH",
"577 500 OFFCURVE",
"484 571 OFFCURVE",
"319 571 CURVE SMOOTH"
);
},
{
closed = 1;
nodes = (
"159 689 LINE",
"62 0 LINE",
"156 0 LINE",
"253 689 LINE"
);
}
);
};
layerId = "A11F629A-ECF3-413E-B2EC-6C6F8C33A243";
rightMetricsKey = P;
name = "Regular Italic";
paths = (
{
closed = 1;
nodes = (
"202 571 LINE",
"217 497 LINE",
"313 497 LINE SMOOTH",
"403 497 OFFCURVE",
"459 470 OFFCURVE",
"459 385 CURVE SMOOTH",
"459 294 OFFCURVE",
"417 202 OFFCURVE",
"264 202 CURVE SMOOTH",
"168 202 LINE",
"158 127 LINE",
"262 127 LINE SMOOTH",
"490 127 OFFCURVE",
"559 265 OFFCURVE",
"559 385 CURVE SMOOTH",
"559 513 OFFCURVE",
"469 571 OFFCURVE",
"319 571 CURVE SMOOTH"
);
},
{
closed = 1;
nodes = (
"159 689 LINE",
"62 0 LINE",
"156 0 LINE",
"253 689 LINE"
);
}
);
width = 575.103;
}
);
leftKerningGroup = H;
leftMetricsKey = H;
rightKerningGroup = Thorn;
rightMetricsKey = P;
unicode = 00DE;
},
{
color = 4;
glyphname = Q;
lastChange = "2014-04-26 15:52:19 +0100";
layers = (
{
background = {
paths = (
{
closed = 1;
nodes = (
"681 605 OFFCURVE",
"566 716 OFFCURVE",
"385 716 CURVE SMOOTH",
"135 716 OFFCURVE",
"23 506 OFFCURVE",
"23 283 CURVE SMOOTH",
"23 92 OFFCURVE",
"138 -17 OFFCURVE",
"314 -17 CURVE SMOOTH",
"409 -17 OFFCURVE",
"489 -87 OFFCURVE",
"545 -170 CURVE",
"683 -15 LINE",
"629 28 OFFCURVE",
"564 46 OFFCURVE",
"473 46 CURVE",
"474 50 LINE",
"617 122 OFFCURVE",
"681 234 OFFCURVE",
"681 414 CURVE SMOOTH"
);
},
{
closed = 1;
nodes = (
"261 126 OFFCURVE",
"234 163 OFFCURVE",
"234 257 CURVE SMOOTH",
"234 357 OFFCURVE",
"252 570 OFFCURVE",
"381 570 CURVE SMOOTH",
"443 570 OFFCURVE",
"469 533 OFFCURVE",
"469 438 CURVE SMOOTH",
"469 336 OFFCURVE",
"452 126 OFFCURVE",
"322 126 CURVE SMOOTH"
);
},
{
closed = 1;
nodes = (
"197 716 OFFCURVE",
"64 576 OFFCURVE",
"32 352 CURVE SMOOTH",
"0 119 OFFCURVE",
"96 -16 OFFCURVE",
"287 -16 CURVE SMOOTH",
"311 -16 OFFCURVE",
"336 -14 OFFCURVE",
"359 -10 CURVE",
"465 47 LINE",
"549 93 OFFCURVE",
"646 181 OFFCURVE",
"670 346 CURVE SMOOTH",
"702 579 OFFCURVE",
"606 716 OFFCURVE",
"400 716 CURVE SMOOTH"
);
},
{
closed = 1;
nodes = (
"286 -16 LINE",
"415 -16 OFFCURVE",
"483 -99 OFFCURVE",
"528 -172 CURVE",
"667 -16 LINE",
"615 28 OFFCURVE",
"558 48 OFFCURVE",
"463 48 CURVE"
);
},
{
closed = 1;
nodes = (
"460 570 OFFCURVE",
"482 511 OFFCURVE",
"459 352 CURVE SMOOTH",
"437 189 OFFCURVE",
"397 126 OFFCURVE",
"317 126 CURVE SMOOTH",
"242 126 OFFCURVE",
"220 187 OFFCURVE",
"243 346 CURVE SMOOTH",
"265 509 OFFCURVE",
"307 570 OFFCURVE",
"384 570 CURVE SMOOTH"
);
}
);
};
layerId = UUID0;
name = "Bold Italic";
paths = (
{
closed = 1;
nodes = (
"301 -20 LINE",
"430 -20 OFFCURVE",
"498 -103 OFFCURVE",
"543 -176 CURVE",
"682 -20 LINE",
"630 24 OFFCURVE",
"573 46 OFFCURVE",
"448 46 CURVE"
);
},
{
closed = 1;
nodes = (
"112 716 OFFCURVE",
"25 458 OFFCURVE",
"25 268 CURVE SMOOTH",
"25 89 OFFCURVE",
"121 -20 OFFCURVE",
"301 -20 CURVE",
"351 -20 OFFCURVE",
"396 -12 OFFCURVE",
"434 2 CURVE",
"466 39 LINE",
"627 115 OFFCURVE",
"676 288 OFFCURVE",
"676 429 CURVE SMOOTH",
"676 609 OFFCURVE",
"580 716 OFFCURVE",
"400 716 CURVE"
);
},
{
closed = 1;
nodes = (
"441 570 OFFCURVE",
"468 536 OFFCURVE",
"468 452 CURVE SMOOTH",
"468 346 OFFCURVE",
"446 126 OFFCURVE",
"317 126 CURVE SMOOTH",
"260 126 OFFCURVE",
"233 161 OFFCURVE",
"233 246 CURVE SMOOTH",
"233 348 OFFCURVE",
"255 570 OFFCURVE",
"384 570 CURVE"
);
}
);
width = 678;
},
{
background = {
paths = (
{
closed = 1;
nodes = (
"248 690 OFFCURVE",
"126 557 OFFCURVE",
"96 338 CURVE SMOOTH",
"65 119 OFFCURVE",
"147 -9 OFFCURVE",
"306 -9 CURVE SMOOTH",
"311 -9 OFFCURVE",
"316 -9 OFFCURVE",
"329 -8 CURVE",
"336 -7 LINE",
"484 6 OFFCURVE",
"585 133 OFFCURVE",
"614 340 CURVE SMOOTH",
"645 563 OFFCURVE",
"564 690 OFFCURVE",
"403 690 CURVE SMOOTH"
);
},
{
closed = 1;
nodes = (
"306 -9 LINE",
"448 -7 OFFCURVE",
"513 -24 OFFCURVE",
"567 -73 CURVE",
"569 -72 LINE",
"514 -21 OFFCURVE",
"443 -8 OFFCURVE",
"336 -7 CURVE"
);
},
{
closed = 1;
nodes = (
"563 688 OFFCURVE",
"643 561 OFFCURVE",
"612 340 CURVE SMOOTH",
"581 122 OFFCURVE",
"472 -7 OFFCURVE",
"306 -7 CURVE SMOOTH",
"148 -7 OFFCURVE",
"68 121 OFFCURVE",
"98 338 CURVE SMOOTH",
"128 555 OFFCURVE",
"249 688 OFFCURVE",
"403 688 CURVE SMOOTH"
);
}
);
};
layerId = "F257A41E-77B2-4FB8-8247-C188CBBE1401";
leftMetricsKey = O;
name = "Light Italic";
paths = (
{
closed = 1;
nodes = (
"306 -9 LINE",
"448 -7 OFFCURVE",
"513 -24 OFFCURVE",
"567 -73 CURVE",
"569 -72 LINE",
"514 -21 OFFCURVE",
"443 -8 OFFCURVE",
"336 -7 CURVE"
);
},
{
closed = 1;
nodes = (
"169 690 OFFCURVE",
"90 418 OFFCURVE",
"90 251 CURVE SMOOTH",
"90 86 OFFCURVE",
"169 -9 OFFCURVE",
"306 -9 CURVE SMOOTH",
"312 -9 OFFCURVE",
"317 -9 OFFCURVE",
"323 -8 CURVE",
"326 -8 LINE",
"555 6 OFFCURVE",
"621 266 OFFCURVE",
"621 429 CURVE SMOOTH",
"621 596 OFFCURVE",
"541 690 OFFCURVE",
"403 690 CURVE SMOOTH"
);
},
{
closed = 1;
nodes = (
"540 688 OFFCURVE",
"619 595 OFFCURVE",
"619 429 CURVE SMOOTH",
"619 265 OFFCURVE",
"550 -7 OFFCURVE",
"306 -7 CURVE SMOOTH",
"170 -7 OFFCURVE",
"92 88 OFFCURVE",
"92 253 CURVE SMOOTH",
"92 415 OFFCURVE",
"170 688 OFFCURVE",
"403 688 CURVE SMOOTH"
);
}
);
width = 674;
},
{
background = {
paths = (
{
closed = 1;
nodes = (
"622 601 OFFCURVE",
"522 696 OFFCURVE",
"383 696 CURVE SMOOTH",
"209 696 OFFCURVE",
"69 542 OFFCURVE",
"69 267 CURVE SMOOTH",
"69 82 OFFCURVE",
"163 -9 OFFCURVE",
"303 -9 CURVE SMOOTH",
"315 -9 LINE SMOOTH",
"430 -10 OFFCURVE",
"505 -29 OFFCURVE",
"570 -93 CURVE",
"615 -42 LINE",
"571 1 OFFCURVE",
"493 21 OFFCURVE",
"419 21 CURVE",
"418 24 LINE",
"545 79 OFFCURVE",
"622 219 OFFCURVE",
"622 417 CURVE SMOOTH"
);
},
{
closed = 1;
nodes = (
"201 40 OFFCURVE",
"131 111 OFFCURVE",
"131 264 CURVE SMOOTH",
"131 521 OFFCURVE",
"247 645 OFFCURVE",
"382 645 CURVE SMOOTH",
"484 645 OFFCURVE",
"560 580 OFFCURVE",
"560 420 CURVE SMOOTH",
"560 163 OFFCURVE",
"444 40 OFFCURVE",
"310 40 CURVE SMOOTH"
);
},
{
closed = 1;
nodes = (
"246 692 OFFCURVE",
"118 566 OFFCURVE",
"86 341 CURVE SMOOTH",
"55 115 OFFCURVE",
"148 -8 OFFCURVE",
"309 -8 CURVE SMOOTH",
"322 -8 OFFCURVE",
"336 -7 OFFCURVE",
"351 -5 CURVE",
"391 9 LINE",
"503 38 OFFCURVE",
"597 135 OFFCURVE",
"626 338 CURVE SMOOTH",
"659 570 OFFCURVE",
"566 692 OFFCURVE",
"404 692 CURVE SMOOTH"
);
},
{
closed = 1;
nodes = (
"308 -8 LINE",
"428 -8 OFFCURVE",
"504 -21 OFFCURVE",
"567 -83 CURVE",
"590 -59 LINE",
"540 -8 OFFCURVE",
"465 9 OFFCURVE",
"393 11 CURVE"
);
},
{
closed = 1;
nodes = (
"546 664 OFFCURVE",
"625 557 OFFCURVE",
"595 342 CURVE SMOOTH",
"565 130 OFFCURVE",
"458 19 OFFCURVE",
"309 19 CURVE SMOOTH",
"170 19 OFFCURVE",
"88 128 OFFCURVE",
"118 337 CURVE SMOOTH",
"148 553 OFFCURVE",
"262 664 OFFCURVE",
"404 664 CURVE"
);
}
);
};
layerId = "BCC09A48-EAE1-493E-95CB-92D2C26BC05D";
leftMetricsKey = O;
name = "Regular Italic";
paths = (
{
closed = 1;
nodes = (
"309 -10 LINE",
"429 -10 OFFCURVE",
"505 -23 OFFCURVE",
"568 -85 CURVE",
"591 -61 LINE",
"541 -10 OFFCURVE",
"466 7 OFFCURVE",
"394 9 CURVE"
);
},
{
closed = 1;
nodes = (
"163 692 OFFCURVE",
"80 430 OFFCURVE",
"80 259 CURVE SMOOTH",
"80 85 OFFCURVE",
"169 -10 OFFCURVE",
"309 -10 CURVE SMOOTH",
"331 -10 OFFCURVE",
"352 -8 OFFCURVE",
"366 -4 CURVE",
"392 6 LINE",
"572 51 OFFCURVE",
"633 271 OFFCURVE",
"633 426 CURVE SMOOTH",
"633 601 OFFCURVE",
"544 692 OFFCURVE",
"405 692 CURVE SMOOTH"
);
},
{
closed = 1;
nodes = (
"526 664 OFFCURVE",
"601 585 OFFCURVE",
"601 427 CURVE SMOOTH",
"601 270 OFFCURVE",
"538 19 OFFCURVE",
"309 19 CURVE SMOOTH",
"189 19 OFFCURVE",
"112 100 OFFCURVE",
"112 256 CURVE SMOOTH",
"112 415 OFFCURVE",
"182 664 OFFCURVE",
"404 664 CURVE"
);
}
);
width = 674;
},
{
background = {
paths = (
{
closed = 1;
nodes = (
"642 603 OFFCURVE",
"538 701 OFFCURVE",
"387 701 CURVE SMOOTH",
"155 701 OFFCURVE",
"61 470 OFFCURVE",
"61 271 CURVE SMOOTH",
"61 84 OFFCURVE",
"163 -9 OFFCURVE",
"314 -10 CURVE SMOOTH",
"437 -10 OFFCURVE",
"504 -33 OFFCURVE",
"574 -103 CURVE",
"646 -21 LINE",
"601 13 OFFCURVE",
"543 35 OFFCURVE",
"461 39 CURVE",
"462 42 LINE",
"575 103 OFFCURVE",
"642 227 OFFCURVE",
"642 416 CURVE SMOOTH"
);
},
{
closed = 1;
nodes = (
"223 66 OFFCURVE",
"161 121 OFFCURVE",
"161 266 CURVE SMOOTH",
"161 416 OFFCURVE",
"209 623 OFFCURVE",
"386 623 CURVE SMOOTH",
"482 623 OFFCURVE",
"541 567 OFFCURVE",
"541 425 CURVE SMOOTH",
"541 272 OFFCURVE",
"496 66 OFFCURVE",
"317 66 CURVE SMOOTH"
);
},
{
closed = 1;
nodes = (
"232 701 OFFCURVE",
"98 573 OFFCURVE",
"67 348 CURVE SMOOTH",
"34 115 OFFCURVE",
"137 -10 OFFCURVE",
"307 -10 CURVE SMOOTH",
"326 -10 OFFCURVE",
"345 -8 OFFCURVE",
"364 -5 CURVE",
"445 38 LINE",
"549 89 OFFCURVE",
"618 172 OFFCURVE",
"642 339 CURVE SMOOTH",
"674 573 OFFCURVE",
"573 701 OFFCURVE",
"400 701 CURVE SMOOTH"
);
},
{
closed = 1;
nodes = (
"307 -10 LINE",
"431 -10 OFFCURVE",
"484 -31 OFFCURVE",
"551 -101 CURVE",
"621 -24 LINE",
"576 10 OFFCURVE",
"521 39 OFFCURVE",
"443 39 CURVE"
);
},
{
closed = 1;
nodes = (
"513 623 OFFCURVE",
"571 545 OFFCURVE",
"543 349 CURVE SMOOTH",
"515 147 OFFCURVE",
"428 66 OFFCURVE",
"311 66 CURVE SMOOTH",
"202 66 OFFCURVE",
"138 141 OFFCURVE",
"165 338 CURVE SMOOTH",
"194 539 OFFCURVE",
"282 623 OFFCURVE",
"398 623 CURVE SMOOTH"
);
}
);
};
layerId = "A11F629A-ECF3-413E-B2EC-6C6F8C33A243";
name = "Regular Italic";
paths = (
{
closed = 1;
nodes = (
"308 -12 LINE",
"432 -12 OFFCURVE",
"485 -33 OFFCURVE",
"552 -103 CURVE",
"622 -26 LINE",
"577 8 OFFCURVE",
"522 37 OFFCURVE",
"444 37 CURVE"
);
},
{
closed = 1;
nodes = (
"147 701 OFFCURVE",
"61 441 OFFCURVE",
"61 265 CURVE SMOOTH",
"61 85 OFFCURVE",
"158 -12 OFFCURVE",
"308 -12 CURVE SMOOTH",
"347 -12 OFFCURVE",
"381 -6 OFFCURVE",
"412 4 CURVE",
"434 30 LINE",
"593 86 OFFCURVE",
"648 275 OFFCURVE",
"648 421 CURVE SMOOTH",
"648 603 OFFCURVE",
"552 701 OFFCURVE",
"402 701 CURVE SMOOTH"
);
},
{
closed = 1;
nodes = (
"494 623 OFFCURVE",
"550 566 OFFCURVE",
"550 438 CURVE SMOOTH",
"550 288 OFFCURVE",
"500 66 OFFCURVE",
"311 66 CURVE SMOOTH",
"219 66 OFFCURVE",
"159 120 OFFCURVE",
"159 255 CURVE SMOOTH",
"159 403 OFFCURVE",
"211 623 OFFCURVE",
"398 623 CURVE SMOOTH"
);
}
);
width = 683;
}
);
leftKerningGroup = O;
leftMetricsKey = O;
rightKerningGroup = O;
unicode = 0051;
},
{
color = 4;
glyphname = R;
lastChange = "2014-04-26 15:52:18 +0100";
layers = (
{
anchors = (
{
name = bottom;
position = "{270, 0}";
},
{
name = top;
position = "{367, 696}";
}
);
background = {
paths = (
{
closed = 1;
nodes = (
"622 623 OFFCURVE",
"534 696 OFFCURVE",
"334 696 CURVE SMOOTH",
"93 696 LINE",
"8 0 LINE",
"214 0 LINE",
"244 248 LINE",
"290 248 LINE",
"398 0 LINE",
"609 0 LINE",
"470 281 LINE",
"567 323 OFFCURVE",
"622 402 OFFCURVE",
"622 494 CURVE SMOOTH"
);
},
{
closed = 1;
nodes = (
"261 386 LINE",
"282 555 LINE",
"318 555 LINE SMOOTH",
"383 555 OFFCURVE",
"411 528 OFFCURVE",
"411 484 CURVE SMOOTH",
"411 421 OFFCURVE",
"377 386 OFFCURVE",
"307 386 CURVE SMOOTH"
);
},
{
closed = 1;
nodes = (
"103 696 LINE",
"6 0 LINE",
"208 0 LINE",
"285 555 LINE",
"329 555 LINE SMOOTH",
"389 555 OFFCURVE",
"417 531 OFFCURVE",
"409 478 CURVE SMOOTH",
"400 415 OFFCURVE",
"369 386 OFFCURVE",
"314 386 CURVE SMOOTH",
"245 386 LINE",
"226 248 LINE",
"392 247 LINE",
"535 310 OFFCURVE",
"599 364 OFFCURVE",
"615 472 CURVE SMOOTH",
"637 627 OFFCURVE",
"547 696 OFFCURVE",
"352 696 CURVE SMOOTH"
);
},
{
closed = 1;
nodes = (
"275 262 LINE",
"372 0 LINE",
"595 0 LINE",
"462 300 LINE"
);
}
);
};
layerId = UUID0;
name = "Bold Italic";
paths = (
{
closed = 1;
nodes = (
"103 696 LINE",
"6 0 LINE",
"208 0 LINE",
"285 555 LINE",
"329 555 LINE SMOOTH",
"382 555 OFFCURVE",
"410 536 OFFCURVE",
"410 495 CURVE SMOOTH",
"410 454 OFFCURVE",
"395 386 OFFCURVE",
"314 386 CURVE SMOOTH",
"245 386 LINE",
"226 248 LINE",
"392 247 LINE",
"588 322 OFFCURVE",
"618 407 OFFCURVE",
"618 515 CURVE SMOOTH",
"618 640 OFFCURVE",
"528 696 OFFCURVE",
"354 696 CURVE SMOOTH"
);
},
{
closed = 1;
nodes = (
"278 262 LINE",
"375 0 LINE",
"595 0 LINE",
"462 300 LINE"
);
}
);
width = 612;
},
{
anchors = (
{
name = bottom;
position = "{265, 0}";
},
{
name = top;
position = "{340, 680}";
}
);
background = {
paths = (
{
closed = 1;
nodes = (
"189 680 LINE",
"94 0 LINE",
"96 0 LINE",
"191 678 LINE",
"326 678 LINE SMOOTH",
"485 678 OFFCURVE",
"529 611 OFFCURVE",
"515 506 CURVE SMOOTH",
"497 383 OFFCURVE",
"403 336 OFFCURVE",
"317 336 CURVE SMOOTH",
"142 336 LINE",
"142 334 LINE",
"323 334 LINE",
"404 336 OFFCURVE",
"499 382 OFFCURVE",
"517 506 CURVE SMOOTH",
"531 612 OFFCURVE",
"486 680 OFFCURVE",
"326 680 CURVE SMOOTH"
);
},
{
closed = 1;
nodes = (
"322 335 LINE",
"467 0 LINE",
"470 0 LINE",
"324 335 LINE"
);
}
);
};
layerId = "F257A41E-77B2-4FB8-8247-C188CBBE1401";
leftMetricsKey = H;
name = "Light Italic";
paths = (
{
closed = 1;
nodes = (
"189 680 LINE",
"94 0 LINE",
"96 0 LINE",
"191 678 LINE",
"326 678 LINE SMOOTH",
"467 678 OFFCURVE",
"517 625 OFFCURVE",
"517 539 CURVE SMOOTH",
"517 442 OFFCURVE",
"458 336 OFFCURVE",
"317 336 CURVE SMOOTH",
"142 336 LINE",
"142 334 LINE",
"323 334 LINE",
"464 337 OFFCURVE",
"519 446 OFFCURVE",
"519 539 CURVE SMOOTH",
"519 626 OFFCURVE",
"468 680 OFFCURVE",
"326 680 CURVE SMOOTH"
);
},
{
closed = 1;
nodes = (
"322 335 LINE",
"467 0 LINE",
"470 0 LINE",
"324 335 LINE"
);
}
);
width = 561;
},
{
anchors = (
{
name = bottom;
position = "{268, 0}";
},
{
name = top;
position = "{349, 682}";
}
);
background = {
paths = (
{
closed = 1;
nodes = (
"551 626 OFFCURVE",
"474 685 OFFCURVE",
"325 685 CURVE SMOOTH",
"155 685 LINE",
"71 0 LINE",
"130 0 LINE",
"167 308 LINE",
"296 308 LINE",
"454 0 LINE",
"521 0 LINE",
"353 316 LINE",
"484 335 OFFCURVE",
"551 413 OFFCURVE",
"551 522 CURVE SMOOTH"
);
},
{
closed = 1;
nodes = (
"207 635 LINE",
"321 635 LINE SMOOTH",
"437 635 OFFCURVE",
"489 596 OFFCURVE",
"489 520 CURVE SMOOTH",
"489 414 OFFCURVE",
"423 357 OFFCURVE",
"291 357 CURVE SMOOTH",
"173 357 LINE"
);
},
{
closed = 1;
nodes = (
"179 682 LINE",
"83 0 LINE",
"114 0 LINE",
"206 653 LINE",
"326 653 LINE SMOOTH",
"473 653 OFFCURVE",
"518 600 OFFCURVE",
"504 505 CURVE SMOOTH",
"489 398 OFFCURVE",
"412 349 OFFCURVE",
"292 349 CURVE SMOOTH",
"157 349 LINE",
"152 320 LINE",
"325 320 LINE",
"438 336 OFFCURVE",
"519 384 OFFCURVE",
"536 501 CURVE SMOOTH",
"552 617 OFFCURVE",
"491 682 OFFCURVE",
"332 682 CURVE SMOOTH"
);
},
{
closed = 1;
nodes = (
"318 327 LINE",
"461 0 LINE",
"500 0 LINE",
"353 332 LINE"
);
}
);
};
layerId = "BCC09A48-EAE1-493E-95CB-92D2C26BC05D";
name = "Regular Italic";
paths = (
{
closed = 1;
nodes = (
"179 682 LINE",
"83 0 LINE",
"114 0 LINE",
"206 653 LINE",
"336 653 LINE SMOOTH",
"459 653 OFFCURVE",
"506 613 OFFCURVE",
"506 534 CURVE SMOOTH",
"506 453 OFFCURVE",
"458 349 OFFCURVE",
"296 349 CURVE SMOOTH",
"157 349 LINE",
"152 320 LINE",
"325 320 LINE",
"489 342 OFFCURVE",
"538 441 OFFCURVE",
"538 533 CURVE SMOOTH",
"538 633 OFFCURVE",
"475 682 OFFCURVE",
"332 682 CURVE SMOOTH"
);
},
{
closed = 1;
nodes = (
"319 327 LINE",
"466 0 LINE",
"500 0 LINE",
"349 332 LINE"
);
}
);
width = 577;
},
{
anchors = (
{
name = bottom;
position = "{269, 0}";
},
{
name = top;
position = "{356, 689}";
}
);
background = {
paths = (
{
closed = 1;
nodes = (
"570 623 OFFCURVE",
"487 689 OFFCURVE",
"321 689 CURVE SMOOTH",
"149 689 LINE",
"65 0 LINE",
"160 0 LINE",
"195 292 LINE",
"296 292 LINE",
"437 0 LINE",
"545 0 LINE",
"388 304 LINE",
"498 326 OFFCURVE",
"570 406 OFFCURVE",
"570 516 CURVE SMOOTH"
);
},
{
closed = 1;
nodes = (
"204 365 LINE",
"235 615 LINE",
"317 615 LINE SMOOTH",
"423 615 OFFCURVE",
"468 581 OFFCURVE",
"468 514 CURVE SMOOTH",
"468 417 OFFCURVE",
"409 365 OFFCURVE",
"308 365 CURVE"
);
},
{
closed = 1;
nodes = (
"159 689 LINE",
"62 0 LINE",
"156 0 LINE",
"242 615 LINE",
"329 615 LINE SMOOTH",
"441 615 OFFCURVE",
"483 583 OFFCURVE",
"471 499 CURVE SMOOTH",
"458 404 OFFCURVE",
"395 365 OFFCURVE",
"300 365 CURVE SMOOTH",
"192 365 LINE",
"182 292 LINE",
"312 292 LINE",
"469 312 OFFCURVE",
"553 369 OFFCURVE",
"570 489 CURVE SMOOTH",
"588 620 OFFCURVE",
"507 689 OFFCURVE",
"337 689 CURVE SMOOTH"
);
},
{
closed = 1;
nodes = (
"298 306 LINE",
"427 0 LINE",
"537 0 LINE",
"393 317 LINE"
);
}
);
};
layerId = "A11F629A-ECF3-413E-B2EC-6C6F8C33A243";
name = "Regular Italic";
paths = (
{
closed = 1;
nodes = (
"159 689 LINE",
"62 0 LINE",
"156 0 LINE",
"242 615 LINE",
"331 615 LINE SMOOTH",
"429 615 OFFCURVE",
"473 590 OFFCURVE",
"473 525 CURVE SMOOTH",
"473 449 OFFCURVE",
"438 365 OFFCURVE",
"308 365 CURVE SMOOTH",
"192 365 LINE",
"182 292 LINE",
"312 292 LINE",
"509 307 OFFCURVE",
"572 418 OFFCURVE",
"572 523 CURVE SMOOTH",
"572 632 OFFCURVE",
"494 689 OFFCURVE",
"336 689 CURVE SMOOTH"
);
},
{
closed = 1;
nodes = (
"300 306 LINE",
"433 0 LINE",
"537 0 LINE",
"393 317 LINE"
);
}
);
width = 599;
}
);
leftKerningGroup = H;
leftMetricsKey = H;
rightKerningGroup = R;
unicode = 0052;
},
{
color = 4;
glyphname = S;
lastChange = "2014-04-28 14:45:32 +0100";
layers = (
{
anchors = (
{
name = bottom;
position = "{250, 0}";
},
{
name = top;
position = "{361, 696}";
}
);
background = {
paths = (
{
closed = 1;
nodes = (
"563 313 OFFCURVE",
"512 389 OFFCURVE",
"383 437 CURVE SMOOTH",
"290 472 OFFCURVE",
"273 488 OFFCURVE",
"273 521 CURVE SMOOTH",
"273 551 OFFCURVE",
"295 574 OFFCURVE",
"347 574 CURVE SMOOTH",
"401 574 OFFCURVE",
"456 549 OFFCURVE",
"498 513 CURVE",
"600 622 LINE",
"538 681 OFFCURVE",
"452 716 OFFCURVE",
"340 716 CURVE SMOOTH",
"164 716 OFFCURVE",
"56 624 OFFCURVE",
"56 502 CURVE SMOOTH",
"56 395 OFFCURVE",
"111 333 OFFCURVE",
"254 283 CURVE SMOOTH",
"328 257 OFFCURVE",
"346 234 OFFCURVE",
"346 196 CURVE SMOOTH",
"346 157 OFFCURVE",
"311 132 OFFCURVE",
"258 132 CURVE SMOOTH",
"203 132 OFFCURVE",
"147 156 OFFCURVE",
"93 207 CURVE",
"-20 96 LINE",
"35 36 OFFCURVE",
"145 -20 OFFCURVE",
"261 -20 CURVE SMOOTH",
"463 -20 OFFCURVE",
"563 84 OFFCURVE",
"563 217 CURVE SMOOTH"
);
},
{
closed = 1;
nodes = (
"204 716 OFFCURVE",
"80 636 OFFCURVE",
"61 506 CURVE SMOOTH",
"47 403 OFFCURVE",
"86 331 OFFCURVE",
"244 279 CURVE SMOOTH",
"328 250 OFFCURVE",
"347 233 OFFCURVE",
"341 194 CURVE SMOOTH",
"336 156 OFFCURVE",
"304 128 OFFCURVE",
"244 128 CURVE SMOOTH",
"182 128 OFFCURVE",
"131 152 OFFCURVE",
"88 195 CURVE",
"-25 86 LINE",
"24 31 OFFCURVE",
"105 -20 OFFCURVE",
"236 -20 CURVE SMOOTH",
"415 -20 OFFCURVE",
"534 73 OFFCURVE",
"553 205 CURVE SMOOTH",
"570 332 OFFCURVE",
"516 395 OFFCURVE",
"380 440 CURVE SMOOTH",
"289 473 OFFCURVE",
"267 483 OFFCURVE",
"272 517 CURVE SMOOTH",
"276 550 OFFCURVE",
"304 570 OFFCURVE",
"354 570 CURVE SMOOTH",
"407 570 OFFCURVE",
"451 552 OFFCURVE",
"492 515 CURVE",
"594 620 LINE",
"540 681 OFFCURVE",
"465 716 OFFCURVE",
"354 716 CURVE SMOOTH"
);
}
);
};
layerId = UUID0;
name = "Bold Italic";
paths = (
{
closed = 1;
nodes = (
"144 716 OFFCURVE",
"58 602 OFFCURVE",
"58 488 CURVE SMOOTH",
"58 399 OFFCURVE",
"105 331 OFFCURVE",
"244 285 CURVE SMOOTH",
"319 259 OFFCURVE",
"342 235 OFFCURVE",
"342 197 CURVE SMOOTH",
"342 160 OFFCURVE",
"310 134 OFFCURVE",
"244 134 CURVE SMOOTH",
"182 134 OFFCURVE",
"131 158 OFFCURVE",
"88 201 CURVE",
"-25 86 LINE",
"29 31 OFFCURVE",
"115 -20 OFFCURVE",
"244 -20 CURVE SMOOTH",
"478 -20 OFFCURVE",
"556 118 OFFCURVE",
"556 238 CURVE SMOOTH",
"556 337 OFFCURVE",
"500 400 OFFCURVE",
"380 440 CURVE SMOOTH",
"297 470 OFFCURVE",
"271 481 OFFCURVE",
"271 514 CURVE SMOOTH",
"271 547 OFFCURVE",
"300 570 OFFCURVE",
"354 570 CURVE SMOOTH",
"407 570 OFFCURVE",
"451 552 OFFCURVE",
"492 515 CURVE",
"594 620 LINE",
"537 681 OFFCURVE",
"457 716 OFFCURVE",
"353 716 CURVE SMOOTH"
);
}
);
width = 576;
},
{
anchors = (
{
name = bottom;
position = "{225, 0}";
},
{
name = top;
position = "{332, 680}";
}
);
background = {
paths = (
{
closed = 1;
nodes = (
"218 690 OFFCURVE",
"139 624 OFFCURVE",
"127 538 CURVE SMOOTH",
"115 447 OFFCURVE",
"153 412 OFFCURVE",
"285 368 CURVE SMOOTH",
"406 327 OFFCURVE",
"462 287 OFFCURVE",
"447 178 CURVE SMOOTH",
"431 69 OFFCURVE",
"341 -7 OFFCURVE",
"223 -7 CURVE SMOOTH",
"131 -7 OFFCURVE",
"82 24 OFFCURVE",
"39 71 CURVE",
"38 69 LINE",
"81 22 OFFCURVE",
"131 -9 OFFCURVE",
"223 -9 CURVE SMOOTH",
"343 -9 OFFCURVE",
"433 68 OFFCURVE",
"449 178 CURVE SMOOTH",
"464 288 OFFCURVE",
"408 329 OFFCURVE",
"286 370 CURVE SMOOTH",
"153 414 OFFCURVE",
"117 449 OFFCURVE",
"129 538 CURVE SMOOTH",
"141 622 OFFCURVE",
"219 688 OFFCURVE",
"324 688 CURVE SMOOTH",
"405 688 OFFCURVE",
"450 662 OFFCURVE",
"487 624 CURVE",
"489 626 LINE",
"452 663 OFFCURVE",
"407 690 OFFCURVE",
"324 690 CURVE SMOOTH"
);
},
{
closed = 1;
nodes = (
"218 690 OFFCURVE",
"139 624 OFFCURVE",
"127 538 CURVE SMOOTH",
"115 447 OFFCURVE",
"153 412 OFFCURVE",
"285 368 CURVE SMOOTH",
"406 327 OFFCURVE",
"462 287 OFFCURVE",
"447 178 CURVE SMOOTH",
"431 69 OFFCURVE",
"341 -7 OFFCURVE",
"223 -7 CURVE SMOOTH",
"131 -7 OFFCURVE",
"82 24 OFFCURVE",
"39 71 CURVE",
"38 69 LINE",
"81 22 OFFCURVE",
"131 -9 OFFCURVE",
"223 -9 CURVE SMOOTH",
"343 -9 OFFCURVE",
"433 68 OFFCURVE",
"449 178 CURVE SMOOTH",
"464 288 OFFCURVE",
"408 329 OFFCURVE",
"286 370 CURVE SMOOTH",
"153 414 OFFCURVE",
"117 449 OFFCURVE",
"129 538 CURVE SMOOTH",
"141 622 OFFCURVE",
"219 688 OFFCURVE",
"324 688 CURVE SMOOTH",
"405 688 OFFCURVE",
"450 662 OFFCURVE",
"487 624 CURVE",
"489 626 LINE",
"452 663 OFFCURVE",
"407 690 OFFCURVE",
"324 690 CURVE SMOOTH"
);
}
);
};
layerId = "F257A41E-77B2-4FB8-8247-C188CBBE1401";
name = "Light Italic";
paths = (
{
closed = 1;
nodes = (
"177 690 OFFCURVE",
"125 591 OFFCURVE",
"125 524 CURVE SMOOTH",
"125 439 OFFCURVE",
"168 407 OFFCURVE",
"285 368 CURVE SMOOTH",
"393 331 OFFCURVE",
"449 293 OFFCURVE",
"449 197 CURVE SMOOTH",
"449 121 OFFCURVE",
"388 -7 OFFCURVE",
"223 -7 CURVE SMOOTH",
"131 -7 OFFCURVE",
"82 24 OFFCURVE",
"39 71 CURVE",
"38 69 LINE",
"81 22 OFFCURVE",
"131 -9 OFFCURVE",
"223 -9 CURVE SMOOTH",
"389 -9 OFFCURVE",
"451 118 OFFCURVE",
"451 198 CURVE SMOOTH",
"451 294 OFFCURVE",
"395 333 OFFCURVE",
"286 370 CURVE SMOOTH",
"169 409 OFFCURVE",
"127 441 OFFCURVE",
"127 524 CURVE SMOOTH",
"127 590 OFFCURVE",
"178 688 OFFCURVE",
"324 688 CURVE SMOOTH",
"400 688 OFFCURVE",
"450 662 OFFCURVE",
"487 625 CURVE",
"489 626 LINE",
"452 663 OFFCURVE",
"402 690 OFFCURVE",
"324 690 CURVE SMOOTH"
);
}
);
width = 540;
},
{
anchors = (
{
name = bottom;
position = "{224, 0}";
},
{
name = top;
position = "{327, 682}";
}
);
background = {
paths = (
{
closed = 1;
nodes = (
"508 625 LINE",
"461 669 OFFCURVE",
"386 696 OFFCURVE",
"308 696 CURVE SMOOTH",
"174 696 OFFCURVE",
"91 624 OFFCURVE",
"91 526 CURVE SMOOTH",
"91 443 OFFCURVE",
"135 392 OFFCURVE",
"269 342 CURVE SMOOTH",
"397 294 OFFCURVE",
"424 260 OFFCURVE",
"424 197 CURVE SMOOTH",
"424 105 OFFCURVE",
"358 40 OFFCURVE",
"249 40 CURVE SMOOTH",
"174 40 OFFCURVE",
"107 74 OFFCURVE",
"62 119 CURVE",
"22 78 LINE",
"72 25 OFFCURVE",
"158 -11 OFFCURVE",
"251 -11 CURVE SMOOTH",
"396 -11 OFFCURVE",
"486 75 OFFCURVE",
"486 200 CURVE SMOOTH",
"486 282 OFFCURVE",
"442 336 OFFCURVE",
"301 391 CURVE SMOOTH",
"181 438 OFFCURVE",
"153 466 OFFCURVE",
"153 526 CURVE SMOOTH",
"153 596 OFFCURVE",
"210 645 OFFCURVE",
"307 645 CURVE SMOOTH",
"373 645 OFFCURVE",
"430 626 OFFCURVE",
"473 584 CURVE"
);
},
{
closed = 1;
nodes = (
"211 692 OFFCURVE",
"128 624 OFFCURVE",
"116 535 CURVE SMOOTH",
"103 443 OFFCURVE",
"146 397 OFFCURVE",
"280 354 CURVE SMOOTH",
"400 315 OFFCURVE",
"441 279 OFFCURVE",
"427 184 CURVE SMOOTH",
"413 83 OFFCURVE",
"330 19 OFFCURVE",
"220 19 CURVE SMOOTH",
"137 19 OFFCURVE",
"88 48 OFFCURVE",
"46 93 CURVE",
"24 74 LINE",
"73 24 OFFCURVE",
"131 -10 OFFCURVE",
"221 -10 CURVE SMOOTH",
"344 -10 OFFCURVE",
"442 67 OFFCURVE",
"458 181 CURVE SMOOTH",
"474 294 OFFCURVE",
"420 340 OFFCURVE",
"290 381 CURVE SMOOTH",
"175 418 OFFCURVE",
"135 451 OFFCURVE",
"146 531 CURVE SMOOTH",
"157 608 OFFCURVE",
"227 663 OFFCURVE",
"324 663 CURVE SMOOTH",
"391 663 OFFCURVE",
"433 645 OFFCURVE",
"477 599 CURVE",
"498 619 LINE",
"454 663 OFFCURVE",
"409 692 OFFCURVE",
"324 692 CURVE SMOOTH"
);
}
);
};
layerId = "BCC09A48-EAE1-493E-95CB-92D2C26BC05D";
name = "Regular Italic";
paths = (
{
closed = 1;
nodes = (
"180 692 OFFCURVE",
"114 600 OFFCURVE",
"114 521 CURVE SMOOTH",
"114 440 OFFCURVE",
"161 394 OFFCURVE",
"280 356 CURVE SMOOTH",
"385 322 OFFCURVE",
"430 276 OFFCURVE",
"430 200 CURVE SMOOTH",
"430 124 OFFCURVE",
"380 19 OFFCURVE",
"220 19 CURVE SMOOTH",
"138 19 OFFCURVE",
"88 49 OFFCURVE",
"46 94 CURVE",
"24 74 LINE",
"73 24 OFFCURVE",
"131 -10 OFFCURVE",
"221 -10 CURVE SMOOTH",
"392 -10 OFFCURVE",
"461 106 OFFCURVE",
"461 200 CURVE SMOOTH",
"461 292 OFFCURVE",
"406 346 OFFCURVE",
"291 382 CURVE SMOOTH",
"188 415 OFFCURVE",
"145 451 OFFCURVE",
"145 522 CURVE SMOOTH",
"145 603 OFFCURVE",
"217 664 OFFCURVE",
"324 664 CURVE SMOOTH",
"389 664 OFFCURVE",
"433 645 OFFCURVE",
"477 599 CURVE",
"498 619 LINE",
"454 663 OFFCURVE",
"402 692 OFFCURVE",
"324 692 CURVE SMOOTH"
);
}
);
width = 534;
},
{
anchors = (
{
name = bottom;
position = "{227, 0}";
},
{
name = top;
position = "{333, 689}";
}
);
background = {
paths = (
{
closed = 1;
nodes = (
"487 302 OFFCURVE",
"437 357 OFFCURVE",
"308 400 CURVE SMOOTH",
"193 438 OFFCURVE",
"170 465 OFFCURVE",
"170 518 CURVE SMOOTH",
"170 583 OFFCURVE",
"217 622 OFFCURVE",
"292 622 CURVE SMOOTH",
"361 622 OFFCURVE",
"406 604 OFFCURVE",
"453 563 CURVE",
"507 625 LINE",
"446 678 OFFCURVE",
"382 701 OFFCURVE",
"293 701 CURVE SMOOTH",
"158 701 OFFCURVE",
"71 616 OFFCURVE",
"71 518 CURVE SMOOTH",
"71 425 OFFCURVE",
"119 366 OFFCURVE",
"254 323 CURVE SMOOTH",
"361 289 OFFCURVE",
"387 258 OFFCURVE",
"387 199 CURVE SMOOTH",
"387 124 OFFCURVE",
"319 68 OFFCURVE",
"235 68 CURVE SMOOTH",
"173 68 OFFCURVE",
"126 84 OFFCURVE",
"61 140 CURVE",
"1 80 LINE",
"52 27 OFFCURVE",
"136 -12 OFFCURVE",
"235 -12 CURVE SMOOTH",
"384 -12 OFFCURVE",
"487 87 OFFCURVE",
"487 204 CURVE SMOOTH"
);
},
{
closed = 1;
nodes = (
"200 701 OFFCURVE",
"104 630 OFFCURVE",
"89 526 CURVE SMOOTH",
"74 417 OFFCURVE",
"137 364 OFFCURVE",
"267 324 CURVE SMOOTH",
"375 287 OFFCURVE",
"401 259 OFFCURVE",
"392 194 CURVE SMOOTH",
"380 109 OFFCURVE",
"305 66 OFFCURVE",
"223 66 CURVE SMOOTH",
"151 66 OFFCURVE",
"100 91 OFFCURVE",
"59 136 CURVE",
"-1 79 LINE",
"48 23 OFFCURVE",
"121 -12 OFFCURVE",
"221 -12 CURVE SMOOTH",
"373 -12 OFFCURVE",
"473 69 OFFCURVE",
"489 187 CURVE SMOOTH",
"508 321 OFFCURVE",
"419 366 OFFCURVE",
"313 399 CURVE SMOOTH",
"198 438 OFFCURVE",
"176 464 OFFCURVE",
"184 520 CURVE SMOOTH",
"194 588 OFFCURVE",
"256 623 OFFCURVE",
"326 623 CURVE SMOOTH",
"380 623 OFFCURVE",
"424 607 OFFCURVE",
"468 563 CURVE",
"527 619 LINE",
"476 671 OFFCURVE",
"420 701 OFFCURVE",
"324 701 CURVE SMOOTH"
);
}
);
};
layerId = "A11F629A-ECF3-413E-B2EC-6C6F8C33A243";
name = "Regular Italic";
paths = (
{
closed = 1;
nodes = (
"156 701 OFFCURVE",
"87 586 OFFCURVE",
"87 507 CURVE SMOOTH",
"87 408 OFFCURVE",
"150 360 OFFCURVE",
"267 324 CURVE SMOOTH",
"362 291 OFFCURVE",
"394 264 OFFCURVE",
"394 204 CURVE SMOOTH",
"394 114 OFFCURVE",
"312 66 OFFCURVE",
"224 66 CURVE SMOOTH",
"151 66 OFFCURVE",
"100 91 OFFCURVE",
"59 136 CURVE",
"-1 80 LINE",
"48 24 OFFCURVE",
"121 -12 OFFCURVE",
"222 -12 CURVE SMOOTH",
"430 -12 OFFCURVE",
"492 123 OFFCURVE",
"492 209 CURVE SMOOTH",
"492 327 OFFCURVE",
"408 368 OFFCURVE",
"312 398 CURVE SMOOTH",
"211 432 OFFCURVE",
"183 459 OFFCURVE",
"183 511 CURVE SMOOTH",
"183 583 OFFCURVE",
"250 623 OFFCURVE",
"325 623 CURVE SMOOTH",
"379 623 OFFCURVE",
"424 607 OFFCURVE",
"468 563 CURVE",
"527 618 LINE",
"476 671 OFFCURVE",
"414 701 OFFCURVE",
"323 701 CURVE SMOOTH"
);
}
);
width = 539;
}
);
leftKerningGroup = S;
rightKerningGroup = S;
unicode = 0053;
},
{
color = 7;
glyphname = Scedilla;
lastChange = "2014-04-26 15:52:18 +0100";
layers = (
{
background = {
paths = (
{
closed = 1;
nodes = (
"204 -173 OFFCURVE",
"177 -164 OFFCURVE",
"155 -152 CURVE",
"102 -237 LINE",
"133 -256 OFFCURVE",
"186 -275 OFFCURVE",
"237 -275 CURVE SMOOTH",
"342 -275 OFFCURVE",
"403 -222 OFFCURVE",
"403 -147 CURVE SMOOTH",
"403 -96 OFFCURVE",
"368 -55 OFFCURVE",
"305 -43 CURVE",
"308 -18 LINE",
"478 -3 OFFCURVE",
"563 95 OFFCURVE",
"563 217 CURVE SMOOTH",
"563 313 OFFCURVE",
"512 389 OFFCURVE",
"383 437 CURVE SMOOTH",
"290 472 OFFCURVE",
"273 488 OFFCURVE",
"273 521 CURVE SMOOTH",
"273 551 OFFCURVE",
"295 574 OFFCURVE",
"347 574 CURVE SMOOTH",
"401 574 OFFCURVE",
"456 549 OFFCURVE",
"498 513 CURVE",
"600 622 LINE",
"538 681 OFFCURVE",
"452 716 OFFCURVE",
"340 716 CURVE SMOOTH",
"164 716 OFFCURVE",
"56 624 OFFCURVE",
"56 502 CURVE SMOOTH",
"56 395 OFFCURVE",
"111 333 OFFCURVE",
"254 283 CURVE SMOOTH",
"328 257 OFFCURVE",
"346 234 OFFCURVE",
"346 196 CURVE SMOOTH",
"346 157 OFFCURVE",
"311 132 OFFCURVE",
"258 132 CURVE SMOOTH",
"203 132 OFFCURVE",
"147 156 OFFCURVE",
"93 207 CURVE",
"-20 96 LINE",
"26 46 OFFCURVE",
"111 -1 OFFCURVE",
"205 -15 CURVE",
"175 -118 LINE",
"251 -118 OFFCURVE",
"265 -126 OFFCURVE",
"265 -146 CURVE SMOOTH",
"265 -162 OFFCURVE",
"255 -173 OFFCURVE",
"226 -173 CURVE SMOOTH"
);
}
);
};
components = (
{
name = S;
transform = "{1, 0, 0, 1, 0, 0}";
},
{
name = cedilla.case;
transform = "{1, 0, 0, 1, 140, 0}";
}
);
layerId = UUID0;
name = "Bold Italic";
width = 576;
},
{
components = (
{
name = S;
transform = "{1, 0, 0, 1, 0, 0}";
},
{
name = cedilla.case;
transform = "{1, 0, 0, 1, 186, 0}";
}
);
layerId = "F257A41E-77B2-4FB8-8247-C188CBBE1401";
name = "Light Italic";
width = 540;
},
{
background = {
paths = (
{
closed = 1;
nodes = (
"183 -182 OFFCURVE",
"164 -175 OFFCURVE",
"147 -165 CURVE",
"121 -203 LINE",
"144 -217 OFFCURVE",
"173 -226 OFFCURVE",
"210 -226 CURVE SMOOTH",
"276 -226 OFFCURVE",
"319 -188 OFFCURVE",
"319 -135 CURVE SMOOTH",
"319 -97 OFFCURVE",
"295 -73 OFFCURVE",
"243 -67 CURVE",
"252 -11 LINE",
"396 -10 OFFCURVE",
"486 75 OFFCURVE",
"486 200 CURVE SMOOTH",
"486 282 OFFCURVE",
"442 336 OFFCURVE",
"301 391 CURVE SMOOTH",
"181 438 OFFCURVE",
"153 466 OFFCURVE",
"153 526 CURVE SMOOTH",
"153 596 OFFCURVE",
"210 645 OFFCURVE",
"307 645 CURVE SMOOTH",
"373 645 OFFCURVE",
"430 626 OFFCURVE",
"473 584 CURVE",
"508 625 LINE",
"461 669 OFFCURVE",
"386 696 OFFCURVE",
"308 696 CURVE SMOOTH",
"174 696 OFFCURVE",
"91 624 OFFCURVE",
"91 526 CURVE SMOOTH",
"91 443 OFFCURVE",
"135 392 OFFCURVE",
"269 342 CURVE SMOOTH",
"397 294 OFFCURVE",
"424 260 OFFCURVE",
"424 197 CURVE SMOOTH",
"424 105 OFFCURVE",
"358 40 OFFCURVE",
"249 40 CURVE SMOOTH",
"174 40 OFFCURVE",
"107 74 OFFCURVE",
"62 119 CURVE",
"22 78 LINE",
"64 33 OFFCURVE",
"132 0 OFFCURVE",
"209 -8 CURVE",
"187 -98 LINE",
"240 -99 OFFCURVE",
"261 -111 OFFCURVE",
"261 -136 CURVE SMOOTH",
"261 -165 OFFCURVE",
"242 -182 OFFCURVE",
"210 -182 CURVE SMOOTH"
);
}
);
};
components = (
{
name = S;
transform = "{1, 0, 0, 1, 0, 0}";
},
{
name = cedilla.case;
transform = "{1, 0, 0, 1, 165, 0}";
}
);
layerId = "BCC09A48-EAE1-493E-95CB-92D2C26BC05D";
name = "Regular Italic";
width = 534;
},
{
background = {
paths = (
{
closed = 1;
nodes = (
"182 -181 OFFCURVE",
"153 -173 OFFCURVE",
"135 -163 CURVE",
"101 -214 LINE",
"125 -229 OFFCURVE",
"165 -241 OFFCURVE",
"206 -241 CURVE SMOOTH",
"283 -241 OFFCURVE",
"334 -194 OFFCURVE",
"334 -136 CURVE SMOOTH",
"334 -93 OFFCURVE",
"303 -61 OFFCURVE",
"249 -56 CURVE",
"256 -11 LINE",
"394 -2 OFFCURVE",
"487 92 OFFCURVE",
"487 204 CURVE SMOOTH",
"487 302 OFFCURVE",
"437 357 OFFCURVE",
"308 400 CURVE SMOOTH",
"193 438 OFFCURVE",
"170 465 OFFCURVE",
"170 518 CURVE SMOOTH",
"170 583 OFFCURVE",
"217 622 OFFCURVE",
"292 622 CURVE SMOOTH",
"361 622 OFFCURVE",
"406 604 OFFCURVE",
"453 563 CURVE",
"507 625 LINE",
"446 678 OFFCURVE",
"382 701 OFFCURVE",
"293 701 CURVE SMOOTH",
"158 701 OFFCURVE",
"71 616 OFFCURVE",
"71 518 CURVE SMOOTH",
"71 425 OFFCURVE",
"119 366 OFFCURVE",
"254 323 CURVE SMOOTH",
"361 289 OFFCURVE",
"387 258 OFFCURVE",
"387 199 CURVE SMOOTH",
"387 124 OFFCURVE",
"319 68 OFFCURVE",
"235 68 CURVE SMOOTH",
"173 68 OFFCURVE",
"126 84 OFFCURVE",
"61 140 CURVE",
"1 80 LINE",
"45 34 OFFCURVE",
"114 -1 OFFCURVE",
"197 -10 CURVE",
"174 -99 LINE",
"236 -99 OFFCURVE",
"256 -112 OFFCURVE",
"256 -136 CURVE SMOOTH",
"256 -165 OFFCURVE",
"239 -181 OFFCURVE",
"204 -181 CURVE SMOOTH"
);
}
);
};
components = (
{
name = S;
transform = "{1, 0, 0, 1, 0, 0}";
},
{
name = cedilla.case;
transform = "{1, 0, 0, 1, 145, 0}";
}
);
layerId = "A11F629A-ECF3-413E-B2EC-6C6F8C33A243";
name = "Regular Italic";
width = 539;
}
);
leftKerningGroup = S;
rightKerningGroup = S;
unicode = 015E;
},
{
color = 4;
glyphname = T;
lastChange = "2014-04-26 15:52:18 +0100";
layers = (
{
anchors = (
{
name = bottom;
position = "{234, 0}";
},
{
name = bottomright;
position = "{345, 0}";
},
{
name = center;
position = "{283, 348}";
},
{
name = top;
position = "{331, 696}";
}
);
background = {
paths = (
{
closed = 1;
nodes = (
"569 542 LINE",
"609 696 LINE",
"55 696 LINE",
"36 542 LINE",
"205 542 LINE",
"139 0 LINE",
"345 0 LINE",
"411 542 LINE"
);
}
);
};
layerId = UUID0;
name = "Bold Italic";
paths = (
{
closed = 1;
nodes = (
"64 696 LINE",
"43 542 LINE",
"209 542 LINE",
"133 0 LINE",
"335 0 LINE",
"411 542 LINE",
"566 542 LINE",
"608 696 LINE"
);
}
);
width = 542;
},
{
anchors = (
{
name = bottom;
position = "{200, 0}";
},
{
name = bottomright;
position = "{211, 0}";
},
{
name = center;
position = "{235, 340}";
},
{
name = top;
position = "{282, 680}";
}
);
layerId = "F257A41E-77B2-4FB8-8247-C188CBBE1401";
name = "Light Italic";
paths = (
{
closed = 1;
nodes = (
"79 680 LINE",
"79 678 LINE",
"294 678 LINE",
"199 0 LINE",
"201 0 LINE",
"296 678 LINE",
"511 678 LINE",
"511 680 LINE"
);
}
);
width = 472;
},
{
anchors = (
{
name = bottom;
position = "{202, 0}";
},
{
name = bottomright;
position = "{227, 0}";
},
{
name = top;
position = "{288, 682}";
}
);
background = {
paths = (
{
closed = 1;
nodes = (
"244 0 LINE",
"321 633 LINE",
"517 633 LINE",
"531 685 LINE",
"67 685 LINE",
"60 633 LINE",
"262 633 LINE",
"185 0 LINE"
);
}
);
};
layerId = "BCC09A48-EAE1-493E-95CB-92D2C26BC05D";
name = "Regular Italic";
paths = (
{
closed = 1;
nodes = (
"74 682 LINE",
"70 652 LINE",
"278 652 LINE",
"186 0 LINE",
"217 0 LINE",
"309 652 LINE",
"517 652 LINE",
"526 682 LINE"
);
}
);
width = 477;
},
{
anchors = (
{
name = bottom;
position = "{219, 0}";
},
{
name = bottomright;
position = "{275, 0}";
},
{
name = center;
position = "{267, 345}";
},
{
name = top;
position = "{316, 689}";
}
);
background = {
paths = (
{
closed = 1;
nodes = (
"533 608 LINE",
"553 689 LINE",
"60 689 LINE",
"50 608 LINE",
"248 608 LINE",
"174 0 LINE",
"269 0 LINE",
"343 608 LINE"
);
}
);
};
layerId = "A11F629A-ECF3-413E-B2EC-6C6F8C33A243";
name = "Regular Italic";
paths = (
{
closed = 1;
nodes = (
"74 689 LINE",
"62 608 LINE",
"256 608 LINE",
"171 0 LINE",
"266 0 LINE",
"351 608 LINE",
"540 608 LINE",
"562 689 LINE"
);
}
);
width = 511;
}
);
leftKerningGroup = T;
rightKerningGroup = T;
unicode = 0054;
},
{
color = 4;
glyphname = Tbar;
lastChange = "2014-04-30 11:33:29 +0100";
layers = (
{
background = {
paths = (
{
closed = 1;
nodes = (
"503 391 LINE",
"392 391 LINE",
"411 542 LINE",
"569 542 LINE",
"609 696 LINE",
"55 696 LINE",
"36 542 LINE",
"205 542 LINE",
"186 391 LINE",
"79 391 LINE",
"65 285 LINE",
"173 285 LINE",
"139 0 LINE",
"345 0 LINE",
"379 285 LINE",
"489 285 LINE"
);
}
);
};
layerId = UUID0;
name = "Bold Italic";
paths = (
{
closed = 1;
nodes = (
"566 542 LINE",
"608 696 LINE",
"64 696 LINE",
"43 542 LINE",
"209 542 LINE",
"187.827 391 LINE",
"79 391 LINE",
"65 285 LINE",
"172.963 285 LINE",
"133 0 LINE",
"335 0 LINE",
"374.963 285 LINE",
"482 285 LINE",
"496 391 LINE",
"389.827 391 LINE",
"411 542 LINE"
);
}
);
width = 542;
},
{
layerId = "F257A41E-77B2-4FB8-8247-C188CBBE1401";
name = "Light Italic";
paths = (
{
closed = 1;
nodes = (
"511 678 LINE",
"511 680 LINE",
"79 680 LINE",
"79 678 LINE",
"294 678 LINE",
"252 376 LINE",
"129 376 LINE",
"129 374 LINE",
"252 374 LINE",
"199 0 LINE",
"201 0 LINE",
"254 374 LINE",
"377 374 LINE",
"377 376 LINE",
"254 376 LINE",
"296 678 LINE"
);
}
);
width = 455;
},
{
background = {
paths = (
{
closed = 1;
nodes = (
"244 0 LINE",
"289 374 LINE",
"413 374 LINE",
"419 422 LINE",
"295 422 LINE",
"321 633 LINE",
"517 633 LINE",
"531 685 LINE",
"67 685 LINE",
"60 633 LINE",
"262 633 LINE",
"236 422 LINE",
"112 422 LINE",
"106 374 LINE",
"230 374 LINE",
"185 0 LINE"
);
}
);
};
layerId = "BCC09A48-EAE1-493E-95CB-92D2C26BC05D";
name = "Regular Italic";
paths = (
{
closed = 1;
nodes = (
"517 652 LINE",
"526 682 LINE",
"74 682 LINE",
"70 652 LINE",
"278 652 LINE",
"240 382 LINE",
"118 382 LINE",
"114 354 LINE",
"236 354 LINE",
"186 0 LINE",
"217 0 LINE",
"267 354 LINE",
"393 354 LINE",
"397 382 LINE",
"271 382 LINE",
"309 652 LINE"
);
}
);
width = 485;
},
{
background = {
paths = (
{
closed = 1;
nodes = (
"447 433 LINE",
"322 433 LINE",
"343 608 LINE",
"532 608 LINE",
"553 689 LINE",
"60 689 LINE",
"50 608 LINE",
"248 608 LINE",
"227 433 LINE",
"103 433 LINE",
"94 363 LINE",
"218 363 LINE",
"174 0 LINE",
"269 0 LINE",
"313 363 LINE",
"438 363 LINE"
);
}
);
};
layerId = "A11F629A-ECF3-413E-B2EC-6C6F8C33A243";
name = "Regular Italic";
paths = (
{
closed = 1;
nodes = (
"540 608 LINE",
"562 689 LINE",
"74 689 LINE",
"62 608 LINE",
"256 608 LINE",
"225 389 LINE",
"104 389 LINE",
"95 319 LINE",
"216 319 LINE",
"171 0 LINE",
"266 0 LINE",
"311 319 LINE",
"434 319 LINE",
"443 389 LINE",
"320 389 LINE",
"351 608 LINE"
);
}
);
width = 513;
}
);
leftKerningGroup = T;
rightKerningGroup = T;
unicode = 0166;
},
{
color = 7;
glyphname = Tcedilla;
lastChange = "2014-04-26 15:52:18 +0100";
layers = (
{
background = {
paths = (
{
closed = 1;
nodes = (
"239 -173 OFFCURVE",
"212 -164 OFFCURVE",
"190 -152 CURVE",
"137 -237 LINE",
"168 -256 OFFCURVE",
"221 -275 OFFCURVE",
"272 -275 CURVE SMOOTH",
"377 -275 OFFCURVE",
"438 -222 OFFCURVE",
"438 -147 CURVE SMOOTH",
"438 -96 OFFCURVE",
"403 -55 OFFCURVE",
"340 -43 CURVE",
"411 542 LINE",
"569 542 LINE",
"609 696 LINE",
"55 696 LINE",
"36 542 LINE",
"205 542 LINE",
"139 0 LINE",
"244 0 LINE",
"210 -118 LINE",
"286 -118 OFFCURVE",
"300 -126 OFFCURVE",
"300 -146 CURVE SMOOTH",
"300 -162 OFFCURVE",
"290 -173 OFFCURVE",
"261 -173 CURVE SMOOTH"
);
}
);
};
components = (
{
name = T;
transform = "{1, 0, 0, 1, 0, 0}";
},
{
name = cedillaTcedilla;
transform = "{1, 0, 0, 1, 127, 0}";
}
);
layerId = UUID0;
name = "Bold Italic";
width = 542;
},
{
components = (
{
name = T;
transform = "{1, 0, 0, 1, 0, 0}";
},
{
name = cedillaTcedilla;
transform = "{1, 0, 0, 1, 163, 0}";
}
);
layerId = "F257A41E-77B2-4FB8-8247-C188CBBE1401";
name = "Light Italic";
width = 472;
},
{
background = {
paths = (
{
closed = 1;
nodes = (
"173 -182 OFFCURVE",
"154 -175 OFFCURVE",
"137 -165 CURVE",
"111 -203 LINE",
"134 -217 OFFCURVE",
"163 -226 OFFCURVE",
"200 -226 CURVE SMOOTH",
"266 -226 OFFCURVE",
"309 -188 OFFCURVE",
"309 -135 CURVE SMOOTH",
"309 -97 OFFCURVE",
"288 -77 OFFCURVE",
"236 -67 CURVE",
"321 633 LINE",
"517 633 LINE",
"531 685 LINE",
"67 685 LINE",
"60 633 LINE",
"262 633 LINE",
"185 0 LINE",
"205 0 LINE",
"181 -98 LINE",
"229 -99 OFFCURVE",
"251 -111 OFFCURVE",
"251 -136 CURVE SMOOTH",
"251 -165 OFFCURVE",
"232 -182 OFFCURVE",
"200 -182 CURVE SMOOTH"
);
}
);
};
components = (
{
name = T;
transform = "{1, 0, 0, 1, 0, 0}";
},
{
name = cedillaTcedilla;
transform = "{1, 0, 0, 1, 149, 0}";
}
);
layerId = "BCC09A48-EAE1-493E-95CB-92D2C26BC05D";
name = "Regular Italic";
width = 477;
},
{
background = {
paths = (
{
closed = 1;
nodes = (
"192 -181 OFFCURVE",
"163 -173 OFFCURVE",
"145 -163 CURVE",
"111 -214 LINE",
"135 -229 OFFCURVE",
"175 -241 OFFCURVE",
"216 -241 CURVE SMOOTH",
"293 -241 OFFCURVE",
"344 -194 OFFCURVE",
"344 -136 CURVE SMOOTH",
"344 -93 OFFCURVE",
"312 -61 OFFCURVE",
"262 -56 CURVE",
"343 608 LINE",
"533 608 LINE",
"553 689 LINE",
"60 689 LINE",
"50 608 LINE",
"248 608 LINE",
"174 0 LINE",
"212 0 LINE",
"186 -99 LINE",
"246 -99 OFFCURVE",
"266 -112 OFFCURVE",
"266 -136 CURVE SMOOTH",
"266 -165 OFFCURVE",
"249 -181 OFFCURVE",
"214 -181 CURVE SMOOTH"
);
}
);
};
components = (
{
name = T;
transform = "{1, 0, 0, 1, 0, 0}";
},
{
name = cedillaTcedilla;
transform = "{1, 0, 0, 1, 140, 0}";
}
);
layerId = "A11F629A-ECF3-413E-B2EC-6C6F8C33A243";
name = "Regular Italic";
width = 511;
}
);
leftKerningGroup = T;
rightKerningGroup = T;
unicode = 0162;
},
{
color = 4;
glyphname = U;
lastChange = "2014-04-26 15:52:18 +0100";
layers = (
{
anchors = (
{
name = ogonek;
position = "{414, 0}";
},
{
name = top;
position = "{376, 696}";
}
);
background = {
paths = (
{
closed = 1;
nodes = (
"455 696 LINE",
"400 242 LINE SMOOTH",
"391 165 OFFCURVE",
"363 128 OFFCURVE",
"303 128 CURVE SMOOTH",
"253 128 OFFCURVE",
"232 154 OFFCURVE",
"232 208 CURVE SMOOTH",
"232 218 OFFCURVE",
"233 230 OFFCURVE",
"234 242 CURVE SMOOTH",
"289 696 LINE",
"83 696 LINE",
"29 262 LINE SMOOTH",
"27 245 OFFCURVE",
"26 229 OFFCURVE",
"26 214 CURVE SMOOTH",
"26 71 OFFCURVE",
"114 -20 OFFCURVE",
"298 -20 CURVE SMOOTH",
"487 -20 OFFCURVE",
"584 77 OFFCURVE",
"604 236 CURVE SMOOTH",
"661 696 LINE"
);
}
);
};
layerId = UUID0;
leftMetricsKey = "=H-10";
rightMetricsKey = "=H-10";
name = "Bold Italic";
paths = (
{
closed = 1;
nodes = (
"457 696 LINE",
"393 243 LINE SMOOTH",
"382 166 OFFCURVE",
"354 128 OFFCURVE",
"294 128 CURVE SMOOTH",
"236 128 OFFCURVE",
"220 164 OFFCURVE",
"231 241 CURVE SMOOTH",
"295 696 LINE",
"93 696 LINE",
"29 237 LINE SMOOTH",
"8 85 OFFCURVE",
"85 -20 OFFCURVE",
"278 -20 CURVE SMOOTH",
"469 -20 OFFCURVE",
"575 93 OFFCURVE",
"595 235 CURVE SMOOTH",
"659 696 LINE"
);
}
);
width = 631.973;
},
{
anchors = (
{
name = ogonek;
position = "{361, 0}";
},
{
name = top;
position = "{381, 680}";
}
);
layerId = "F257A41E-77B2-4FB8-8247-C188CBBE1401";
leftMetricsKey = "=H-10";
rightMetricsKey = "=H-10";
name = "Light Italic";
paths = (
{
closed = 1;
nodes = (
"571 680 LINE",
"504 206 LINE SMOOTH",
"488 84 OFFCURVE",
"423 -7 OFFCURVE",
"280 -7 CURVE SMOOTH",
"136 -7 OFFCURVE",
"98 84 OFFCURVE",
"114 206 CURVE SMOOTH",
"181 680 LINE",
"179 680 LINE",
"112 206 LINE SMOOTH",
"96 83 OFFCURVE",
"134 -9 OFFCURVE",
"280 -9 CURVE SMOOTH",
"424 -9 OFFCURVE",
"490 83 OFFCURVE",
"506 206 CURVE SMOOTH",
"573 680 LINE"
);
}
);
width = 633.432;
},
{
anchors = (
{
name = ogonek;
position = "{370, 0}";
},
{
name = top;
position = "{384, 682}";
}
);
background = {
paths = (
{
closed = 1;
nodes = (
"146 685 LINE",
"88 218 LINE SMOOTH",
"86 204 OFFCURVE",
"85 191 OFFCURVE",
"85 178 CURVE SMOOTH",
"85 55 OFFCURVE",
"163 -11 OFFCURVE",
"291 -11 CURVE SMOOTH",
"439 -11 OFFCURVE",
"522 69 OFFCURVE",
"540 218 CURVE SMOOTH",
"598 685 LINE",
"539 685 LINE",
"482 221 LINE SMOOTH",
"467 97 OFFCURVE",
"398 40 OFFCURVE",
"292 40 CURVE SMOOTH",
"199 40 OFFCURVE",
"146 86 OFFCURVE",
"146 183 CURVE SMOOTH",
"146 195 OFFCURVE",
"146 208 OFFCURVE",
"148 221 CURVE SMOOTH",
"205 685 LINE"
);
}
);
};
layerId = "BCC09A48-EAE1-493E-95CB-92D2C26BC05D";
leftMetricsKey = "=H-10";
rightMetricsKey = "=H-10";
name = "Regular Italic";
paths = (
{
closed = 1;
nodes = (
"561 682 LINE",
"495 212 LINE SMOOTH",
"480 101 OFFCURVE",
"416 19 OFFCURVE",
"286 19 CURVE SMOOTH",
"159 19 OFFCURVE",
"118 96 OFFCURVE",
"134 210 CURVE SMOOTH",
"200 682 LINE",
"169 682 LINE",
"103 209 LINE SMOOTH",
"85 82 OFFCURVE",
"136 -10 OFFCURVE",
"286 -10 CURVE SMOOTH",
"432 -10 OFFCURVE",
"508 80 OFFCURVE",
"526 207 CURVE SMOOTH",
"592 682 LINE"
);
}
);
width = 643.757;
},
{
anchors = (
{
name = ogonek;
position = "{387, 0}";
},
{
name = top;
position = "{388, 689}";
}
);
background = {
paths = (
{
closed = 1;
nodes = (
"621 689 LINE",
"525 689 LINE",
"467 224 LINE SMOOTH",
"455 124 OFFCURVE",
"397 68 OFFCURVE",
"306 68 CURVE SMOOTH",
"220 68 OFFCURVE",
"175 105 OFFCURVE",
"175 196 CURVE SMOOTH",
"175 210 OFFCURVE",
"176 225 OFFCURVE",
"178 242 CURVE SMOOTH",
"234 689 LINE",
"139 689 LINE",
"84 241 LINE SMOOTH",
"82 225 OFFCURVE",
"81 209 OFFCURVE",
"81 194 CURVE SMOOTH",
"81 60 OFFCURVE",
"162 -12 OFFCURVE",
"307 -12 CURVE SMOOTH",
"445 -12 OFFCURVE",
"545 74 OFFCURVE",
"564 228 CURVE SMOOTH"
);
}
);
};
layerId = "A11F629A-ECF3-413E-B2EC-6C6F8C33A243";
name = "Regular Italic";
paths = (
{
closed = 1;
nodes = (
"532 689 LINE",
"467 231 LINE SMOOTH",
"452 124 OFFCURVE",
"396 68 OFFCURVE",
"296 68 CURVE SMOOTH",
"201 68 OFFCURVE",
"163 118 OFFCURVE",
"178 225 CURVE SMOOTH",
"243 689 LINE",
"149 689 LINE",
"83 224 LINE SMOOTH",
"64 87 OFFCURVE",
"135 -12 OFFCURVE",
"292 -12 CURVE SMOOTH",
"444 -12 OFFCURVE",
"541 81 OFFCURVE",
"561 218 CURVE SMOOTH",
"627 689 LINE"
);
}
);
width = 656.195;
}
);
leftKerningGroup = U;
leftMetricsKey = "=H-10";
rightKerningGroup = U;
rightMetricsKey = "=H-10";
unicode = 0055;
},
{
color = 7;
glyphname = Uogonek;
lastChange = "2014-04-26 15:52:18 +0100";
layers = (
{
background = {
paths = (
{
closed = 1;
nodes = (
"455 696 LINE",
"400 242 LINE SMOOTH",
"391 165 OFFCURVE",
"363 128 OFFCURVE",
"303 128 CURVE SMOOTH",
"253 128 OFFCURVE",
"232 154 OFFCURVE",
"232 208 CURVE SMOOTH",
"232 218 OFFCURVE",
"233 230 OFFCURVE",
"234 242 CURVE SMOOTH",
"289 696 LINE",
"83 696 LINE",
"29 262 LINE SMOOTH",
"27 245 OFFCURVE",
"26 229 OFFCURVE",
"26 213 CURVE SMOOTH",
"26 74 OFFCURVE",
"110 -16 OFFCURVE",
"284 -20 CURVE",
"220 -59 OFFCURVE",
"191 -108 OFFCURVE",
"191 -158 CURVE SMOOTH",
"191 -225 OFFCURVE",
"245 -267 OFFCURVE",
"329 -267 CURVE SMOOTH",
"367 -267 OFFCURVE",
"422 -256 OFFCURVE",
"461 -239 CURVE",
"431 -147 LINE",
"415 -155 OFFCURVE",
"389 -162 OFFCURVE",
"362 -162 CURVE SMOOTH",
"338 -162 OFFCURVE",
"322 -148 OFFCURVE",
"322 -123 CURVE SMOOTH",
"322 -82 OFFCURVE",
"351 -40 OFFCURVE",
"430 0 CURVE",
"533 36 OFFCURVE",
"589 119 OFFCURVE",
"604 236 CURVE SMOOTH",
"661 696 LINE"
);
}
);
};
components = (
{
name = U;
transform = "{1, 0, 0, 1, 0, 0}";
},
{
name = ogonek.thin;
transform = "{1, 0, 0, 1, 196, 0}";
}
);
layerId = UUID0;
name = "Bold Italic";
width = 632;
},
{
components = (
{
name = U;
transform = "{1, 0, 0, 1, 0, 0}";
},
{
name = ogonek.thin;
transform = "{1, 0, 0, 1, 228, 0}";
}
);
layerId = "F257A41E-77B2-4FB8-8247-C188CBBE1401";
name = "Light Italic";
width = 633;
},
{
background = {
paths = (
{
closed = 1;
nodes = (
"146 685 LINE",
"88 218 LINE SMOOTH",
"86 204 OFFCURVE",
"85 191 OFFCURVE",
"85 178 CURVE SMOOTH",
"85 55 OFFCURVE",
"163 -11 OFFCURVE",
"291 -11 CURVE SMOOTH",
"303 -11 LINE",
"254 -45 OFFCURVE",
"221 -95 OFFCURVE",
"221 -145 CURVE SMOOTH",
"221 -192 OFFCURVE",
"253 -226 OFFCURVE",
"321 -226 CURVE SMOOTH",
"352 -226 OFFCURVE",
"371 -221 OFFCURVE",
"401 -210 CURVE",
"389 -172 LINE",
"374 -178 OFFCURVE",
"356 -182 OFFCURVE",
"333 -182 CURVE SMOOTH",
"296 -182 OFFCURVE",
"278 -161 OFFCURVE",
"278 -132 CURVE SMOOTH",
"278 -69 OFFCURVE",
"332 -27 OFFCURVE",
"384 2 CURVE",
"474 30 OFFCURVE",
"526 104 OFFCURVE",
"540 218 CURVE SMOOTH",
"598 685 LINE",
"539 685 LINE",
"482 221 LINE SMOOTH",
"467 97 OFFCURVE",
"398 40 OFFCURVE",
"292 40 CURVE SMOOTH",
"199 40 OFFCURVE",
"146 86 OFFCURVE",
"146 183 CURVE SMOOTH",
"146 195 OFFCURVE",
"146 208 OFFCURVE",
"148 221 CURVE SMOOTH",
"205 685 LINE"
);
}
);
};
components = (
{
name = U;
transform = "{1, 0, 0, 1, 0, 0}";
},
{
name = ogonek.thin;
transform = "{1, 0, 0, 1, 208, 0}";
}
);
layerId = "BCC09A48-EAE1-493E-95CB-92D2C26BC05D";
name = "Regular Italic";
width = 644;
},
{
background = {
paths = (
{
closed = 1;
nodes = (
"621 689 LINE",
"525 689 LINE",
"467 224 LINE SMOOTH",
"455 124 OFFCURVE",
"397 68 OFFCURVE",
"306 68 CURVE SMOOTH",
"220 68 OFFCURVE",
"175 105 OFFCURVE",
"175 196 CURVE SMOOTH",
"175 210 OFFCURVE",
"176 225 OFFCURVE",
"178 242 CURVE SMOOTH",
"234 689 LINE",
"139 689 LINE",
"84 241 LINE SMOOTH",
"82 224 OFFCURVE",
"81 208 OFFCURVE",
"81 193 CURVE SMOOTH",
"81 63 OFFCURVE",
"157 -8 OFFCURVE",
"294 -12 CURVE",
"238 -48 OFFCURVE",
"206 -97 OFFCURVE",
"206 -146 CURVE SMOOTH",
"206 -204 OFFCURVE",
"247 -241 OFFCURVE",
"324 -241 CURVE SMOOTH",
"358 -241 OFFCURVE",
"390 -235 OFFCURVE",
"424 -219 CURVE",
"405 -165 LINE",
"393 -172 OFFCURVE",
"369 -180 OFFCURVE",
"342 -180 CURVE SMOOTH",
"301 -180 OFFCURVE",
"283 -162 OFFCURVE",
"283 -136 CURVE SMOOTH",
"283 -102 OFFCURVE",
"303 -49 OFFCURVE",
"385 -2 CURVE",
"482 25 OFFCURVE",
"549 105 OFFCURVE",
"564 228 CURVE SMOOTH"
);
}
);
};
components = (
{
name = U;
transform = "{1, 0, 0, 1, 0, 0}";
},
{
name = ogonek.thin;
transform = "{1, 0, 0, 1, 179, 0}";
}
);
layerId = "A11F629A-ECF3-413E-B2EC-6C6F8C33A243";
name = "Regular Italic";
width = 656;
}
);
leftKerningGroup = U;
rightKerningGroup = U;
unicode = 0172;
},
{
color = 4;
glyphname = V;
lastChange = "2014-05-14 15:40:55 +0100";
layers = (
{
background = {
paths = (
{
closed = 1;
nodes = (
"253 696 LINE",
"41 696 LINE",
"137 0 LINE",
"403 0 LINE",
"670 696 LINE",
"454 696 LINE",
"289 155 LINE",
"284 155 LINE"
);
}
);
};
layerId = UUID0;
name = "Bold Italic";
paths = (
{
closed = 1;
nodes = (
"444 696 LINE",
"274 143 LINE",
"247 696 LINE",
"36 696 LINE",
"123 0 LINE",
"383 0 LINE",
"653 696 LINE"
);
}
);
width = 567.184;
},
{
layerId = "F257A41E-77B2-4FB8-8247-C188CBBE1401";
leftMetricsKey = A;
rightMetricsKey = A;
name = "Light Italic";
paths = (
{
closed = 1;
nodes = (
"546 680 LINE",
"228 2 LINE",
"97 680 LINE",
"95 680 LINE",
"227 0 LINE",
"229 0 LINE",
"548 680 LINE"
);
}
);
width = 523.432;
},
{
background = {
paths = (
{
closed = 1;
nodes = (
"513 685 LINE",
"243 65 LINE",
"241 65 LINE",
"125 685 LINE",
"62 685 LINE",
"203 0 LINE",
"269 0 LINE",
"576 685 LINE"
);
}
);
};
layerId = "BCC09A48-EAE1-493E-95CB-92D2C26BC05D";
rightMetricsKey = A;
name = "Regular Italic";
paths = (
{
closed = 1;
nodes = (
"539 682 LINE",
"235 29 LINE",
"116 682 LINE",
"84 682 LINE",
"212 0 LINE",
"251 0 LINE",
"572 682 LINE"
);
}
);
width = 538.151;
},
{
background = {
paths = (
{
closed = 1;
nodes = (
"261 105 LINE",
"157 689 LINE",
"58 689 LINE",
"201 0 LINE",
"303 0 LINE",
"613 689 LINE",
"514 689 LINE",
"264 105 LINE"
);
}
);
};
layerId = "A11F629A-ECF3-413E-B2EC-6C6F8C33A243";
leftMetricsKey = A;
rightMetricsKey = A;
name = "Regular Italic";
paths = (
{
closed = 1;
nodes = (
"506 689 LINE",
"251 103 LINE",
"163 689 LINE",
"65 689 LINE",
"188 0 LINE",
"289 0 LINE",
"604 689 LINE"
);
}
);
width = 550.167;
}
);
leftKerningGroup = V;
leftMetricsKey = A;
rightKerningGroup = V;
rightMetricsKey = A;
unicode = 0056;
},
{
color = 4;
glyphname = W;
lastChange = "2014-04-26 15:52:18 +0100";
layers = (
{
anchors = (
{
name = top;
position = "{486, 696}";
}
);
background = {
paths = (
{
closed = 1;
nodes = (
"909 696 LINE",
"707 696 LINE",
"586 155 LINE",
"582 155 LINE",
"585 696 LINE",
"370 696 LINE",
"235 155 LINE",
"231 155 LINE",
"252 696 LINE",
"50 696 LINE",
"62 0 LINE",
"324 0 LINE",
"450 486 LINE",
"454 486 LINE",
"455 0 LINE",
"723 0 LINE"
);
}
);
};
layerId = UUID0;
name = "Bold Italic";
paths = (
{
closed = 1;
nodes = (
"709 696 LINE",
"574 149 LINE",
"590 696 LINE",
"378 696 LINE",
"229 149 LINE",
"262 696 LINE",
"62 696 LINE",
"61 0 LINE",
"317 0 LINE",
"455 500 LINE",
"446 0 LINE",
"709 0 LINE",
"905 696 LINE"
);
}
);
width = 847;
},
{
anchors = (
{
name = top;
position = "{447, 680}";
}
);
layerId = "F257A41E-77B2-4FB8-8247-C188CBBE1401";
name = "Light Italic";
paths = (
{
closed = 1;
nodes = (
"788 680 LINE",
"534 3 LINE",
"448 680 LINE",
"446 680 LINE",
"170 2 LINE",
"106 680 LINE",
"104 680 LINE",
"169 0 LINE",
"171 0 LINE",
"447 678 LINE",
"533 0 LINE",
"535 0 LINE",
"790 680 LINE"
);
}
);
width = 776;
},
{
anchors = (
{
name = top;
position = "{457, 682}";
}
);
background = {
paths = (
{
closed = 1;
nodes = (
"474 685 LINE",
"409 685 LINE",
"182 64 LINE",
"180 64 LINE",
"130 685 LINE",
"72 685 LINE",
"137 0 LINE",
"210 0 LINE",
"433 610 LINE",
"435 610 LINE",
"512 0 LINE",
"585 0 LINE",
"818 685 LINE",
"761 685 LINE",
"555 64 LINE",
"553 64 LINE"
);
}
);
};
layerId = "BCC09A48-EAE1-493E-95CB-92D2C26BC05D";
name = "Regular Italic";
paths = (
{
closed = 1;
nodes = (
"788 682 LINE",
"551 33 LINE",
"476 682 LINE",
"437 682 LINE",
"181 35 LINE",
"126 682 LINE",
"94 682 LINE",
"157 0 LINE",
"193 0 LINE",
"453 651 LINE",
"529 0 LINE",
"565 0 LINE",
"820 682 LINE"
);
}
);
width = 796;
},
{
anchors = (
{
name = top;
position = "{470, 689}";
}
);
background = {
paths = (
{
closed = 1;
nodes = (
"850 689 LINE",
"760 689 LINE",
"573 95 LINE",
"570 95 LINE",
"507 689 LINE",
"406 689 LINE",
"200 92 LINE",
"196 92 LINE",
"160 689 LINE",
"70 689 LINE",
"126 0 LINE",
"245 0 LINE",
"440 558 LINE",
"444 558 LINE",
"502 0 LINE",
"626 0 LINE"
);
}
);
};
layerId = "A11F629A-ECF3-413E-B2EC-6C6F8C33A243";
name = "Regular Italic";
paths = (
{
closed = 1;
nodes = (
"768 689 LINE",
"568 83 LINE",
"519 689 LINE",
"417 689 LINE",
"200 83 LINE",
"176 689 LINE",
"86 689 LINE",
"128 0 LINE",
"246 0 LINE",
"454 577 LINE",
"498 0 LINE",
"619 0 LINE",
"855 689 LINE"
);
}
);
width = 820;
}
);
leftKerningGroup = W;
rightKerningGroup = W;
unicode = 0057;
},
{
color = 4;
glyphname = X;
lastChange = "2014-04-26 15:52:18 +0100";
layers = (
{
anchors = (
{
name = bottomright;
position = "{498, 0}";
}
);
background = {
paths = (
{
closed = 1;
nodes = (
"188 369 LINE",
"-45 0 LINE",
"179 0 LINE",
"296 231 LINE",
"300 231 LINE",
"365 0 LINE",
"581 0 LINE",
"431 376 LINE",
"652 696 LINE",
"428 696 LINE",
"322 501 LINE",
"318 501 LINE",
"267 696 LINE",
"53 696 LINE"
);
}
);
};
layerId = UUID0;
name = "Bold Italic";
paths = (
{
closed = 1;
nodes = (
"63 696 LINE",
"187 369 LINE",
"291 249 LINE",
"351 0 LINE",
"567 0 LINE",
"429 375 LINE",
"323 486 LINE",
"278 696 LINE"
);
},
{
closed = 1;
nodes = (
"435 696 LINE",
"323 486 LINE",
"186 369 LINE",
"-47 0 LINE",
"169 0 LINE",
"291 249 LINE",
"430 375 LINE",
"650 696 LINE"
);
}
);
width = 594;
},
{
anchors = (
{
name = bottomright;
position = "{418, 0}";
}
);
layerId = "F257A41E-77B2-4FB8-8247-C188CBBE1401";
name = "Light Italic";
paths = (
{
closed = 1;
nodes = (
"110 680 LINE",
"247 370 LINE",
"249 369 LINE",
"409 0 LINE",
"411 0 LINE",
"251 370 LINE",
"249 371 LINE",
"112 680 LINE"
);
},
{
closed = 1;
nodes = (
"473 680 LINE",
"249 371 LINE",
"247 370 LINE",
"-16 0 LINE",
"-14 0 LINE",
"249 369 LINE",
"251 370 LINE",
"475 680 LINE"
);
}
);
width = 467;
},
{
anchors = (
{
name = bottomright;
position = "{416, 0}";
}
);
background = {
paths = (
{
closed = 1;
nodes = (
"267 409 LINE",
"146 685 LINE",
"79 685 LINE",
"230 368 LINE",
"-32 0 LINE",
"38 0 LINE",
"262 328 LINE",
"264 328 LINE",
"410 0 LINE",
"477 0 LINE",
"301 371 LINE",
"533 685 LINE",
"464 685 LINE",
"269 409 LINE"
);
}
);
};
layerId = "BCC09A48-EAE1-493E-95CB-92D2C26BC05D";
name = "Regular Italic";
paths = (
{
closed = 1;
nodes = (
"96 682 LINE",
"241 370 LINE",
"255 345 LINE",
"408 0 LINE",
"441 0 LINE",
"275 370 LINE",
"260 393 LINE",
"130 682 LINE"
);
},
{
closed = 1;
nodes = (
"470 682 LINE",
"260 393 LINE",
"239 370 LINE",
"-22 0 LINE",
"12 0 LINE",
"255 345 LINE",
"277 370 LINE",
"505 682 LINE"
);
}
);
width = 489;
},
{
anchors = (
{
name = bottomright;
position = "{444, 0}";
}
);
background = {
paths = (
{
closed = 1;
nodes = (
"221 367 LINE",
"-36 0 LINE",
"71 0 LINE",
"272 302 LINE",
"276 302 LINE",
"406 0 LINE",
"509 0 LINE",
"334 372 LINE",
"570 689 LINE",
"463 689 LINE",
"285 433 LINE",
"281 433 LINE",
"169 689 LINE",
"66 689 LINE"
);
}
);
};
layerId = "A11F629A-ECF3-413E-B2EC-6C6F8C33A243";
name = "Regular Italic";
paths = (
{
closed = 1;
nodes = (
"83 689 LINE",
"226 367 LINE",
"276 305 LINE",
"389 0 LINE",
"492 0 LINE",
"335 372 LINE",
"285 430 LINE",
"186 689 LINE"
);
},
{
closed = 1;
nodes = (
"463 689 LINE",
"285 430 LINE",
"223 367 LINE",
"-33 0 LINE",
"72 0 LINE",
"276 305 LINE",
"338 372 LINE",
"567 689 LINE"
);
}
);
width = 534;
}
);
leftKerningGroup = X;
rightKerningGroup = X;
unicode = 0058;
},
{
color = 4;
glyphname = Y;
lastChange = "2014-04-26 15:52:18 +0100";
layers = (
{
anchors = (
{
name = top;
position = "{364, 696}";
},
{
name = topleft;
position = "{-102, 534}";
}
);
background = {
paths = (
{
closed = 1;
nodes = (
"685 696 LINE",
"461 696 LINE",
"324 418 LINE",
"320 418 LINE",
"254 696 LINE",
"35 696 LINE",
"203 256 LINE",
"172 0 LINE",
"378 0 LINE",
"409 257 LINE"
);
}
);
};
layerId = UUID0;
name = "Bold Italic";
paths = (
{
closed = 1;
nodes = (
"467 696 LINE",
"325 412 LINE",
"262 696 LINE",
"45 696 LINE",
"202 256 LINE",
"166 0 LINE",
"368 0 LINE",
"404 257 LINE",
"683 696 LINE"
);
}
);
width = 608;
},
{
anchors = (
{
name = top;
position = "{299, 680}";
},
{
name = topleft;
position = "{28, 517}";
}
);
layerId = "F257A41E-77B2-4FB8-8247-C188CBBE1401";
name = "Light Italic";
paths = (
{
closed = 1;
nodes = (
"511 680 LINE",
"241 273 LINE",
"86 680 LINE",
"84 680 LINE",
"240 271 LINE",
"203 0 LINE",
"205 0 LINE",
"242 271 LINE",
"513 680 LINE"
);
}
);
width = 479;
},
{
anchors = (
{
name = top;
position = "{305, 682}";
},
{
name = topleft;
position = "{18, 520}";
}
);
background = {
paths = (
{
closed = 1;
nodes = (
"493 685 LINE",
"261 331 LINE",
"259 331 LINE",
"116 685 LINE",
"52 685 LINE",
"226 276 LINE",
"193 0 LINE",
"252 0 LINE",
"286 277 LINE",
"559 685 LINE"
);
}
);
};
layerId = "BCC09A48-EAE1-493E-95CB-92D2C26BC05D";
name = "Regular Italic";
paths = (
{
closed = 1;
nodes = (
"503 682 LINE",
"255 301 LINE",
"113 682 LINE",
"79 682 LINE",
"237 270 LINE",
"199 0 LINE",
"230 0 LINE",
"269 271 LINE",
"539 682 LINE"
);
}
);
width = 500;
},
{
anchors = (
{
name = top;
position = "{335, 689}";
},
{
name = topleft;
position = "{-32, 534}";
}
);
background = {
paths = (
{
closed = 1;
nodes = (
"589 689 LINE",
"484 689 LINE",
"277 352 LINE",
"273 352 LINE",
"148 689 LINE",
"49 689 LINE",
"219 264 LINE",
"187 0 LINE",
"283 0 LINE",
"315 264 LINE"
);
}
);
};
layerId = "A11F629A-ECF3-413E-B2EC-6C6F8C33A243";
name = "Regular Italic";
paths = (
{
closed = 1;
nodes = (
"497 689 LINE",
"282 348 LINE",
"164 689 LINE",
"65 689 LINE",
"225 264 LINE",
"187 0 LINE",
"283 0 LINE",
"320 265 LINE",
"600 689 LINE"
);
}
);
width = 544;
}
);
leftKerningGroup = Y;
rightKerningGroup = Y;
unicode = 0059;
},
{
color = 4;
glyphname = Z;
lastChange = "2014-04-26 15:52:18 +0100";
layers = (
{
anchors = (
{
name = top;
position = "{333, 696}";
}
);
background = {
paths = (
{
closed = 1;
nodes = (
"564 543 LINE",
"583 696 LINE",
"88 696 LINE",
"69 540 LINE",
"330 540 LINE",
"-7 151 LINE",
"-25 0 LINE",
"487 0 LINE",
"526 161 LINE",
"236 161 LINE"
);
}
);
};
layerId = UUID0;
name = "Bold Italic";
paths = (
{
closed = 1;
nodes = (
"97 696 LINE",
"76 540 LINE",
"326 540 LINE",
"-8 151 LINE",
"-28 0 LINE",
"474 0 LINE",
"516 161 LINE",
"237 161 LINE",
"561 543 LINE",
"582 696 LINE"
);
}
);
width = 545;
},
{
anchors = (
{
name = top;
position = "{313, 680}";
}
);
layerId = "F257A41E-77B2-4FB8-8247-C188CBBE1401";
name = "Light Italic";
paths = (
{
closed = 1;
nodes = (
"141 680 LINE",
"141 678 LINE",
"510 678 LINE",
"9 2 LINE",
"9 0 LINE",
"401 0 LINE",
"401 2 LINE",
"12 2 LINE",
"513 678 LINE",
"513 680 LINE"
);
}
);
width = 504;
},
{
anchors = (
{
name = top;
position = "{315, 682}";
}
);
background = {
paths = (
{
closed = 1;
nodes = (
"427 52 LINE",
"71 52 LINE",
"506 636 LINE",
"512 685 LINE",
"119 685 LINE",
"112 634 LINE",
"439 634 LINE",
"4 49 LINE",
"-2 0 LINE",
"414 0 LINE"
);
}
);
};
layerId = "BCC09A48-EAE1-493E-95CB-92D2C26BC05D";
name = "Regular Italic";
paths = (
{
closed = 1;
nodes = (
"137 682 LINE",
"133 653 LINE",
"478 653 LINE",
"7 28 LINE",
"3 0 LINE",
"408 0 LINE",
"417 30 LINE",
"46 30 LINE",
"517 655 LINE",
"520 682 LINE"
);
}
);
width = 511;
},
{
anchors = (
{
name = top;
position = "{329, 689}";
}
);
background = {
paths = (
{
closed = 1;
nodes = (
"510 612 LINE",
"519 689 LINE",
"108 689 LINE",
"98 609 LINE",
"404 609 LINE",
"-3 76 LINE",
"-12 0 LINE",
"424 0 LINE",
"444 81 LINE",
"105 81 LINE"
);
}
);
};
layerId = "A11F629A-ECF3-413E-B2EC-6C6F8C33A243";
name = "Regular Italic";
paths = (
{
closed = 1;
nodes = (
"125 689 LINE",
"114 609 LINE",
"416 609 LINE",
"2 76 LINE",
"-8 0 LINE",
"424 0 LINE",
"446 81 LINE",
"111 80 LINE",
"522 612 LINE",
"532 689 LINE"
);
}
);
width = 516;
}
);
leftKerningGroup = Z;
rightKerningGroup = Z;
unicode = 005A;
},
{
color = 4;
glyphname = a;
lastChange = "2014-05-25 15:37:09 +0100";
layers = (
{
anchors = (
{
name = ogonek;
position = "{493, -16}";
},
{
name = top;
position = "{346, 534}";
}
);
background = {
paths = (
{
closed = 1;
nodes = (
"563 488 LINE",
"497 527 OFFCURVE",
"407 554 OFFCURVE",
"323 554 CURVE SMOOTH",
"138 554 OFFCURVE",
"5 413 OFFCURVE",
"5 199 CURVE SMOOTH",
"5 45 OFFCURVE",
"77 -20 OFFCURVE",
"179 -20 CURVE SMOOTH",
"243 -20 OFFCURVE",
"301 11 OFFCURVE",
"343 69 CURVE",
"363 14 OFFCURVE",
"407 -11 OFFCURVE",
"488 -17 CURVE",
"542 111 LINE",
"519 120 OFFCURVE",
"514 135 OFFCURVE",
"519 173 CURVE SMOOTH"
);
},
{
closed = 1;
nodes = (
"224 122 OFFCURVE",
"202 140 OFFCURVE",
"202 203 CURVE SMOOTH",
"202 346 OFFCURVE",
"260 413 OFFCURVE",
"313 413 CURVE SMOOTH",
"330 413 OFFCURVE",
"340 410 OFFCURVE",
"354 404 CURVE",
"324 194 LINE",
"307 153 OFFCURVE",
"278 122 OFFCURVE",
"251 122 CURVE SMOOTH"
);
},
{
closed = 1;
nodes = (
"152 554 OFFCURVE",
"39 437 OFFCURVE",
"15 270 CURVE",
"-9 95 OFFCURVE",
"49 -20 OFFCURVE",
"187 -20 CURVE SMOOTH",
"278 -20 OFFCURVE",
"330 30 OFFCURVE",
"363 103 CURVE",
"338 197 LINE",
"312 146 OFFCURVE",
"281 122 OFFCURVE",
"252 122 CURVE SMOOTH",
"224 122 OFFCURVE",
"197 139 OFFCURVE",
"214 265 CURVE SMOOTH",
"230 375 OFFCURVE",
"281 417 OFFCURVE",
"321 417 CURVE SMOOTH",
"341 417 OFFCURVE",
"378 410 OFFCURVE",
"397 392 CURVE",
"564 491 LINE",
"490 535 OFFCURVE",
"397 554 OFFCURVE",
"322 554 CURVE SMOOTH"
);
},
{
closed = 1;
nodes = (
"364 429 LINE",
"320 111 LINE",
"335 92 LINE",
"348 15 OFFCURVE",
"413 -11 OFFCURVE",
"485 -16 CURVE",
"541 110 LINE",
"518 119 OFFCURVE",
"514 134 OFFCURVE",
"519 172 CURVE SMOOTH",
"564 491 LINE"
);
}
);
};
layerId = UUID0;
leftMetricsKey = o;
name = "Bold Italic";
paths = (
{
closed = 1;
nodes = (
"93 554 OFFCURVE",
"10 354 OFFCURVE",
"10 197 CURVE SMOOTH",
"10 64 OFFCURVE",
"69 -20 OFFCURVE",
"187 -20 CURVE SMOOTH",
"261 -20 OFFCURVE",
"310 19 OFFCURVE",
"344 72 CURVE",
"365 15 OFFCURVE",
"423 -12 OFFCURVE",
"485 -16 CURVE",
"541 110 LINE",
"524 117 OFFCURVE",
"517 127 OFFCURVE",
"517 148 CURVE",
"517 155 OFFCURVE",
"518 163 OFFCURVE",
"519 172 CURVE SMOOTH",
"565 491 LINE",
"491 535 OFFCURVE",
"404 554 OFFCURVE",
"329 554 CURVE SMOOTH"
);
},
{
closed = 1;
nodes = (
"337 418 OFFCURVE",
"348 416 OFFCURVE",
"363 412 CURVE",
"329 182 LINE",
"305 141 OFFCURVE",
"278 122 OFFCURVE",
"252 122 CURVE SMOOTH",
"230 122 OFFCURVE",
"209 132 OFFCURVE",
"209 198 CURVE SMOOTH",
"209 292 OFFCURVE",
"236 418 OFFCURVE",
"321 418 CURVE SMOOTH"
);
}
);
width = 573.495;
},
{
anchors = (
{
name = ogonek;
position = "{452, -9}";
},
{
name = top;
position = "{337, 517}";
}
);
background = {
paths = (
{
closed = 0;
nodes = (
"458 485 LINE",
"405 121 LINE",
"405 119 LINE",
"395 39 OFFCURVE",
"400 9 OFFCURVE",
"442 -8 CURVE"
);
},
{
closed = 0;
nodes = (
"404 119 LINE",
"356 32 OFFCURVE",
"291 -8 OFFCURVE",
"217 -8 CURVE SMOOTH",
"119 -8 OFFCURVE",
"59 98 OFFCURVE",
"79 249 CURVE SMOOTH",
"100 404 OFFCURVE",
"214 526 OFFCURVE",
"325 526 CURVE SMOOTH",
"384 526 OFFCURVE",
"426 512 OFFCURVE",
"459 488 CURVE"
);
},
{
closed = 1;
nodes = (
"194 527 OFFCURVE",
"99 409 OFFCURVE",
"78 249 CURVE",
"58 98 OFFCURVE",
"118 -9 OFFCURVE",
"217 -9 CURVE",
"291 -9 OFFCURVE",
"357 31 OFFCURVE",
"405 119 CURVE",
"404 121 LINE",
"357 34 OFFCURVE",
"291 -7 OFFCURVE",
"217 -7 CURVE",
"120 -7 OFFCURVE",
"60 98 OFFCURVE",
"80 249 CURVE",
"101 409 OFFCURVE",
"194 525 OFFCURVE",
"337 525 CURVE",
"387 525 OFFCURVE",
"427 509 OFFCURVE",
"461 485 CURVE",
"462 487 LINE",
"428 511 OFFCURVE",
"387 527 OFFCURVE",
"337 527 CURVE"
);
},
{
closed = 1;
nodes = (
"460 487 LINE",
"404 121 LINE",
"404 119 LINE",
"394 39 OFFCURVE",
"399 8 OFFCURVE",
"442 -9 CURVE",
"443 -7 LINE",
"402 10 OFFCURVE",
"396 39 OFFCURVE",
"406 121 CURVE",
"462 487 LINE"
);
}
);
};
layerId = "F257A41E-77B2-4FB8-8247-C188CBBE1401";
name = "Light Italic";
paths = (
{
closed = 1;
nodes = (
"139 527 OFFCURVE",
"74 326 OFFCURVE",
"74 183 CURVE SMOOTH",
"74 72 OFFCURVE",
"129 -9 OFFCURVE",
"227 -9 CURVE SMOOTH",
"291 -9 OFFCURVE",
"357 31 OFFCURVE",
"404 118 CURVE",
"398 71 OFFCURVE",
"388 12 OFFCURVE",
"442 -9 CURVE",
"443 -7 LINE",
"413 4 OFFCURVE",
"401 28 OFFCURVE",
"401 65 CURVE SMOOTH",
"401 81 OFFCURVE",
"403 99 OFFCURVE",
"406 121 CURVE SMOOTH",
"462 487 LINE",
"428 511 OFFCURVE",
"387 527 OFFCURVE",
"337 527 CURVE SMOOTH"
);
},
{
closed = 1;
nodes = (
"386 525 OFFCURVE",
"426 510 OFFCURVE",
"460 486 CURVE",
"404 121 LINE",
"357 34 OFFCURVE",
"291 -7 OFFCURVE",
"227 -7 CURVE SMOOTH",
"130 -7 OFFCURVE",
"76 73 OFFCURVE",
"76 183 CURVE SMOOTH",
"76 325 OFFCURVE",
"140 525 OFFCURVE",
"337 525 CURVE SMOOTH"
);
}
);
width = 538.629;
},
{
anchors = (
{
name = ogonek;
position = "{452, -10}";
},
{
name = top;
position = "{333, 520}";
}
);
background = {
paths = (
{
closed = 1;
nodes = (
"471 29 LINE",
"445 37 OFFCURVE",
"433 50 OFFCURVE",
"433 84 CURVE SMOOTH",
"433 93 OFFCURVE",
"433 103 OFFCURVE",
"435 114 CURVE SMOOTH",
"487 490 LINE",
"437 518 OFFCURVE",
"375 534 OFFCURVE",
"324 534 CURVE SMOOTH",
"177 534 OFFCURVE",
"51 406 OFFCURVE",
"51 193 CURVE SMOOTH",
"51 58 OFFCURVE",
"117 -11 OFFCURVE",
"204 -11 CURVE SMOOTH",
"266 -11 OFFCURVE",
"328 28 OFFCURVE",
"381 108 CURVE",
"379 95 OFFCURVE",
"378 84 OFFCURVE",
"378 73 CURVE SMOOTH",
"378 24 OFFCURVE",
"402 -2 OFFCURVE",
"455 -11 CURVE"
);
},
{
closed = 1;
nodes = (
"162 39 OFFCURVE",
"112 84 OFFCURVE",
"112 193 CURVE SMOOTH",
"112 378 OFFCURVE",
"213 485 OFFCURVE",
"321 485 CURVE SMOOTH",
"358 485 OFFCURVE",
"394 477 OFFCURVE",
"426 460 CURVE",
"388 186 LINE",
"338 85 OFFCURVE",
"272 39 OFFCURVE",
"220 39 CURVE SMOOTH"
);
},
{
closed = 1;
nodes = (
"192 530 OFFCURVE",
"92 420 OFFCURVE",
"70 260 CURVE SMOOTH",
"46 91 OFFCURVE",
"110 -10 OFFCURVE",
"227 -10 CURVE SMOOTH",
"305 -10 OFFCURVE",
"365 41 OFFCURVE",
"402 111 CURVE",
"401 155 LINE",
"353 68 OFFCURVE",
"302 18 OFFCURVE",
"228 18 CURVE SMOOTH",
"130 18 OFFCURVE",
"80 105 OFFCURVE",
"100 256 CURVE SMOOTH",
"121 411 OFFCURVE",
"214 503 OFFCURVE",
"325 503 CURVE SMOOTH",
"384 503 OFFCURVE",
"424 488 OFFCURVE",
"457 464 CURVE",
"476 488 LINE",
"433 511 OFFCURVE",
"399 530 OFFCURVE",
"324 530 CURVE SMOOTH"
);
},
{
closed = 1;
nodes = (
"444 485 LINE",
"392 125 LINE",
"391 112 LINE",
"381 32 OFFCURVE",
"402 3 OFFCURVE",
"443 -10 CURVE",
"452 13 LINE",
"424 25 OFFCURVE",
"412 41 OFFCURVE",
"422 109 CURVE SMOOTH",
"476 488 LINE"
);
}
);
};
layerId = "BCC09A48-EAE1-493E-95CB-92D2C26BC05D";
name = "Regular Italic";
paths = (
{
closed = 1;
nodes = (
"134 530 OFFCURVE",
"65 332 OFFCURVE",
"65 193 CURVE SMOOTH",
"65 65 OFFCURVE",
"126 -10 OFFCURVE",
"227 -10 CURVE SMOOTH",
"297 -10 OFFCURVE",
"354 31 OFFCURVE",
"392 90 CURVE",
"385 21 OFFCURVE",
"407 1 OFFCURVE",
"443 -10 CURVE",
"452 13 LINE",
"431 22 OFFCURVE",
"419 34 OFFCURVE",
"419 69 CURVE",
"419 80 OFFCURVE",
"420 93 OFFCURVE",
"422 109 CURVE SMOOTH",
"478 488 LINE",
"437 511 OFFCURVE",
"396 530 OFFCURVE",
"324 530 CURVE SMOOTH"
);
},
{
closed = 1;
nodes = (
"375 504 OFFCURVE",
"416 492 OFFCURVE",
"447 474 CURVE",
"398 140 LINE",
"352 61 OFFCURVE",
"298 18 OFFCURVE",
"228 18 CURVE SMOOTH",
"144 18 OFFCURVE",
"96 81 OFFCURVE",
"96 194 CURVE SMOOTH",
"96 318 OFFCURVE",
"156 504 OFFCURVE",
"325 504 CURVE SMOOTH"
);
}
);
width = 551.556;
},
{
anchors = (
{
name = ogonek;
position = "{476, -12}";
},
{
name = top;
position = "{333, 527}";
}
);
background = {
anchors = (
{
name = ogonek;
position = "{463, 0}";
},
{
name = top;
position = "{332, 527}";
}
);
paths = (
{
closed = 1;
nodes = (
"519 494 LINE",
"446 528 OFFCURVE",
"406 539 OFFCURVE",
"330 539 CURVE SMOOTH",
"179 539 OFFCURVE",
"51 407 OFFCURVE",
"51 200 CURVE SMOOTH",
"51 57 OFFCURVE",
"117 -12 OFFCURVE",
"216 -12 CURVE SMOOTH",
"267 -12 OFFCURVE",
"325 22 OFFCURVE",
"369 79 CURVE",
"373 27 OFFCURVE",
"409 -6 OFFCURVE",
"461 -12 CURVE",
"490 54 LINE",
"470 62 OFFCURVE",
"461 73 OFFCURVE",
"461 99 CURVE SMOOTH",
"461 107 OFFCURVE",
"462 116 OFFCURVE",
"464 128 CURVE SMOOTH"
);
},
{
closed = 1;
nodes = (
"192 61 OFFCURVE",
"151 98 OFFCURVE",
"151 200 CURVE SMOOTH",
"151 380 OFFCURVE",
"237 466 OFFCURVE",
"335 466 CURVE SMOOTH",
"368 466 OFFCURVE",
"390 462 OFFCURVE",
"420 449 CURVE",
"376 165 LINE",
"331 98 OFFCURVE",
"280 61 OFFCURVE",
"240 61 CURVE SMOOTH"
);
},
{
closed = 1;
nodes = (
"188 539 OFFCURVE",
"79 422 OFFCURVE",
"55 253 CURVE SMOOTH",
"33 97 OFFCURVE",
"90 -12 OFFCURVE",
"218 -12 CURVE SMOOTH",
"287 -12 OFFCURVE",
"347 32 OFFCURVE",
"389 96 CURVE",
"387 172 LINE",
"342 110 OFFCURVE",
"300 61 OFFCURVE",
"240 61 CURVE SMOOTH",
"167 61 OFFCURVE",
"134 121 OFFCURVE",
"153 258 CURVE SMOOTH",
"173 397 OFFCURVE",
"254 466 OFFCURVE",
"333 466 CURVE SMOOTH",
"376 466 OFFCURVE",
"398 460 OFFCURVE",
"437 442 CURVE",
"519 494 LINE",
"449 528 OFFCURVE",
"394 539 OFFCURVE",
"331 539 CURVE SMOOTH"
);
},
{
closed = 1;
nodes = (
"426 475 LINE",
"371 123 LINE",
"374 89 LINE",
"377 23 OFFCURVE",
"411 -5 OFFCURVE",
"468 -12 CURVE",
"494 51 LINE",
"469 61 OFFCURVE",
"455 74 OFFCURVE",
"462 120 CURVE SMOOTH",
"519 494 LINE"
);
}
);
};
layerId = "A11F629A-ECF3-413E-B2EC-6C6F8C33A243";
leftMetricsKey = o;
name = "Regular Italic";
paths = (
{
closed = 1;
nodes = (
"126 539 OFFCURVE",
"50 334 OFFCURVE",
"50 190 CURVE SMOOTH",
"50 69 OFFCURVE",
"108 -12 OFFCURVE",
"218 -12 CURVE SMOOTH",
"280 -12 OFFCURVE",
"334 23 OFFCURVE",
"375 76 CURVE",
"382 19 OFFCURVE",
"415 -5 OFFCURVE",
"468 -12 CURVE",
"494 51 LINE",
"473 59 OFFCURVE",
"460 70 OFFCURVE",
"460 99 CURVE SMOOTH",
"460 105 OFFCURVE",
"461 112 OFFCURVE",
"462 120 CURVE SMOOTH",
"519 494 LINE",
"449 528 OFFCURVE",
"394 539 OFFCURVE",
"331 539 CURVE SMOOTH"
);
},
{
closed = 1;
nodes = (
"370 466 OFFCURVE",
"392 462 OFFCURVE",
"422 449 CURVE",
"378 158 LINE",
"337 103 OFFCURVE",
"296 61 OFFCURVE",
"240 61 CURVE SMOOTH",
"181 61 OFFCURVE",
"148 101 OFFCURVE",
"148 189 CURVE SMOOTH",
"148 307 OFFCURVE",
"199 466 OFFCURVE",
"333 466 CURVE SMOOTH"
);
}
);
width = 569.188;
},
{
anchors = (
{
name = ogonek;
position = "{460, 0}";
},
{
name = top;
position = "{308, 534}";
}
);
associatedMasterId = UUID0;
background = {
paths = (
{
closed = 1;
nodes = (
"566 488 LINE",
"500 527 OFFCURVE",
"410 554 OFFCURVE",
"326 554 CURVE SMOOTH",
"141 554 OFFCURVE",
"8 413 OFFCURVE",
"8 199 CURVE SMOOTH",
"8 45 OFFCURVE",
"80 -20 OFFCURVE",
"182 -20 CURVE SMOOTH",
"246 -20 OFFCURVE",
"304 11 OFFCURVE",
"346 69 CURVE",
"366 14 OFFCURVE",
"410 -11 OFFCURVE",
"491 -17 CURVE",
"545 111 LINE",
"522 120 OFFCURVE",
"517 135 OFFCURVE",
"522 173 CURVE SMOOTH"
);
},
{
closed = 1;
nodes = (
"227 122 OFFCURVE",
"205 140 OFFCURVE",
"205 203 CURVE SMOOTH",
"205 346 OFFCURVE",
"263 413 OFFCURVE",
"316 413 CURVE SMOOTH",
"333 413 OFFCURVE",
"343 410 OFFCURVE",
"357 404 CURVE",
"327 194 LINE",
"310 153 OFFCURVE",
"281 122 OFFCURVE",
"254 122 CURVE SMOOTH"
);
}
);
};
layerId = "0E3D2BE7-832C-4523-B241-CFD45598DFFD";
name = "Bold Italic Apr 14 14, 10:50";
paths = (
{
closed = 1;
nodes = (
"237 554 OFFCURVE",
"155 540 OFFCURVE",
"85 513 CURVE",
"112 386 LINE",
"165 404 OFFCURVE",
"219 414 OFFCURVE",
"251 414 CURVE SMOOTH",
"308 414 OFFCURVE",
"323 401 OFFCURVE",
"315 347 CURVE",
"286 138 LINE",
"311 72 LINE",
"331 11 OFFCURVE",
"375 -11 OFFCURVE",
"447 -16 CURVE",
"503 110 LINE",
"480 119 OFFCURVE",
"475 134 OFFCURVE",
"481 172 CURVE SMOOTH",
"507 356 LINE SMOOTH",
"525 488 OFFCURVE",
"464 554 OFFCURVE",
"296 554 CURVE SMOOTH"
);
},
{
closed = 1;
nodes = (
"275 333 LINE SMOOTH",
"110 333 OFFCURVE",
"14 269 OFFCURVE",
"-3 153 CURVE SMOOTH",
"-17 52 OFFCURVE",
"43 -20 OFFCURVE",
"149 -20 CURVE SMOOTH",
"213 -20 OFFCURVE",
"281 4 OFFCURVE",
"327 70 CURVE",
"297 169 LINE",
"283 144 OFFCURVE",
"259 119 OFFCURVE",
"228 119 CURVE SMOOTH",
"200 119 OFFCURVE",
"187 137 OFFCURVE",
"191 162 CURVE SMOOTH",
"198 209 OFFCURVE",
"234 225 OFFCURVE",
"282 225 CURVE SMOOTH",
"325 225 LINE",
"339 333 LINE"
);
}
);
width = 539;
},
{
anchors = (
{
name = ogonek;
position = "{426, 0}";
},
{
name = top;
position = "{295, 527}";
}
);
associatedMasterId = "A11F629A-ECF3-413E-B2EC-6C6F8C33A243";
background = {
paths = (
{
closed = 1;
nodes = (
"513 494 LINE",
"440 528 OFFCURVE",
"400 539 OFFCURVE",
"324 539 CURVE SMOOTH",
"173 539 OFFCURVE",
"45 407 OFFCURVE",
"45 200 CURVE SMOOTH",
"45 57 OFFCURVE",
"111 -12 OFFCURVE",
"210 -12 CURVE SMOOTH",
"261 -12 OFFCURVE",
"319 22 OFFCURVE",
"363 79 CURVE",
"367 27 OFFCURVE",
"403 -6 OFFCURVE",
"455 -12 CURVE",
"484 54 LINE",
"464 62 OFFCURVE",
"455 73 OFFCURVE",
"455 99 CURVE SMOOTH",
"455 107 OFFCURVE",
"456 116 OFFCURVE",
"458 128 CURVE SMOOTH"
);
},
{
closed = 1;
nodes = (
"186 61 OFFCURVE",
"145 98 OFFCURVE",
"145 200 CURVE SMOOTH",
"145 380 OFFCURVE",
"231 466 OFFCURVE",
"329 466 CURVE SMOOTH",
"362 466 OFFCURVE",
"384 462 OFFCURVE",
"414 449 CURVE",
"370 165 LINE",
"325 98 OFFCURVE",
"274 61 OFFCURVE",
"234 61 CURVE SMOOTH"
);
}
);
};
layerId = "6E4418EB-73B0-4784-AE51-5793893E5472";
name = "  ";
paths = (
{
closed = 1;
nodes = (
"241 539 OFFCURVE",
"181 528 OFFCURVE",
"114 504 CURVE",
"131 435 LINE",
"187 453 OFFCURVE",
"237 464 OFFCURVE",
"277 464 CURVE SMOOTH",
"348 464 OFFCURVE",
"379 439 OFFCURVE",
"368 363 CURVE",
"334 123 LINE",
"337 89 LINE",
"340 23 OFFCURVE",
"374 -5 OFFCURVE",
"431 -12 CURVE",
"457 51 LINE",
"432 61 OFFCURVE",
"418 74 OFFCURVE",
"425 120 CURVE SMOOTH",
"459 361 LINE SMOOTH",
"474 471 OFFCURVE",
"425 539 OFFCURVE",
"297 539 CURVE SMOOTH"
);
},
{
closed = 1;
nodes = (
"280 321 LINE SMOOTH",
"134 321 OFFCURVE",
"44 263 OFFCURVE",
"28 152 CURVE SMOOTH",
"15 56 OFFCURVE",
"70 -12 OFFCURVE",
"176 -12 CURVE SMOOTH",
"243 -12 OFFCURVE",
"305 14 OFFCURVE",
"350 80 CURVE",
"347 159 LINE",
"307 92 OFFCURVE",
"260 57 OFFCURVE",
"198 57 CURVE SMOOTH",
"141 57 OFFCURVE",
"116 87 OFFCURVE",
"125 147 CURVE SMOOTH",
"135 221 OFFCURVE",
"192 260 OFFCURVE",
"288 260 CURVE SMOOTH",
"369 260 LINE",
"377 321 LINE"
);
}
);
width = 538;
},
{
anchors = (
{
name = ogonek;
position = "{412, 0}";
},
{
name = top;
position = "{293, 520}";
}
);
associatedMasterId = "BCC09A48-EAE1-493E-95CB-92D2C26BC05D";
background = {
paths = (
{
closed = 1;
nodes = (
"474 29 LINE",
"448 37 OFFCURVE",
"436 50 OFFCURVE",
"436 84 CURVE SMOOTH",
"436 93 OFFCURVE",
"436 103 OFFCURVE",
"438 114 CURVE SMOOTH",
"490 490 LINE",
"440 518 OFFCURVE",
"378 534 OFFCURVE",
"327 534 CURVE SMOOTH",
"180 534 OFFCURVE",
"54 406 OFFCURVE",
"54 193 CURVE SMOOTH",
"54 58 OFFCURVE",
"120 -11 OFFCURVE",
"207 -11 CURVE SMOOTH",
"269 -11 OFFCURVE",
"331 28 OFFCURVE",
"384 108 CURVE",
"382 95 OFFCURVE",
"381 84 OFFCURVE",
"381 73 CURVE SMOOTH",
"381 24 OFFCURVE",
"405 -2 OFFCURVE",
"458 -11 CURVE"
);
},
{
closed = 1;
nodes = (
"165 39 OFFCURVE",
"115 84 OFFCURVE",
"115 193 CURVE SMOOTH",
"115 378 OFFCURVE",
"216 485 OFFCURVE",
"324 485 CURVE SMOOTH",
"361 485 OFFCURVE",
"397 477 OFFCURVE",
"429 460 CURVE",
"391 186 LINE",
"341 85 OFFCURVE",
"275 39 OFFCURVE",
"223 39 CURVE SMOOTH"
);
}
);
};
layerId = "DB828812-6B80-4423-9A2D-1BBFB2D827B6";
name = "Regular Italic Apr 14 14, 11:12";
paths = (
{
closed = 1;
nodes = (
"241 530 OFFCURVE",
"192 517 OFFCURVE",
"137 496 CURVE",
"145 470 LINE",
"197 490 OFFCURVE",
"245 502 OFFCURVE",
"292 502 CURVE SMOOTH",
"389 502 OFFCURVE",
"414 458 OFFCURVE",
"401 370 CURVE",
"365 112 LINE",
"367 99 LINE",
"357 32 OFFCURVE",
"375 3 OFFCURVE",
"416 -10 CURVE",
"424 11 LINE",
"396 23 OFFCURVE",
"385 41 OFFCURVE",
"395 109 CURVE SMOOTH",
"432 371 LINE SMOOTH",
"446 475 OFFCURVE",
"405 530 OFFCURVE",
"292 530 CURVE SMOOTH"
);
},
{
closed = 1;
nodes = (
"276 310 LINE SMOOTH",
"153 310 OFFCURVE",
"64 252 OFFCURVE",
"49 146 CURVE SMOOTH",
"36 52 OFFCURVE",
"87 -10 OFFCURVE",
"187 -10 CURVE SMOOTH",
"264 -10 OFFCURVE",
"324 25 OFFCURVE",
"372 93 CURVE",
"372 131 LINE",
"328 62 OFFCURVE",
"269 18 OFFCURVE",
"187 18 CURVE SMOOTH",
"111 18 OFFCURVE",
"69 63 OFFCURVE",
"80 142 CURVE SMOOTH",
"94 236 OFFCURVE",
"169 282 OFFCURVE",
"280 282 CURVE SMOOTH",
"396 282 LINE",
"400 310 LINE"
);
}
);
width = 530;
},
{
anchors = (
{
name = ogonek;
position = "{402, 0}";
},
{
name = top;
position = "{286, 517}";
}
);
associatedMasterId = "F257A41E-77B2-4FB8-8247-C188CBBE1401";
layerId = "4B073A1D-71BC-4CBF-AAD8-72572ED067C4";
name = "Light Italic Apr 14 14, 11:16";
paths = (
{
closed = 1;
nodes = (
"245 527 OFFCURVE",
"197 516 OFFCURVE",
"139 493 CURVE",
"139 491 LINE",
"198 514 OFFCURVE",
"245 525 OFFCURVE",
"291 525 CURVE SMOOTH",
"394 525 OFFCURVE",
"422 466 OFFCURVE",
"409 372 CURVE SMOOTH",
"372 108 LINE",
"372 106 LINE",
"361 34 OFFCURVE",
"368 5 OFFCURVE",
"410 -9 CURVE",
"411 -7 LINE",
"369 6 OFFCURVE",
"364 37 OFFCURVE",
"374 110 CURVE SMOOTH",
"411 372 LINE SMOOTH",
"424 468 OFFCURVE",
"395 527 OFFCURVE",
"291 527 CURVE SMOOTH"
);
},
{
closed = 1;
nodes = (
"276 304 LINE SMOOTH",
"153 304 OFFCURVE",
"69 246 OFFCURVE",
"54 145 CURVE SMOOTH",
"42 56 OFFCURVE",
"86 -9 OFFCURVE",
"183 -9 CURVE SMOOTH",
"269 -9 OFFCURVE",
"327 32 OFFCURVE",
"373 107 CURVE",
"373 111 LINE",
"327 35 OFFCURVE",
"271 -7 OFFCURVE",
"183 -7 CURVE SMOOTH",
"87 -7 OFFCURVE",
"44 57 OFFCURVE",
"56 145 CURVE SMOOTH",
"69 244 OFFCURVE",
"154 302 OFFCURVE",
"276 302 CURVE SMOOTH",
"401 302 LINE",
"401 304 LINE"
);
}
);
width = 523;
}
);
leftKerningGroup = o;
leftMetricsKey = o;
rightKerningGroup = a;
unicode = 0061;
},
